<svg width="20" height="20" viewBox="0 0 20 20" fill="none" xmlns="http://www.w3.org/2000/svg">
<g clip-path="url(#clip0_7280_17918)">
<path d="M15.801 15.8308C18.9997 12.6321 18.9997 7.44601 15.801 4.24732C12.6023 1.04863 7.41622 1.04863 4.21753 4.24732C1.01883 7.44601 1.01883 12.6321 4.21753 15.8308C7.41622 19.0295 12.6023 19.0295 15.801 15.8308Z" fill="#E3504F"/>
<path fill-rule="evenodd" clip-rule="evenodd" d="M10.0117 12.5049C9.82991 12.5049 9.67436 12.3498 9.6428 12.1365L8.71303 5.86534C8.59614 5.07556 9.10636 4.35156 9.77969 4.35156H10.2432C10.9166 4.35156 11.4268 5.07556 11.3099 5.86534L10.3801 12.1365C10.349 12.3498 10.1935 12.5049 10.0117 12.5049Z" fill="#E6E9ED"/>
<path fill-rule="evenodd" clip-rule="evenodd" d="M10.8625 14.8663C10.8625 14.3978 10.4802 14.0156 10.0118 14.0156C9.54336 14.0156 9.16113 14.3978 9.16113 14.8663C9.16113 15.3347 9.54336 15.717 10.0118 15.717C10.4802 15.717 10.8625 15.3352 10.8625 14.8663Z" fill="#E6E9ED"/>
</g>
<defs>
<clipPath id="clip0_7280_17918">
<rect width="20" height="20" fill="white"/>
</clipPath>
</defs>
</svg>
