<svg xmlns="http://www.w3.org/2000/svg" width="20" height="20" viewBox="0 0 20 20" fill="none">
  <g clip-path="url(#clip0_6124_253)">
    <path d="M19.4831 0.758672C19.4831 0.396094 19.1893 0.102344 18.8267 0.102344L18.1683 0H1.8636C1.50103 0 1.20728 0.29375 1.20728 0.656328V18.4883C1.20728 18.8509 1.50103 19.1446 1.8636 19.1446H18.214L18.8267 19.0671C19.1893 19.0671 19.483 18.7733 19.483 18.4107V0.758672H19.4831Z" fill="white"/>
    <path d="M16.3783 16.2316C16.3013 16.2316 16.2244 16.2024 16.1655 16.1438L13.7823 13.7736C13.6642 13.6561 13.6636 13.465 13.7812 13.3468C13.8986 13.2286 14.0897 13.2281 14.208 13.3456L16.5912 15.7158C16.7093 15.8334 16.7099 16.0245 16.5923 16.1427C16.5334 16.202 16.4558 16.2316 16.3783 16.2316Z" fill="#E6EDF4"/>
    <path d="M6.62978 6.50972C6.55256 6.50972 6.47529 6.48022 6.41639 6.42132L4.21342 4.21835C4.09553 4.1005 4.09553 3.9094 4.21342 3.79151C4.33127 3.67366 4.52236 3.67366 4.64025 3.79151L6.84322 5.99448C6.96111 6.11233 6.96111 6.30343 6.84322 6.42132C6.78428 6.48026 6.70701 6.50972 6.62978 6.50972Z" fill="#E6EDF4"/>
    <path d="M19.5975 0.656328V18.4881C19.5975 18.8507 19.3038 19.1445 18.9412 19.1445H18.0559C18.4185 19.1445 18.7122 18.8507 18.7122 18.4881V0.656328C18.7122 0.29375 18.4185 0 18.0559 0H18.9412C19.3038 0 19.5975 0.29375 19.5975 0.656328Z" fill="#EBEDEF"/>
    <path d="M5.65486 3.20516H2.81693C2.65025 3.20516 2.51514 3.07004 2.51514 2.90336C2.51514 2.73668 2.65025 2.60156 2.81693 2.60156H5.65486C5.82154 2.60156 5.95666 2.73668 5.95666 2.90336C5.9567 3.07004 5.82154 3.20516 5.65486 3.20516Z" fill="#FFDE80"/>
    <path d="M7.45818 1.91609H2.81693C2.65025 1.91609 2.51514 1.78098 2.51514 1.6143C2.51514 1.44762 2.65025 1.3125 2.81693 1.3125H7.45818C7.62486 1.3125 7.75998 1.44762 7.75998 1.6143C7.75998 1.78098 7.62486 1.91609 7.45818 1.91609Z" fill="#FFDE80"/>
    <path d="M17.8672 2.89711H16.8209C16.7543 2.89711 16.7002 2.84305 16.7002 2.77637V1.73012C16.7002 1.66344 16.7543 1.60938 16.8209 1.60938H17.8672C17.9339 1.60938 17.988 1.66344 17.988 1.73012V2.77641C17.988 2.84309 17.9339 2.89711 17.8672 2.89711Z" fill="#E6EDF4"/>
    <path d="M17.8672 5.45965H16.8209C16.7543 5.45965 16.7002 5.40559 16.7002 5.33891V4.29262C16.7002 4.22594 16.7543 4.17188 16.8209 4.17188H17.8672C17.9339 4.17188 17.988 4.22594 17.988 4.29262V5.33891C17.988 5.40562 17.9339 5.45965 17.8672 5.45965Z" fill="#E6EDF4"/>
    <path d="M14.8603 16.5489H13.271C13.1043 16.5489 12.9692 16.4138 12.9692 16.2471C12.9692 16.0804 13.1044 15.9453 13.271 15.9453H14.8603C15.0271 15.9453 15.1621 16.0804 15.1621 16.2471C15.1621 16.4138 15.027 16.5489 14.8603 16.5489Z" fill="#86E8D0"/>
    <path d="M17.9123 17.838H13.271C13.1043 17.838 12.9692 17.7029 12.9692 17.5362C12.9692 17.3695 13.1044 17.2344 13.271 17.2344H17.9123C18.079 17.2344 18.2141 17.3695 18.2141 17.5362C18.2141 17.7028 18.079 17.838 17.9123 17.838Z" fill="#86E8D0"/>
    <path d="M15.2803 2.55672H12.6548C12.4881 2.55672 12.353 2.4216 12.353 2.25492C12.353 2.08824 12.4881 1.95312 12.6548 1.95312H15.2803C15.447 1.95312 15.5821 2.08824 15.5821 2.25492C15.5821 2.4216 15.447 2.55672 15.2803 2.55672Z" fill="#CEE0EA"/>
    <path d="M15.2802 5.11922H12.313C12.1463 5.11922 12.0112 4.9841 12.0112 4.81742C12.0112 4.65074 12.1463 4.51562 12.313 4.51562H15.2802C15.4469 4.51562 15.582 4.65074 15.582 4.81742C15.582 4.9841 15.4469 5.11922 15.2802 5.11922Z" fill="#CEE0EA"/>
    <path d="M2.93763 19.4376C2.64223 19.7788 2.25071 19.9539 1.85837 19.9539C1.50708 19.9539 1.15536 19.8142 0.869617 19.5285C0.752508 19.4114 0.623758 19.3161 0.554539 19.176C0.265594 18.5925 0.389969 17.8605 0.911492 17.409L5.84431 13.1406L7.30305 14.3652L2.93763 19.4376Z" fill="#8DB9FF"/>
    <path d="M7.36622 14.4274L2.98915 19.4858C2.69661 19.8238 2.28614 19.9948 1.87485 19.9948C1.49899 19.9948 1.12235 19.852 0.833799 19.5634C0.716689 19.4463 0.62415 19.3147 0.554932 19.1751C0.728369 19.462 1.66075 19.6689 2.38028 18.9494L6.63138 14.4033L7.2213 14.3047L7.36622 14.4274Z" fill="#70ABF2"/>
    <path d="M10.4114 15.6725C9.03358 15.6725 7.59737 15.2406 6.6314 14.4033C5.39811 13.3343 4.59741 11.819 4.59741 9.98586C4.59741 6.77488 7.20042 4.17188 10.4114 4.17188C11.3023 4.17188 12.1463 4.37238 12.901 4.73055C14.8664 5.66324 16.098 7.66578 16.098 9.9859C16.0981 13.1968 13.6224 15.6725 10.4114 15.6725Z" fill="#756E78"/>
    <path d="M12.9009 4.73438C14.2265 5.8 15.0751 7.4348 15.0751 9.26793C15.0751 12.4789 12.4721 15.0819 9.26107 15.0819C8.37018 15.0819 7.38604 14.7653 6.63135 14.4071C7.50455 15.1677 8.91006 15.8037 10.4114 15.8037C13.6224 15.8037 16.2254 13.2007 16.2254 9.98973C16.2253 7.66965 14.8663 5.66707 12.9009 4.73438Z" fill="#655F66"/>
    <path d="M14.8683 9.98207C14.8683 12.3145 13.0767 14.2288 10.7942 14.4227L9.76245 9.91836L13.5528 6.82031C14.3653 7.62797 14.8683 8.74629 14.8683 9.98207Z" fill="#86E8D0"/>
    <path d="M10.7943 14.4234C10.668 14.4342 10.5404 14.4398 10.4113 14.4398C7.94969 14.4398 5.9541 12.4443 5.9541 9.98269C5.9541 9.8475 5.96012 9.71348 5.97223 9.58148L8.67703 9.0625L10.4044 9.96941L10.7943 14.4234Z" fill="#FF7E7B"/>
    <path d="M13.5528 6.82664L10.4044 9.97512L5.97217 9.58719C6.17498 7.31355 8.08486 5.53125 10.4112 5.53125C11.6365 5.53125 12.7472 6.02625 13.5528 6.82664Z" fill="#FFDE80"/>
    <path d="M5.31688 16.7891L4.80774 16.35L3.50286 15.0452C3.41571 14.958 3.41571 14.8167 3.50286 14.7296L4.08895 14.1435C4.1761 14.0563 4.31739 14.0563 4.40454 14.1435L5.67946 15.4184L6.12036 15.9358C6.20751 16.0229 6.20751 16.1642 6.12036 16.2513L5.63251 16.7891C5.54532 16.8763 5.40403 16.8763 5.31688 16.7891Z" fill="#E6EDF4"/>
    <path d="M6.23064 16.2883L5.64475 16.8746C5.5574 16.9619 5.41619 16.9619 5.32924 16.8746L4.80811 16.3535L5.67975 15.4219L6.23064 15.9728C6.31795 16.0601 6.31795 16.2014 6.23064 16.2883Z" fill="#CEE0EA"/>
  </g>
  <defs>
    <clipPath id="clip0_6124_253">
      <rect width="20" height="20" fill="white"/>
    </clipPath>
  </defs>
</svg>