<svg width="28" height="28" viewBox="0 0 28 28" fill="none" xmlns="http://www.w3.org/2000/svg">
<g clip-path="url(#clip0_1184_1275)">
<path d="M18.8235 4.90039H9.17659C6.81956 4.90039 4.90002 6.81992 4.90002 9.17695V18.8238C4.90002 21.1809 6.81956 23.1004 9.17659 23.1004H18.8235C21.1805 23.1004 23.1 21.1809 23.1 18.8238V9.17695C23.1 6.81992 21.1805 4.90039 18.8235 4.90039ZM14.8422 16.5324C14.8422 16.773 14.6453 16.9699 14.4047 16.9699C14.1641 16.9699 13.9672 16.773 13.9672 16.5324V14.4379H11.7633V16.5324C11.7633 16.773 11.5664 16.9699 11.3258 16.9699C11.0852 16.9699 10.8883 16.773 10.8883 16.5324V13.0051C10.8883 11.9168 11.7742 11.0309 12.8625 11.0309C13.9508 11.0309 14.8367 11.9168 14.8367 13.0051V16.5324H14.8422ZM17.1063 16.5324C17.1063 16.773 16.9094 16.9699 16.6688 16.9699C16.4281 16.9699 16.2313 16.773 16.2313 16.5324V11.4684C16.2313 11.2277 16.4281 11.0309 16.6688 11.0309C16.9094 11.0309 17.1063 11.2277 17.1063 11.4684V16.5324Z" fill="#0A6DC2"/>
<path d="M12.868 11.9062C12.261 11.9062 11.7688 12.3984 11.7688 13.0055V13.5633H13.9727V13.0055C13.9672 12.3984 13.475 11.9062 12.868 11.9062Z" fill="#0A6DC2"/>
<path d="M11.55 3.20469C11.7907 3.20469 11.9875 3.00781 11.9875 2.76719V0.492187C11.9875 0.251562 11.7907 0.0546875 11.55 0.0546875C11.3094 0.0546875 11.1125 0.251562 11.1125 0.492187V2.77266C11.1125 3.01328 11.3094 3.20469 11.55 3.20469Z" fill="#0A6DC2"/>
<path d="M16.45 3.20469C16.6906 3.20469 16.8875 3.00781 16.8875 2.76719V0.492187C16.8875 0.251562 16.6906 0.0546875 16.45 0.0546875C16.2093 0.0546875 16.0125 0.251562 16.0125 0.492187V2.77266C16.0125 3.01328 16.2093 3.20469 16.45 3.20469Z" fill="#0A6DC2"/>
<path d="M11.55 24.7949C11.3094 24.7949 11.1125 24.9918 11.1125 25.2324V27.5074C11.1125 27.748 11.3094 27.9449 11.55 27.9449C11.7907 27.9449 11.9875 27.748 11.9875 27.5074V25.227C11.9875 24.9863 11.7907 24.7949 11.55 24.7949Z" fill="#0A6DC2"/>
<path d="M16.45 24.7949C16.2093 24.7949 16.0125 24.9918 16.0125 25.2324V27.5074C16.0125 27.748 16.2093 27.9449 16.45 27.9449C16.6906 27.9449 16.8875 27.748 16.8875 27.5074V25.227C16.8875 24.9863 16.6906 24.7949 16.45 24.7949Z" fill="#0A6DC2"/>
<path d="M25.2273 11.9883H27.5078C27.7484 11.9883 27.9453 11.7914 27.9453 11.5508C27.9453 11.3102 27.7484 11.1133 27.5078 11.1133H25.2273C24.9867 11.1133 24.7898 11.3102 24.7898 11.5508C24.7898 11.7914 24.9867 11.9883 25.2273 11.9883Z" fill="#0A6DC2"/>
<path d="M27.5078 16.0117H25.2273C24.9867 16.0117 24.7898 16.2086 24.7898 16.4492C24.7898 16.6898 24.9867 16.8867 25.2273 16.8867H27.5078C27.7484 16.8867 27.9453 16.6898 27.9453 16.4492C27.9453 16.2086 27.7484 16.0117 27.5078 16.0117Z" fill="#0A6DC2"/>
<path d="M2.77266 11.1133H0.492187C0.251562 11.1133 0.0546875 11.3102 0.0546875 11.5508C0.0546875 11.7914 0.251562 11.9883 0.492187 11.9883H2.77266C3.01328 11.9883 3.21016 11.7914 3.21016 11.5508C3.21016 11.3102 3.01328 11.1133 2.77266 11.1133Z" fill="#0A6DC2"/>
<path d="M2.77266 16.0117H0.492187C0.251562 16.0117 0.0546875 16.2086 0.0546875 16.4492C0.0546875 16.6898 0.251562 16.8867 0.492187 16.8867H2.77266C3.01328 16.8867 3.21016 16.6898 3.21016 16.4492C3.20469 16.2086 3.01328 16.0117 2.77266 16.0117Z" fill="#0A6DC2"/>
</g>
<defs>
<clipPath id="clip0_1184_1275">
<rect width="28" height="28" fill="white"/>
</clipPath>
</defs>
</svg>
