<svg width="16" height="17" viewBox="0 0 16 17" fill="none" xmlns="http://www.w3.org/2000/svg">
<g clip-path="url(#clip0_5529_32994)">
<path d="M8 16.5C12.4183 16.5 16 12.9183 16 8.5C16 4.08172 12.4183 0.5 8 0.5C3.58172 0.5 0 4.08172 0 8.5C0 12.9183 3.58172 16.5 8 16.5Z" fill="#FDE8BF"/>
<path d="M14.4135 8.49966C14.4135 12.0419 11.5423 14.9134 8.00011 14.9134C7.82411 14.9134 7.64974 14.9062 7.47768 14.8922C4.17971 14.6264 1.58643 11.8659 1.58643 8.49966C1.58643 5.13344 4.17974 2.37297 7.47768 2.10716C7.64977 2.09313 7.82411 2.08594 8.00011 2.08594C11.5423 2.08594 14.4135 4.95744 14.4135 8.49966Z" fill="#91D3E2"/>
<path d="M13.3686 8.50187C13.3686 11.8681 10.7756 14.6286 7.47768 14.8944C4.17971 14.6286 1.58643 11.8681 1.58643 8.50187C1.58643 5.13566 4.17974 2.37519 7.47768 2.10938C10.7756 2.37519 13.3686 5.13566 13.3686 8.50187Z" fill="#BFE8F7"/>
<path d="M10.3682 11.1253C10.3604 11.1014 10.3526 11.0774 10.3448 11.0535C10.14 10.4231 9.56861 9.99096 8.9073 9.94561C7.57177 9.85399 6.47705 8.7593 6.38542 7.42374C6.34008 6.76243 5.90792 6.19105 5.27752 5.98618C5.25358 5.97839 5.22961 5.97061 5.20567 5.96283C4.13267 5.61421 3.04255 6.45089 3.10405 7.57746C3.26836 10.5875 5.74345 13.0626 8.75352 13.2269C9.88008 13.2885 10.7168 12.1984 10.3682 11.1253Z" fill="#F44A82"/>
<path d="M9.66561 3.83614C7.93558 4.04492 8.09827 6.57898 9.43705 6.84023C10.2783 7.00439 10.3691 8.88398 11.2983 8.70145C13.1268 8.34226 11.5595 3.60755 9.66561 3.83614Z" fill="#4BC999"/>
<path d="M7.99984 15.1607C4.32834 15.1607 1.34131 12.1737 1.34131 8.50225C1.34131 4.83075 4.32834 1.84375 7.99984 1.84375C11.6713 1.84375 14.6583 4.83075 14.6583 8.50225C14.6583 12.1737 11.6714 15.1607 7.99984 15.1607ZM7.99984 2.33353C4.59837 2.33353 1.83109 5.10081 1.83109 8.50225C1.83109 11.9037 4.59837 14.671 7.99984 14.671C11.4013 14.671 14.1686 11.9037 14.1686 8.50225C14.1686 5.10081 11.4013 2.33353 7.99984 2.33353Z" fill="#F9C55F"/>
<path d="M4.66949 8.47863C5.08427 8.47863 5.42052 8.14238 5.42052 7.72759C5.42052 7.31281 5.08427 6.97656 4.66949 6.97656C4.25471 6.97656 3.91846 7.31281 3.91846 7.72759C3.91846 8.14238 4.25471 8.47863 4.66949 8.47863Z" fill="#E2276A"/>
<path d="M5.32272 10.2933C5.22465 10.2933 5.13409 10.2326 5.0964 10.1422C5.05475 10.0421 5.08625 9.92331 5.17094 9.85615C5.34325 9.71949 5.60259 9.87474 5.56375 10.0904C5.54294 10.2061 5.44087 10.2933 5.32272 10.2933Z" fill="#E2276A"/>
<path d="M7.02039 10.8169C6.91679 10.8169 6.82248 10.7494 6.78889 10.6516C6.75436 10.5511 6.79029 10.4365 6.87632 10.3739C7.0572 10.2423 7.3132 10.4151 7.25767 10.6323C7.23036 10.7392 7.13095 10.8169 7.02039 10.8169Z" fill="#E2276A"/>
<path d="M8.39216 12.4423C8.16963 12.4423 8.06348 12.1562 8.23295 12.0112C8.3152 11.9408 8.43791 11.9337 8.52801 11.9936C8.61001 12.0481 8.6522 12.1513 8.63176 12.2476C8.60804 12.3594 8.50685 12.4423 8.39216 12.4423Z" fill="#E2276A"/>
<path d="M9.82885 4.9962C9.72464 4.9962 9.62879 4.92717 9.59645 4.8281C9.5636 4.72742 9.59985 4.61395 9.68635 4.55232C9.86342 4.4261 10.114 4.58695 10.0684 4.80157C10.0447 4.91335 9.94354 4.9962 9.82885 4.9962Z" fill="#3AAF80"/>
<path d="M10.9066 6.98906C10.6862 6.98906 10.5796 6.70703 10.7439 6.56122C10.8264 6.488 10.9508 6.47956 11.0424 6.54075C11.1202 6.59272 11.1628 6.68741 11.1487 6.78016C11.1308 6.89859 11.0266 6.98906 10.9066 6.98906Z" fill="#3AAF80"/>
</g>
<defs>
<clipPath id="clip0_5529_32994">
<rect width="16" height="16" fill="white" transform="translate(0 0.5)"/>
</clipPath>
</defs>
</svg>
