<svg width="100" height="100" viewBox="0 0 100 100" fill="none" xmlns="http://www.w3.org/2000/svg">
<path d="M51.4424 20.6486V24.5909H62.9808V20.6486C61.5847 20.6486 52.8476 20.6486 51.4424 20.6486ZM67.7885 20.6486V24.5909H79.327V20.6486C77.9308 20.6486 69.1937 20.6486 67.7885 20.6486ZM18.7501 20.6486V24.5909H30.2885V20.6486C28.8926 20.6486 20.1553 20.6486 18.7501 20.6486ZM85.0962 15.7207V55.1438H12.9808V15.7207H85.0962ZM35.0962 20.6486V24.5909H46.6347V20.6486C45.2387 20.6486 36.5014 20.6486 35.0962 20.6486Z" fill="#EDF5FF"/>
<path d="M44.7115 65.5293H53.3654V93.4139H44.7115V65.5293Z" fill="#57606F"/>
<path d="M61.0577 61.6826V67.4518C58.2268 67.4518 39.8564 67.4518 37.0193 67.4518V61.6826H61.0577Z" fill="#414A56"/>
<path d="M36.5385 84.7596C37.3351 84.7596 37.9808 84.1139 37.9808 83.3173C37.9808 82.5207 37.3351 81.875 36.5385 81.875C35.7419 81.875 35.0962 82.5207 35.0962 83.3173C35.0962 84.1139 35.7419 84.7596 36.5385 84.7596Z" fill="#0A6DC2"/>
<path d="M56.25 94.3752H41.8269C41.2959 94.3752 40.8654 93.9448 40.8654 93.4137C40.8654 92.8825 41.2959 92.4521 41.8269 92.4521H56.25C56.7811 92.4521 57.2115 92.8825 57.2115 93.4137C57.2115 93.9448 56.7811 94.3752 56.25 94.3752Z" fill="#414A56"/>
<path d="M85.0961 82.0678C88.2824 82.0678 90.8654 79.4848 90.8654 76.2985C90.8654 73.1123 88.2824 70.5293 85.0961 70.5293C81.9099 70.5293 79.3269 73.1123 79.3269 76.2985C79.3269 79.4848 81.9099 82.0678 85.0961 82.0678Z" fill="#2CC09E"/>
<path d="M21.6346 76.2979C23.7577 76.2979 25.4808 78.019 25.4808 80.144C25.4808 82.269 23.7577 83.9902 21.6346 83.9902C19.5096 83.9902 17.7885 82.269 17.7885 80.144C17.7885 78.019 19.5096 76.2979 21.6346 76.2979Z" fill="#2CC09E"/>
<path d="M85.0962 54.1826V61.8749C81.9472 61.8749 14.9645 61.8749 12.9808 61.8749V54.1826H85.0962Z" fill="#A0B5C5"/>
<path d="M49.5192 30.1445V48.4138H18.75V30.1445H49.5192Z" fill="#FF5987"/>
<path d="M87.5 12.8368C88.2966 12.8368 88.9424 12.191 88.9424 11.3945C88.9424 10.5979 88.2966 9.95215 87.5 9.95215C86.7035 9.95215 86.0577 10.5979 86.0577 11.3945C86.0577 12.191 86.7035 12.8368 87.5 12.8368Z" fill="#94D4FF"/>
<path d="M78.8461 88.7977C79.6427 88.7977 80.2884 88.152 80.2884 87.3554C80.2884 86.5588 79.6427 85.9131 78.8461 85.9131C78.0496 85.9131 77.4038 86.5588 77.4038 87.3554C77.4038 88.152 78.0496 88.7977 78.8461 88.7977Z" fill="#0A6DC2"/>
<path d="M65.3846 78.2215C66.1811 78.2215 66.8269 77.5758 66.8269 76.7792C66.8269 75.9827 66.1811 75.3369 65.3846 75.3369C64.588 75.3369 63.9423 75.9827 63.9423 76.7792C63.9423 77.5758 64.588 78.2215 65.3846 78.2215Z" fill="#0A6DC2"/>
<path d="M32.6923 8.50962C33.4889 8.50962 34.1346 7.86387 34.1346 7.06731C34.1346 6.27074 33.4889 5.625 32.6923 5.625C31.8957 5.625 31.25 6.27074 31.25 7.06731C31.25 7.86387 31.8957 8.50962 32.6923 8.50962Z" fill="#94D4FF"/>
<path d="M43.0578 37.4885C42.8636 36.9308 42.5751 36.4462 42.1905 36.0327C41.8078 35.6192 41.3309 35.2923 40.7617 35.05C40.1924 34.8077 39.529 34.6885 38.7713 34.6885H35.3444V43.8692H38.7713C39.4597 43.8692 40.0867 43.7596 40.6521 43.5404C41.2174 43.3212 41.7001 43.0096 42.1001 42.6096C42.5021 42.2077 42.8097 41.725 43.0251 41.1596C43.2405 40.5962 43.3482 39.9635 43.3482 39.2654C43.3482 38.6366 43.2521 38.0442 43.0578 37.4885ZM41.0271 40.3596C40.9194 40.6904 40.7636 40.9789 40.5617 41.225C40.3597 41.4712 40.1078 41.6635 39.8059 41.8C39.504 41.9385 39.1578 42.0077 38.7713 42.0077H37.4636V36.55H38.7713C39.1501 36.55 39.4905 36.6154 39.7924 36.7442C40.0944 36.8731 40.3482 37.0596 40.5559 37.3C40.7617 37.5423 40.9194 37.8289 41.0271 38.1596C41.1347 38.4923 41.1886 38.8616 41.1886 39.2654C41.1886 39.6635 41.1347 40.0269 41.0271 40.3596Z" fill="white"/>
<path d="M28.2693 34.6885L24.9193 43.8692H27.0924L27.7905 41.8135H30.6482L31.3597 43.8692H33.5328L30.1828 34.6885H28.2693ZM28.127 40.3519L29.227 37.1058L30.3001 40.3519H28.127Z" fill="white"/>
<path d="M19.2308 68.6053C20.0273 68.6053 20.6731 67.9596 20.6731 67.163C20.6731 66.3664 20.0273 65.7207 19.2308 65.7207C18.4342 65.7207 17.7885 66.3664 17.7885 67.163C17.7885 67.9596 18.4342 68.6053 19.2308 68.6053Z" fill="#0A6DC2"/>
<path d="M10.577 85.9139C11.3735 85.9139 12.0193 85.2682 12.0193 84.4716C12.0193 83.675 11.3735 83.0293 10.577 83.0293C9.78039 83.0293 9.13464 83.675 9.13464 84.4716C9.13464 85.2682 9.78039 85.9139 10.577 85.9139Z" fill="#0A6DC2"/>
<path d="M24.5193 9.95215C23.9883 9.95215 23.5577 10.3827 23.5577 10.9137V20.5291C23.5577 21.06 23.9883 21.4906 24.5193 21.4906C25.0502 21.4906 25.4808 21.06 25.4808 20.5291V10.9137C25.4808 10.3827 25.0502 9.95215 24.5193 9.95215Z" fill="#F88F19"/>
<path d="M40.8655 9.95215C40.3345 9.95215 39.9039 10.3827 39.9039 10.9137V20.5291C39.9039 21.06 40.3345 21.4906 40.8655 21.4906C41.3964 21.4906 41.827 21.06 41.827 20.5291V10.9137C41.827 10.3827 41.3964 9.95215 40.8655 9.95215Z" fill="#F88F19"/>
<path d="M57.2115 9.95215C56.6804 9.95215 56.25 10.3827 56.25 10.9137V20.5291C56.25 21.06 56.6804 21.4906 57.2115 21.4906C57.7427 21.4906 58.1731 21.06 58.1731 20.5291V10.9137C58.1731 10.3827 57.7427 9.95215 57.2115 9.95215Z" fill="#F88F19"/>
<path d="M73.5577 9.95215C73.0266 9.95215 72.5962 10.3827 72.5962 10.9137V20.5291C72.5962 21.06 73.0266 21.4906 73.5577 21.4906C74.0889 21.4906 74.5193 21.06 74.5193 20.5291V10.9137C74.5193 10.3827 74.0889 9.95215 73.5577 9.95215Z" fill="#F88F19"/>
<path d="M68.75 34.9524H56.25C55.7188 34.9524 55.2885 34.5218 55.2885 33.9908C55.2885 33.4599 55.7188 33.0293 56.25 33.0293H68.75C69.2811 33.0293 69.7115 33.4599 69.7115 33.9908C69.7115 34.5218 69.2811 34.9524 68.75 34.9524Z" fill="#4BB9EC"/>
<path d="M75.4808 38.7981H56.25C55.7188 38.7981 55.2885 38.3675 55.2885 37.8365C55.2885 37.3056 55.7188 36.875 56.25 36.875H75.4808C76.0119 36.875 76.4423 37.3056 76.4423 37.8365C76.4423 38.3675 76.0119 38.7981 75.4808 38.7981Z" fill="#4BB9EC"/>
<path d="M75.4808 42.6438H56.25C55.7188 42.6438 55.2885 42.2132 55.2885 41.6822C55.2885 41.1513 55.7188 40.7207 56.25 40.7207H75.4808C76.0119 40.7207 76.4423 41.1513 76.4423 41.6822C76.4423 42.2132 76.0119 42.6438 75.4808 42.6438Z" fill="#4BB9EC"/>
<path d="M75.4808 46.4905H56.25C55.7188 46.4905 55.2885 46.0599 55.2885 45.5289C55.2885 44.998 55.7188 44.5674 56.25 44.5674H75.4808C76.0119 44.5674 76.4423 44.998 76.4423 45.5289C76.4423 46.0599 76.0119 46.4905 75.4808 46.4905Z" fill="#4BB9EC"/>
</svg>
