<svg width="16" height="17" viewBox="0 0 16 17" fill="none" xmlns="http://www.w3.org/2000/svg">
<g clip-path="url(#clip0_5529_32628)">
<path d="M6.55176 6.23438H9.44873V10.9344H6.55176V6.23438Z" fill="#40404C"/>
<path d="M9.3623 4.14941V3.49927C9.3623 2.70581 10.0056 2.0625 10.7991 2.0625C11.09 2.0625 11.3663 2.15027 11.5981 2.30505C11.8296 2.46008 12.0162 2.68237 12.1272 2.95129L12.3593 3.51392" fill="#40404C"/>
<path d="M8.75 5.80139V11.3357L12.8969 10.5768L15.7659 10.0516L13.6149 4.83752C13.4197 4.36426 13.0914 3.97327 12.6841 3.70032C12.2764 3.42786 11.79 3.27344 11.278 3.27344C11.2349 3.27344 11.1921 3.27441 11.1497 3.27673C9.81311 3.34326 8.75 4.44849 8.75 5.80139Z" fill="#40404C"/>
<path d="M11.1494 3.27673L12.8966 10.5768L15.7656 10.0516L13.6146 4.83752C13.4194 4.36426 13.0912 3.97327 12.6838 3.70032C12.2761 3.42786 11.7898 3.27344 11.2777 3.27344C11.2346 3.27344 11.1919 3.27441 11.1494 3.27673Z" fill="#5B5B68"/>
<path d="M16.0001 11.3359C16.0001 13.338 14.3771 14.9609 12.3751 14.9609C10.373 14.9609 8.75 13.338 8.75 11.3359C8.75 9.33386 10.373 7.71094 12.3751 7.71094C14.3771 7.71094 16.0001 9.33386 16.0001 11.3359Z" fill="#E4E4EF"/>
<path d="M14.9381 11.3368C14.9381 12.7524 13.7905 13.9 12.3749 13.9C10.9591 13.9 9.81152 12.7524 9.81152 11.3368C9.81152 9.92114 10.9591 8.77344 12.3749 8.77344C13.7905 8.77344 14.9381 9.92114 14.9381 11.3368Z" fill="#40404C"/>
<path d="M9.87402 10.772C10.1312 11.9159 11.1531 12.7708 12.3745 12.7708C13.5958 12.7708 14.6182 11.9159 14.8754 10.772C14.6182 9.62793 13.5962 8.77344 12.3749 8.77344C11.1531 8.77344 10.1312 9.62793 9.87402 10.772Z" fill="#589CE0"/>
<path d="M3.64062 3.51392L3.87268 2.95129C3.98364 2.68237 4.17029 2.46008 4.40173 2.30505C4.63342 2.15027 4.90991 2.0625 5.20068 2.0625C5.99414 2.0625 6.63745 2.70581 6.63745 3.49927V4.14941" fill="#40404C"/>
<path d="M7.24976 5.80139V11.3357L3.10291 10.5768L0.233887 10.0516L2.38477 4.83752C2.57996 4.36426 2.90833 3.97327 3.31567 3.70032C3.72339 3.42786 4.20972 3.27344 4.7218 3.27344C4.76489 3.27344 4.80762 3.27441 4.8501 3.27673C6.18665 3.34326 7.24976 4.44849 7.24976 5.80139Z" fill="#5B5B68"/>
<path d="M4.8501 3.27673L3.10291 10.5768L0.233887 10.0516L2.38477 4.83752C2.57996 4.36426 2.90833 3.97327 3.31567 3.70032C3.72339 3.42786 4.20972 3.27344 4.7218 3.27344C4.76489 3.27344 4.80762 3.27441 4.8501 3.27673Z" fill="#40404C"/>
<path d="M7.25012 11.3359C7.25012 13.338 5.62708 14.9609 3.625 14.9609C1.62305 14.9609 0 13.338 0 11.3359C0 9.33386 1.62305 7.71094 3.625 7.71094C5.62708 7.71094 7.25012 9.33386 7.25012 11.3359Z" fill="#E4E4EF"/>
<path d="M6.18811 11.3368C6.18811 12.7524 5.04053 13.9 3.62476 13.9C2.20911 13.9 1.06152 12.7524 1.06152 11.3368C1.06152 9.92114 2.20911 8.77344 3.62476 8.77344C5.04053 8.77344 6.18811 9.92114 6.18811 11.3368Z" fill="#40404C"/>
<path d="M6.12585 10.772C5.86865 11.9159 4.8468 12.7708 3.62537 12.7708C2.40405 12.7708 1.38171 11.9159 1.12451 10.772C1.38171 9.62793 2.40369 8.77344 3.625 8.77344C4.8468 8.77344 5.86865 9.62793 6.12585 10.772Z" fill="#589CE0"/>
<path d="M2.62854 11.3369C2.62854 11.8375 2.77185 12.3043 3.02026 12.699C2.07727 12.4705 1.33801 11.7207 1.12451 10.7719C1.38171 9.62793 2.40369 8.77344 3.625 8.77344C3.89819 8.77344 4.16162 8.81616 4.40833 8.89551C3.37598 9.22644 2.62854 10.1942 2.62854 11.3369Z" fill="#357FBC"/>
<path d="M11.3781 11.3369C11.3781 11.8375 11.5214 12.3043 11.7698 12.699C10.8268 12.4705 10.0875 11.7207 9.87402 10.7719C10.1312 9.62793 11.1532 8.77344 12.3745 8.77344C12.6477 8.77344 12.9111 8.81616 13.1578 8.89551C12.1255 9.22644 11.3781 10.1942 11.3781 11.3369Z" fill="#357FBC"/>
</g>
<defs>
<clipPath id="clip0_5529_32628">
<rect width="16" height="16" fill="white" transform="translate(0 0.5)"/>
</clipPath>
</defs>
</svg>
