<svg xmlns="http://www.w3.org/2000/svg" width="80" height="80" viewBox="0 0 80 80" fill="none">
  <path d="M9.35563 6.375H70.645C72.9599 6.37517 75.1799 7.29464 76.817 8.93126C78.4541 10.5679 79.3742 12.7876 79.375 15.1025V69.8863C79.375 72.2018 78.4552 74.4224 76.8179 76.0597C75.1805 77.6971 72.9599 78.6169 70.6444 78.6169H9.355C8.20846 78.6169 7.07314 78.391 6.01389 77.9522C4.95463 77.5134 3.99219 76.8703 3.18152 76.0595C2.37084 75.2487 1.72782 74.2862 1.28917 73.2268C0.850523 72.1675 0.624836 71.0322 0.625 69.8856V15.1025C0.625829 12.7875 1.54603 10.5677 3.18325 8.93104C4.82047 7.2944 7.04066 6.375 9.35563 6.375Z" fill="#EBF0F3"/>
  <path d="M79.375 26.0669V15.1025C79.3742 12.7876 78.4541 10.5679 76.817 8.93126C75.1799 7.29464 72.9599 6.37517 70.645 6.375H9.35563C7.04066 6.375 4.82047 7.2944 3.18325 8.93104C1.54603 10.5677 0.625829 12.7875 0.625 15.1025V26.0669H79.375Z" fill="#4DC1B7"/>
  <path d="M20.2143 1.38281C19.6032 1.38281 19.017 1.62547 18.5847 2.05745C18.1523 2.48943 17.9092 3.0754 17.9087 3.68656V12.7409C17.9187 13.3458 18.1659 13.9225 18.5972 14.3467C19.0284 14.7709 19.6091 15.0086 20.214 15.0086C20.8189 15.0086 21.3996 14.7709 21.8309 14.3467C22.2621 13.9225 22.5094 13.3458 22.5193 12.7409V3.68656C22.519 3.07546 22.276 2.48949 21.8438 2.05749C21.4115 1.62549 20.8254 1.38281 20.2143 1.38281Z" fill="#3D4D71"/>
  <path d="M59.7855 1.38281C59.1744 1.38281 58.5883 1.62549 58.156 2.05749C57.7238 2.48949 57.4808 3.07546 57.4805 3.68656V12.7409C57.4904 13.3458 57.7377 13.9225 58.1689 14.3467C58.6002 14.7709 59.1809 15.0086 59.7858 15.0086C60.3907 15.0086 60.9714 14.7709 61.4026 14.3467C61.8339 13.9225 62.0811 13.3458 62.0911 12.7409V3.68656C62.0906 3.0754 61.8475 2.48943 61.4151 2.05745C60.9828 1.62547 60.3966 1.38281 59.7855 1.38281Z" fill="#3D4D71"/>
  <path d="M11.4111 34.0352H20.113V42.737H11.4111V34.0352Z" fill="#9297AA"/>
  <path d="M27.5693 34.0352H36.2712V42.737H27.5693V34.0352Z" fill="#9297AA"/>
  <path d="M43.728 34.0352H52.4299V42.737H43.728V34.0352Z" fill="#9297AA"/>
  <path d="M59.8867 34.0352H68.5886V42.737H59.8867V34.0352Z" fill="#9297AA"/>
  <path d="M11.4111 48.1152H20.113V56.8171H11.4111V48.1152Z" fill="#9297AA"/>
  <path d="M27.5693 48.1152H36.2712V56.8171H27.5693V48.1152Z" fill="#9297AA"/>
  <path d="M43.728 48.1152H52.4299V56.8171H43.728V48.1152Z" fill="#9297AA"/>
  <path d="M59.8867 48.1152H68.5886V56.8171H59.8867V48.1152Z" fill="#9297AA"/>
  <path d="M11.4111 62.1953H20.113V70.8972H11.4111V62.1953Z" fill="#9297AA"/>
  <path d="M27.5693 62.1953H36.2712V70.8972H27.5693V62.1953Z" fill="#9297AA"/>
  <path d="M43.728 62.1953H52.4299V70.8972H43.728V62.1953Z" fill="#9297AA"/>
  <path d="M59.8867 62.1953H68.5886V70.8972H59.8867V62.1953Z" fill="#9297AA"/>
</svg>