<svg width="16" height="16" viewBox="0 0 16 16" fill="none" xmlns="http://www.w3.org/2000/svg">
<g clip-path="url(#clip0_5786_61)">
<path d="M14.3589 3.97272C13.6194 3.11772 12.8229 2.32422 11.9699 1.59172C10.0089 -0.284778 6.14589 0.472722 3.30839 3.30972C0.444389 6.17322 -0.304111 10.0847 1.63989 12.0287L3.97139 14.3602C4.70239 15.0917 5.71189 15.4422 6.83989 15.4422C8.70989 15.4422 10.9039 14.4787 12.6904 12.6922C15.5544 9.82822 16.3024 5.91672 14.3589 3.97272ZM3.94439 3.94572C5.56339 2.32722 7.52589 1.44072 9.14289 1.44072C10.0359 1.44072 10.8239 1.71122 11.3909 2.27772C11.7369 2.62372 11.9779 3.05922 12.1074 3.57322C12.5679 5.36522 11.6099 7.83672 9.72239 9.72422C7.83889 11.6072 5.36639 12.5642 3.56889 12.1087C3.05689 11.9797 2.62189 11.7387 2.27589 11.3927C0.683389 9.79922 1.43139 6.45872 3.94439 3.94572ZM12.0544 12.0557C9.54189 14.5682 6.20039 15.3162 4.60739 13.7237L3.97389 13.0902C4.15589 13.1102 4.34089 13.1227 4.52889 13.1227C6.42889 13.1227 8.60339 12.1152 10.3584 10.3602C12.2919 8.42672 13.3134 5.99172 13.0879 3.97522L13.7219 4.60922C15.3154 6.20222 14.5669 9.54222 12.0544 12.0557Z" fill="url(#paint0_linear_5786_61)"/>
<path d="M3.94439 3.94572C5.56339 2.32722 7.52589 1.44072 9.14289 1.44072C10.0359 1.44072 10.8239 1.71122 11.3909 2.27772C11.7369 2.62372 11.9779 3.05922 12.1074 3.57322C12.5679 5.36522 11.6099 7.83672 9.72239 9.72422C7.83889 11.6072 5.36639 12.5642 3.56889 12.1087C3.05689 11.9797 2.62189 11.7387 2.27589 11.3927C0.683389 9.79922 1.43139 6.45872 3.94439 3.94572Z" fill="white"/>
<path d="M12.0544 12.0557C9.54189 14.5682 6.20039 15.3162 4.60739 13.7237L3.97389 13.0902C4.15589 13.1102 4.34089 13.1227 4.52889 13.1227C6.42889 13.1227 8.60339 12.1152 10.3584 10.3602C12.2919 8.42672 13.3134 5.99172 13.0879 3.97522L13.7219 4.60922C15.3154 6.20222 14.5669 9.54222 12.0544 12.0557Z" fill="white"/>
<path d="M4.12025 5.58645C6.44634 7.28406 5.58817 9.61954 5.58817 9.61954C5.58817 9.61954 6.82564 7.46093 9.62127 8.15162C7.29517 6.454 8.15334 4.11852 8.15334 4.11852C8.15334 4.11852 6.91588 6.27714 4.12025 5.58645Z" fill="url(#paint1_linear_5786_61)"/>
</g>
<defs>
<linearGradient id="paint0_linear_5786_61" x1="19.1535" y1="-82.2361" x2="-9.92194" y2="-81.9188" gradientUnits="userSpaceOnUse">
<stop stop-color="#57AC91"/>
<stop offset="1" stop-color="#8AC3F9"/>
</linearGradient>
<linearGradient id="paint1_linear_5786_61" x1="26.5504" y1="-24.5694" x2="15.7481" y2="-29.4639" gradientUnits="userSpaceOnUse">
<stop stop-color="#57AC91"/>
<stop offset="1" stop-color="#8AC3F9"/>
</linearGradient>
<clipPath id="clip0_5786_61">
<rect width="16" height="16" fill="white"/>
</clipPath>
</defs>
</svg>
