<svg width="23" height="23" viewBox="0 0 23 23" fill="none" xmlns="http://www.w3.org/2000/svg">
<path d="M20.7693 0H2.9089C1.68119 0.0034878 0.681588 1.00309 0.678101 2.2308V20.0912C0.681588 21.3189 1.68119 22.3185 2.9089 22.322H20.7693C21.997 22.3185 22.9966 21.3189 23.0001 20.0912V2.2308C22.9966 1.00309 21.997 0.0034878 20.7693 0V0Z" fill="white"/>
<path d="M20.7693 0H2.9089C1.68119 0.0034878 0.681588 1.00309 0.678101 2.2308V20.0912C0.681588 21.3189 1.68119 22.3185 2.9089 22.322H20.7693C21.997 22.3185 22.9966 21.3189 23.0001 20.0912V2.2308C22.9966 1.00309 21.997 0.0034878 20.7693 0V0ZM7.23238 13.4532C8.21664 13.9038 9.37948 13.4678 9.8301 12.4829H11.3745C10.4119 16.4248 4.60955 15.7272 4.60955 11.6688C4.60955 7.6069 10.4119 6.90934 11.3745 10.8547H9.8301C9.26298 9.6089 7.62511 9.31035 6.65829 10.2807C5.68798 11.2468 5.98584 12.8853 7.23238 13.4525V13.4532ZM17.783 14.2379C17.4886 14.4925 17.158 14.6885 16.7945 14.8267C15.7517 15.2298 14.5749 15.0994 13.6444 14.4709V14.8267H12.2381V4.99523H13.6332V8.81717C14.1313 8.47955 14.7088 8.27935 15.308 8.23192H15.5585C18.7338 8.22494 20.1945 12.1773 17.7823 14.2372L17.783 14.2379ZM17.5758 11.666C17.5974 12.7633 16.715 13.668 15.6178 13.668C14.5205 13.668 13.6374 12.7633 13.6632 11.666C13.7176 9.11573 17.5179 9.11573 17.5758 11.666Z" fill="#085394"/>
</svg>
