<svg width="100" height="100" viewBox="0 0 100 100" fill="none" xmlns="http://www.w3.org/2000/svg">
<path d="M87.8847 10C90.5407 10 92.6924 12.1519 92.6924 14.8077C92.6924 17.4635 90.5407 19.6154 87.8847 19.6154C85.2289 19.6154 83.077 17.4635 83.077 14.8077C83.077 12.1519 85.2289 10 87.8847 10Z" fill="#2CC09E"/>
<path d="M10.9616 74.4229C13.0866 74.4229 14.8078 76.144 14.8078 78.269C14.8078 80.394 13.0866 82.1152 10.9616 82.1152C8.83663 82.1152 7.11548 80.394 7.11548 78.269C7.11548 76.144 8.83663 74.4229 10.9616 74.4229Z" fill="#2CC09E"/>
<path d="M49.8078 22.8848C64.6771 22.8848 76.7309 34.9386 76.7309 49.8078C76.7309 64.6771 64.6771 76.7309 49.8078 76.7309C34.9388 76.7309 22.8848 64.6771 22.8848 49.8078C22.8848 34.9386 34.9388 22.8848 49.8078 22.8848Z" fill="#0A6DC2"/>
<path d="M61.9233 33.0771V60.9618H57.1156L55.2258 39.1668L40.7694 37.8848V33.0771H61.9233Z" fill="#D5E8FE"/>
<path d="M57.1155 60.9617V66.7309H35.9617V37.8848H40.7694H57.1155V60.9617Z" fill="#EDF5FF"/>
<path d="M92.1539 33.4997C92.7174 32.9363 93.6289 32.9363 94.1924 33.4997C94.756 34.0632 94.756 34.9747 94.1924 35.5382C93.6289 36.1017 92.7174 36.1017 92.1539 35.5382C91.5905 34.9747 91.5905 34.063 92.1539 33.4997Z" fill="#95C9F4"/>
<path d="M85.5386 76.7693C86.1022 77.3327 86.1022 78.2443 85.5386 78.8077C84.9751 79.3714 84.0636 79.3714 83.5001 78.8077C82.9366 78.2443 82.9366 77.3327 83.5001 76.7693C84.0636 76.2058 84.9751 76.2058 85.5386 76.7693Z" fill="#95C9F4"/>
<path d="M74.9617 8.49974C75.5253 9.06321 75.5253 9.97474 74.9617 10.5382C74.3982 11.1017 73.4867 11.1017 72.9232 10.5382C72.3597 9.97474 72.3597 9.06321 72.9232 8.49974C73.4867 7.93628 74.3982 7.93628 74.9617 8.49974Z" fill="#95C9F4"/>
<path d="M18.2308 13.3074C18.7945 13.8708 18.7945 14.7824 18.2308 15.3458C17.6674 15.9093 16.7558 15.9093 16.1924 15.3458C15.6289 14.7824 15.6289 13.8708 16.1924 13.3074C16.7558 12.7439 17.6674 12.7439 18.2308 13.3074Z" fill="#95C9F4"/>
<path d="M8.61548 64.2693C9.17913 64.8327 9.17913 65.7443 8.61548 66.3077C8.05201 66.8714 7.14048 66.8714 6.57702 66.3077C6.01355 65.7443 6.01355 64.8327 6.57702 64.2693C7.14048 63.7058 8.05201 63.7058 8.61548 64.2693Z" fill="#95C9F4"/>
<path d="M29.4223 83.3912C29.248 83.3912 29.0717 83.3439 28.913 83.2444C23.3525 79.7629 18.7061 74.9067 15.4765 69.201C12.1453 63.3162 10.3848 56.6102 10.3848 49.8083C10.3848 41.751 12.7994 34.0027 17.3673 27.4014C21.8292 20.9531 28.0263 16.0233 35.2882 13.145C35.7821 12.9494 36.3407 13.191 36.5363 13.6846C36.7319 14.1783 36.4905 14.7371 35.9967 14.9329C21.6065 20.6366 12.3078 34.326 12.3078 49.8083C12.3078 62.8142 18.8969 74.7044 29.9334 81.6144C30.3836 81.8964 30.52 82.4896 30.2382 82.9398C30.0557 83.2312 29.7427 83.3912 29.4223 83.3912Z" fill="#76E2F8"/>
<path d="M51.8942 10.4393L54.9511 6.98331C55.303 6.58562 55.2659 5.97773 54.868 5.626C54.4703 5.27427 53.8625 5.31158 53.5105 5.70908L49.0875 10.7091C48.8175 11.0147 48.7596 11.4931 48.9984 11.8654C48.9986 11.8656 48.9986 11.8658 48.9988 11.866L52.4603 17.2506C52.6442 17.5364 52.9538 17.6923 53.2701 17.6923C53.4482 17.6923 53.6282 17.6429 53.7892 17.5397C54.2359 17.2523 54.3651 16.6575 54.078 16.2108L51.5971 12.3514C71.4469 13.2887 87.3078 29.7302 87.3078 49.8079C87.3078 70.4854 70.4853 87.3079 49.8078 87.3079H6.3463C5.81534 87.3079 5.38477 87.7383 5.38477 88.2695C5.38477 88.8006 5.81534 89.231 6.3463 89.231H49.8078C71.5459 89.231 89.2309 71.5458 89.2309 49.8079C89.2309 28.7691 72.6667 11.5268 51.8942 10.4393Z" fill="#0999FC"/>
<path d="M93.5812 88.376L89.735 84.3375C89.3689 83.9527 88.7602 83.9383 88.3756 84.3042C87.9912 84.6706 87.9764 85.2791 88.3425 85.6637L90.6413 88.0775H73.654C73.1231 88.0775 72.6925 88.5079 72.6925 89.0391C72.6925 89.5702 73.1231 90.0006 73.654 90.0006H90.8317L88.3 93.0389C87.96 93.4469 88.0152 94.0531 88.4233 94.3931C88.6031 94.5429 88.8212 94.616 89.0383 94.616C89.3137 94.616 89.5871 94.4983 89.7775 94.27C90.5312 93.3652 93.5081 89.7948 93.63 89.6452C93.936 89.2691 93.909 88.7202 93.5812 88.376Z" fill="#4BB9EC"/>
<path d="M52.3079 43.6545H40.7694C40.2384 43.6545 39.8079 43.2239 39.8079 42.693C39.8079 42.162 40.2384 41.7314 40.7694 41.7314H52.3079C52.839 41.7314 53.2694 42.162 53.2694 42.693C53.2694 43.2239 52.839 43.6545 52.3079 43.6545Z" fill="#4BB9EC"/>
<path d="M52.3079 48.4621H40.7694C40.2384 48.4621 39.8079 48.0316 39.8079 47.5006C39.8079 46.9696 40.2384 46.5391 40.7694 46.5391H52.3079C52.839 46.5391 53.2694 46.9696 53.2694 47.5006C53.2694 48.0316 52.839 48.4621 52.3079 48.4621Z" fill="#4BB9EC"/>
<path d="M52.3079 53.2698H40.7694C40.2384 53.2698 39.8079 52.8394 39.8079 52.3082C39.8079 51.7771 40.2384 51.3467 40.7694 51.3467H52.3079C52.839 51.3467 53.2694 51.7771 53.2694 52.3082C53.2694 52.8394 52.839 53.2698 52.3079 53.2698Z" fill="#4BB9EC"/>
<path d="M52.3079 58.0774H40.7694C40.2384 58.0774 39.8079 57.647 39.8079 57.1158C39.8079 56.5847 40.2384 56.1543 40.7694 56.1543H52.3079C52.839 56.1543 53.2694 56.5847 53.2694 57.1158C53.2694 57.647 52.839 58.0774 52.3079 58.0774Z" fill="#4BB9EC"/>
</svg>
