<svg width="75" height="75" viewBox="0 0 75 75" fill="none" xmlns="http://www.w3.org/2000/svg">
<g clip-path="url(#clip0_4073_44117)">
<path d="M70 75C71.3261 75 72.5979 74.4732 73.5355 73.5355C74.4732 72.5979 75 71.3261 75 70V17.5C75 16.1739 74.4732 14.9021 73.5355 13.9645C72.5979 13.0268 71.3261 12.5 70 12.5H53.75V75H70Z" fill="#E56B10"/>
<path d="M72.5 67.5V23.3588C72.5 20.4788 71.356 17.7169 69.3195 15.6805C67.2831 13.644 64.5212 12.5 61.6412 12.5H53.75V72.5H67.5C68.8261 72.5 70.0979 71.9732 71.0355 71.0355C71.9732 70.0979 72.5 68.8261 72.5 67.5Z" fill="#EC8329"/>
<path d="M15 0H60V40H15V0Z" fill="#C1CFE8"/>
<path d="M5 40V18.75L18.75 7.5H47.5V40H5Z" fill="#E4EAF4"/>
<path d="M47.5 13.75H55V16.25H47.5V13.75Z" fill="#004C9D"/>
<path d="M47.5 18.75H55V21.25H47.5V18.75Z" fill="#004C9D"/>
<path d="M47.5 23.75H55V26.25H47.5V23.75Z" fill="#004C9D"/>
<path d="M5 18.75H18.75V7.5L5 18.75Z" fill="#95AFD1"/>
<path d="M27.5 15H42.5V17.5H27.5V15Z" fill="#0059BE"/>
<path d="M22.5 20H42.5V22.5H22.5V20Z" fill="#0059BE"/>
<path d="M65 40C65 38.6739 64.4732 37.4022 63.5355 36.4645C62.5979 35.5268 61.3261 35 60 35H43.75C43.0298 35 42.3293 34.7654 41.7544 34.3316C41.1795 33.8979 40.7615 33.2887 40.5638 32.5963L39.4387 28.6538C39.2409 27.9609 38.8225 27.3514 38.2471 26.9176C37.6717 26.4839 36.9706 26.2495 36.25 26.25H6.25C4.5924 26.25 3.00269 26.9085 1.83058 28.0806C0.65848 29.2527 0 30.8424 0 32.5V70C0 71.3261 0.526784 72.5979 1.46447 73.5355C2.40215 74.4732 3.67392 75 5 75H70C68.6739 75 67.4021 74.4732 66.4645 73.5355C65.5268 72.5979 65 71.3261 65 70V40Z" fill="#FFA617"/>
<path d="M47.5 28.75H55V31.25H47.5V28.75Z" fill="#004C9D"/>
<path d="M65 40C65 38.6739 64.4732 37.4022 63.5355 36.4645C62.5979 35.5268 61.3261 35 60 35H43.75C43.0298 35 42.3293 34.7654 41.7544 34.3316C41.1795 33.8979 40.7615 33.2887 40.5638 32.5963L39.4387 28.6538C39.2409 27.9609 38.8225 27.3514 38.2471 26.9176C37.6717 26.4839 36.9706 26.2495 36.25 26.25H6.25C5.52966 26.2566 4.81601 26.389 4.14125 26.6413C3.889 27.316 3.75659 28.0297 3.75 28.75V66.25C3.75 67.5761 4.27678 68.8479 5.21447 69.7855C6.15215 70.7232 7.42392 71.25 8.75 71.25H65.1762C65.0646 70.8425 65.0054 70.4225 65 70V40Z" fill="#FCB732"/>
<path d="M25 55L33.75 63.75L28.75 68.75L20 60L11.25 68.75L6.25 63.75L15 55L6.25 46.25L11.25 41.25L20 50L28.75 41.25L33.75 46.25L25 55Z" fill="#C91123"/>
</g>
<defs>
<clipPath id="clip0_4073_44117">
<rect width="75" height="75" fill="white"/>
</clipPath>
</defs>
</svg>
