<svg xmlns="http://www.w3.org/2000/svg" width="24" height="24" viewBox="0 0 24 24" fill="none">
  <g clip-path="url(#clip0_4375_48701)">
    <path d="M8.57252 8.35627C8.57252 8.19755 8.61959 8.04239 8.70777 7.91042C8.79595 7.77845 8.92128 7.67559 9.06792 7.61485C9.21455 7.55411 9.37591 7.53822 9.53158 7.56919C9.68725 7.60015 9.83024 7.67658 9.94247 7.78881C10.0547 7.90104 10.1311 8.04403 10.1621 8.19971C10.1931 8.35538 10.1772 8.51673 10.1164 8.66337C10.0557 8.81001 9.95284 8.93534 9.82086 9.02352C9.68889 9.1117 9.53374 9.15876 9.37502 9.15876C9.26935 9.15977 9.16455 9.13969 9.06674 9.09972C8.96892 9.05974 8.88005 9.00067 8.80533 8.92595C8.73061 8.85123 8.67154 8.76237 8.63157 8.66455C8.59159 8.56673 8.57152 8.46193 8.57252 8.35627ZM16.0725 14.2888C15.9135 14.2888 15.758 14.336 15.6259 14.4245C15.4938 14.5131 15.3909 14.6388 15.3304 14.7859C15.2699 14.933 15.2545 15.0947 15.286 15.2506C15.3176 15.4065 15.3948 15.5494 15.5078 15.6614C15.6208 15.7733 15.7644 15.8491 15.9206 15.8792C16.0768 15.9094 16.2384 15.8924 16.3849 15.8305C16.5314 15.7686 16.6562 15.6646 16.7434 15.5316C16.8307 15.3987 16.8765 15.2428 16.875 15.0838C16.877 14.8762 16.797 14.6762 16.6523 14.5273C16.5077 14.3784 16.3101 14.2927 16.1025 14.2888H16.0725ZM23.25 13.8988L21.3075 15.8413V18.5938C21.3036 19.304 21.0192 19.9838 20.5163 20.4853C20.0134 20.9868 19.3327 21.2693 18.6225 21.2713H15.84L13.8975 23.2513C13.3931 23.7523 12.711 24.0335 12 24.0335C11.289 24.0335 10.6069 23.7523 10.1025 23.2513L8.16002 21.3088H5.40752C4.69862 21.3048 4.01987 21.0215 3.51859 20.5202C3.01731 20.0189 2.73396 19.3402 2.73002 18.6313V15.8413L0.787519 13.8988C0.286933 13.3956 0.00592041 12.7148 0.00592041 12.005C0.00592041 11.2953 0.286933 10.6144 0.787519 10.1113L2.73002 8.16127V5.42377C2.73199 4.71356 3.01447 4.0329 3.51596 3.53C4.01745 3.02711 4.69732 2.74272 5.40752 2.73877H8.16002L10.1025 0.796265C10.3513 0.546369 10.647 0.348076 10.9726 0.21277C11.2983 0.0774648 11.6474 0.0078125 12 0.0078125C12.3526 0.0078125 12.7018 0.0774648 13.0274 0.21277C13.353 0.348076 13.6487 0.546369 13.8975 0.796265L15.84 2.73877H18.585C19.2959 2.7427 19.9766 3.02685 20.4792 3.52954C20.9819 4.03222 21.2661 4.71287 21.27 5.42377V8.16127L23.25 10.1113C23.7506 10.6144 24.0316 11.2953 24.0316 12.005C24.0316 12.7148 23.7506 13.3956 23.25 13.8988ZM6.98252 8.35627C6.98252 8.83126 7.12347 9.29557 7.38752 9.69041C7.65157 10.0852 8.02684 10.3929 8.46582 10.5743C8.9048 10.7557 9.38774 10.8028 9.8535 10.7096C10.3193 10.6164 10.7469 10.387 11.0822 10.0507C11.4176 9.71426 11.6456 9.28592 11.7373 8.81987C11.8291 8.35382 11.7805 7.87103 11.5977 7.43262C11.4149 6.99421 11.1061 6.6199 10.7104 6.35709C10.3148 6.09428 9.85001 5.95478 9.37502 5.95626C8.74041 5.96022 8.13303 6.21458 7.68499 6.66403C7.23694 7.11347 6.98448 7.72165 6.98252 8.35627ZM17.1375 8.35627C17.2176 8.27845 17.2808 8.18507 17.3234 8.08188C17.3659 7.97869 17.3869 7.86787 17.385 7.75627C17.3715 7.54871 17.2779 7.35451 17.124 7.2146C16.9701 7.07469 16.7679 6.99999 16.56 7.00627C16.3534 7.01277 16.1573 7.09874 16.0125 7.24626L7.50002 15.6988C7.36791 15.8545 7.30014 16.0548 7.31053 16.2587C7.32092 16.4627 7.40867 16.655 7.55592 16.7965C7.70317 16.938 7.89883 17.0181 8.10304 17.0203C8.30725 17.0226 8.50465 16.947 8.65502 16.8088L17.1375 8.35627ZM18.5025 15.1063C18.5025 14.6316 18.3618 14.1676 18.098 13.7729C17.8343 13.3782 17.4595 13.0706 17.021 12.889C16.5824 12.7073 16.0999 12.6598 15.6343 12.7524C15.1687 12.845 14.7411 13.0736 14.4055 13.4092C14.0698 13.7449 13.8412 14.1725 13.7486 14.638C13.656 15.1036 13.7036 15.5862 13.8852 16.0247C14.0669 16.4632 14.3745 16.8381 14.7692 17.1018C15.1638 17.3655 15.6278 17.5063 16.1025 17.5063C16.4193 17.5053 16.7328 17.4418 17.025 17.3194C17.3172 17.1971 17.5824 17.0182 17.8053 16.7932C18.0283 16.5681 18.2047 16.3013 18.3243 16.0079C18.4439 15.7146 18.5045 15.4006 18.5025 15.0838V15.1063Z" fill="url(#paint0_linear_4375_48701)"/>
  </g>
  <defs>
    <linearGradient id="paint0_linear_4375_48701" x1="30.0265" y1="-133.684" x2="-16.9137" y2="-133.172" gradientUnits="userSpaceOnUse">
      <stop stop-color="#57AC91"/>
      <stop offset="1" stop-color="#8AC3F9"/>
    </linearGradient>
    <clipPath id="clip0_4375_48701">
      <rect width="24" height="24" fill="white"/>
    </clipPath>
  </defs>
</svg>