<svg width="18" height="17" viewBox="0 0 18 17" fill="none" xmlns="http://www.w3.org/2000/svg">
<path d="M17.8457 14.7875L9.97854 1.06754C9.5437 0.31082 8.45654 0.31082 8.02164 1.06754L0.154503 14.7875C-0.28033 15.5442 0.253337 16.5 1.12309 16.5H16.8574C17.7469 16.5 18.2807 15.5442 17.8458 14.7875H17.8457ZM8.75301 5.26915C9.22742 5.14969 9.70184 5.38862 9.91926 5.82675C9.99833 5.98607 10.0181 6.16523 9.99833 6.32457C9.95883 6.82239 9.93901 7.32021 9.91926 7.83793C9.87975 8.61454 9.82042 9.41106 9.78092 10.1876C9.76116 10.4266 9.76116 10.6656 9.74141 10.9244C9.72165 11.3425 9.40541 11.6611 8.99024 11.6611C8.59491 11.6611 8.25891 11.3425 8.23907 10.9443C8.17975 9.72961 8.10073 8.51491 8.04141 7.30023C8.02166 6.98164 8.0019 6.64307 7.98208 6.32448C7.98215 5.84656 8.2984 5.38861 8.753 5.26914L8.75301 5.26915ZM9.01 14.3892C8.4565 14.3892 8.02167 13.9312 8.02167 13.3737C8.02167 12.8161 8.47634 12.3582 9.02975 12.3582C9.58325 12.3582 10.0181 12.8162 10.0181 13.3936C9.99833 13.9313 9.54367 14.3892 9.01 14.3892Z" fill="#CF031A"/>
</svg>
