<svg width="14" height="17" viewBox="0 0 14 17" fill="none" xmlns="http://www.w3.org/2000/svg">
<g id="Icon">
<path id="Vector" fill-rule="evenodd" clip-rule="evenodd" d="M13.125 14.0625C13.125 14.6093 12.9075 15.1342 12.5212 15.5212C12.1342 15.9075 11.6093 16.125 11.0625 16.125H2.0625C1.51575 16.125 0.99075 15.9075 0.60375 15.5212C0.2175 15.1342 0 14.6093 0 14.0625V2.0625C0 1.51575 0.2175 0.99075 0.60375 0.60375C0.99075 0.2175 1.51575 0 2.0625 0H8.502C8.85 0 9.18375 0.138 9.42975 0.38475L12.7402 3.69525C12.987 3.94125 13.125 4.275 13.125 4.623V14.0625ZM12 14.0625V4.623C12 4.5735 11.9805 4.5255 11.9452 4.49025L8.63475 1.17975C8.5995 1.1445 8.5515 1.125 8.502 1.125H2.0625C1.8135 1.125 1.57575 1.224 1.3995 1.3995C1.224 1.57575 1.125 1.8135 1.125 2.0625V14.0625C1.125 14.3115 1.224 14.5493 1.3995 14.7255C1.57575 14.901 1.8135 15 2.0625 15H11.0625C11.3115 15 11.5493 14.901 11.7255 14.7255C11.901 14.5493 12 14.3115 12 14.0625Z" fill="#688092"/>
<path id="Vector_2" fill-rule="evenodd" clip-rule="evenodd" d="M8.25 0.9375C8.25 0.627 8.502 0.375 8.8125 0.375C9.123 0.375 9.375 0.627 9.375 0.9375V3.5625C9.375 3.666 9.459 3.75 9.5625 3.75H12.1875C12.498 3.75 12.75 4.002 12.75 4.3125C12.75 4.623 12.498 4.875 12.1875 4.875H9.5625C8.83725 4.875 8.25 4.28775 8.25 3.5625V0.9375Z" fill="#688092"/>
<path id="Vector_3" fill-rule="evenodd" clip-rule="evenodd" d="M3.5625 7.5C3.252 7.5 3 7.248 3 6.9375C3 6.627 3.252 6.375 3.5625 6.375H9.5625C9.873 6.375 10.125 6.627 10.125 6.9375C10.125 7.248 9.873 7.5 9.5625 7.5H3.5625Z" fill="#688092"/>
<path id="Vector_4" fill-rule="evenodd" clip-rule="evenodd" d="M3.5625 10.125C3.252 10.125 3 9.873 3 9.5625C3 9.252 3.252 9 3.5625 9H9.5625C9.873 9 10.125 9.252 10.125 9.5625C10.125 9.873 9.873 10.125 9.5625 10.125H3.5625Z" fill="#688092"/>
<path id="Vector_5" fill-rule="evenodd" clip-rule="evenodd" d="M3.5625 12.75C3.252 12.75 3 12.498 3 12.1875C3 11.877 3.252 11.625 3.5625 11.625H6.9375C7.248 11.625 7.5 11.877 7.5 12.1875C7.5 12.498 7.248 12.75 6.9375 12.75H3.5625Z" fill="#688092"/>
</g>
</svg>
