<svg xmlns="http://www.w3.org/2000/svg" width="24" height="24" viewBox="0 0 24 24" fill="none">
  <path d="M20.5878 8.26571L16.8273 5.53055C16.7162 5.44979 11.0695 1.34269 10.9177 1.23225C10.6422 1.03196 10.269 1.03196 9.99361 1.23225C8.95228 1.98971 1.57711 7.35389 0.323484 8.26571C0.120234 8.4135 0 8.64966 0 8.90096V22.1341C0 22.5679 0.351656 22.9196 0.785484 22.9196H20.1257C20.5595 22.9196 20.9112 22.5679 20.9112 22.1341V8.90096C20.9112 8.64966 20.791 8.4135 20.5878 8.26571Z" fill="#E59F23"/>
  <path d="M0.965859 22.1341V9.19064C0.965859 8.93935 1.08609 8.70319 1.28934 8.55539C7.42762 4.09079 7.16639 4.28082 10.9595 1.52199C11.0243 1.47483 11.0948 1.43916 11.1679 1.41422L10.9177 1.23225C10.6422 1.03196 10.269 1.03196 9.99361 1.23225C8.9528 1.98924 1.57725 7.35371 0.323484 8.26566C0.120234 8.41346 0 8.64961 0 8.90091V22.1341C0 22.5679 0.351656 22.9195 0.785484 22.9195H1.75134C1.31752 22.9196 0.965859 22.5679 0.965859 22.1341Z" fill="#D38B18"/>
  <path d="M10.0621 15.2394L0.7854 22.9182H20.1256L10.849 15.2394C10.6207 15.0504 10.2903 15.0504 10.0621 15.2394Z" fill="#FFC850"/>
  <path d="M1.13963 22.625L0.7854 22.9182H1.75098C1.50376 22.9181 1.28354 22.8036 1.13963 22.625Z" fill="#00C3FF"/>
  <path d="M11.1487 15.4862L20.1257 22.9171C20.5596 22.9171 20.9112 22.5654 20.9112 22.1316V8.89844L11.1487 15.4862Z" fill="#F9B428"/>
  <path d="M0 8.89844V22.1316C0 22.5654 0.351703 22.9171 0.785484 22.9171L9.76252 15.4862L0 8.89844Z" fill="#F9B428"/>
  <path d="M0.965859 9.55019L0 8.89844V22.1316C0 22.5654 0.351656 22.9171 0.785484 22.9171L1.13972 22.6239C1.03116 22.4891 0.965859 22.318 0.965859 22.1316V9.55019Z" fill="#E59F23"/>
  <path d="M14.1569 7.15537C14.1569 5.64244 14.8402 4.28953 15.9144 3.38672H3.89876C3.56257 3.38672 3.29004 3.65925 3.29004 3.99539V11.1198L9.76263 15.4875L10.0623 15.2395C10.2905 15.0505 10.6209 15.0505 10.8492 15.2395L11.1488 15.4875L16.932 11.585C15.2894 10.7876 14.1569 9.10383 14.1569 7.15537Z" fill="#E4EAF8"/>
  <path d="M4.25585 3.38672H3.89871C3.56257 3.38672 3.29004 3.65925 3.29004 3.99539V11.1198L4.2559 11.7715L4.25585 3.38672Z" fill="#D8DCE5"/>
  <path d="M14.1569 7.51737H5.81582C5.6158 7.51737 5.45361 7.35523 5.45361 7.15517C5.45361 6.95511 5.61575 6.79297 5.81582 6.79297H14.1568C14.3569 6.79297 14.5191 6.95511 14.5191 7.15517C14.5191 7.35523 14.3569 7.51737 14.1569 7.51737Z" fill="#C3C8D1"/>
  <path d="M14.5819 9.52128H5.81582C5.6158 9.52128 5.45361 9.35914 5.45361 9.15908C5.45361 8.95902 5.61575 8.79688 5.81582 8.79688H14.5818C14.7818 8.79688 14.944 8.95902 14.944 9.15908C14.944 9.35914 14.7819 9.52128 14.5819 9.52128Z" fill="#C3C8D1"/>
  <path d="M15.2267 11.5252H5.81582C5.6158 11.5252 5.45361 11.363 5.45361 11.163C5.45361 10.9629 5.61575 10.8008 5.81582 10.8008H15.2266C15.4266 10.8008 15.5888 10.9629 15.5888 11.163C15.5888 11.363 15.4267 11.5252 15.2267 11.5252Z" fill="#C3C8D1"/>
  <path d="M15.1283 12.8008H5.7832L6.85664 13.5252H14.0548L15.1283 12.8008Z" fill="#C3C8D1"/>
  <path d="M17.0003 13.9994C20.3138 13.9994 23 11.3132 23 7.9997C23 4.68616 20.3138 2 17.0003 2C13.6868 2 11.0006 4.68616 11.0006 7.9997C11.0006 11.3132 13.6868 13.9994 17.0003 13.9994Z" fill="#77DE50"/>
  <path d="M12.1519 7.99998C12.1519 4.88059 14.5325 2.31758 17.5759 2.02766C17.3863 2.00958 17.1943 2 16.9999 2C13.6863 2 11 4.68626 11 7.99998C11 11.3136 13.6863 14 16.9999 14C17.1943 14 17.3863 13.9904 17.5759 13.9723C14.5325 13.6824 12.1519 11.1194 12.1519 7.99998Z" fill="#5EC62E"/>
  <path d="M15.8159 10.3629L14.0816 8.69135C13.7224 8.34514 13.7119 7.77334 14.0581 7.41418C14.4044 7.05491 14.9762 7.04453 15.3353 7.39068L16.383 8.40046L18.505 5.94543C18.8313 5.56807 19.4017 5.52644 19.7791 5.85274C20.1565 6.17894 20.198 6.74936 19.8718 7.12677L17.1262 10.3033C16.7879 10.6945 16.1895 10.723 15.8159 10.3629Z" fill="#E4EAF8"/>
  <path d="M16.9519 9.79532L15.2177 8.12374C14.9572 7.87266 14.881 7.50318 14.9904 7.18195C14.6715 7.07729 14.3068 7.15434 14.0581 7.41232C13.7119 7.77148 13.7224 8.34327 14.0816 8.68949L15.8159 10.3611C16.189 10.7207 16.7874 10.6931 17.126 10.3014L17.3674 10.0222C17.2127 9.98485 17.0688 9.90791 16.9519 9.79532Z" fill="#D8DCE5"/>
</svg>