<svg xmlns="http://www.w3.org/2000/svg" width="24" height="24" viewBox="0 0 24 24" fill="none">
  <path d="M20.5878 8.26571L16.8273 5.53055C16.7162 5.44979 11.0695 1.34269 10.9177 1.23225C10.6422 1.03196 10.269 1.03196 9.99361 1.23225C8.95228 1.98971 1.57711 7.35389 0.323484 8.26571C0.120234 8.4135 0 8.64966 0 8.90096V22.1341C0 22.5679 0.351656 22.9196 0.785484 22.9196H20.1257C20.5595 22.9196 20.9112 22.5679 20.9112 22.1341V8.90096C20.9112 8.64966 20.791 8.4135 20.5878 8.26571Z" fill="#00AAF0"/>
  <path d="M0.965859 22.1341V9.19064C0.965859 8.93935 1.08609 8.70319 1.28934 8.55539C7.42762 4.09079 7.16639 4.28082 10.9595 1.52199C11.0243 1.47483 11.0948 1.43916 11.1679 1.41422L10.9177 1.23225C10.6422 1.03196 10.269 1.03196 9.99361 1.23225C8.9528 1.98924 1.57725 7.35371 0.323484 8.26566C0.120234 8.41346 0 8.64961 0 8.90091V22.1341C0 22.5679 0.351656 22.9195 0.785484 22.9195H1.75134C1.31752 22.9196 0.965859 22.5679 0.965859 22.1341Z" fill="#009AEF"/>
  <path d="M10.0621 15.2394L0.7854 22.9182H20.1256L10.849 15.2394C10.6207 15.0504 10.2903 15.0504 10.0621 15.2394Z" fill="#5BDDFC"/>
  <path d="M1.13963 22.625L0.7854 22.9182H1.75098C1.50376 22.9181 1.28354 22.8036 1.13963 22.625Z" fill="#00C3FF"/>
  <path d="M11.1487 15.4862L20.1257 22.9171C20.5596 22.9171 20.9112 22.5654 20.9112 22.1316V8.89844L11.1487 15.4862Z" fill="#00C3FF"/>
  <path d="M0 8.89844V22.1316C0 22.5654 0.351703 22.9171 0.785484 22.9171L9.76252 15.4862L0 8.89844Z" fill="#00C3FF"/>
  <path d="M0.965859 9.55019L0 8.89844V22.1316C0 22.5654 0.351656 22.9171 0.785484 22.9171L1.13972 22.6239C1.03116 22.4891 0.965859 22.318 0.965859 22.1316V9.55019Z" fill="#00AAF0"/>
  <path d="M14.1569 7.15537C14.1569 5.64244 14.8402 4.28953 15.9144 3.38672H3.89876C3.56257 3.38672 3.29004 3.65925 3.29004 3.99539V11.1198L9.76263 15.4875L10.0623 15.2395C10.2905 15.0505 10.6209 15.0505 10.8492 15.2395L11.1488 15.4875L16.932 11.585C15.2894 10.7876 14.1569 9.10383 14.1569 7.15537Z" fill="#E4EAF8"/>
  <path d="M4.25585 3.38672H3.89871C3.56257 3.38672 3.29004 3.65925 3.29004 3.99539V11.1198L4.2559 11.7715L4.25585 3.38672Z" fill="#D8DCE5"/>
  <path d="M14.1569 7.51737H5.81582C5.6158 7.51737 5.45361 7.35523 5.45361 7.15517C5.45361 6.95511 5.61575 6.79297 5.81582 6.79297H14.1568C14.3569 6.79297 14.5191 6.95511 14.5191 7.15517C14.5191 7.35523 14.3569 7.51737 14.1569 7.51737Z" fill="#C3C8D1"/>
  <path d="M14.5819 9.52128H5.81582C5.6158 9.52128 5.45361 9.35914 5.45361 9.15908C5.45361 8.95902 5.61575 8.79688 5.81582 8.79688H14.5818C14.7818 8.79688 14.944 8.95902 14.944 9.15908C14.944 9.35914 14.7819 9.52128 14.5819 9.52128Z" fill="#C3C8D1"/>
  <path d="M15.2267 11.5252H5.81582C5.6158 11.5252 5.45361 11.363 5.45361 11.163C5.45361 10.9629 5.61575 10.8008 5.81582 10.8008H15.2266C15.4266 10.8008 15.5888 10.9629 15.5888 11.163C15.5888 11.363 15.4267 11.5252 15.2267 11.5252Z" fill="#C3C8D1"/>
  <path d="M15.1283 12.8008H5.7832L6.85664 13.5252H14.0548L15.1283 12.8008Z" fill="#C3C8D1"/>
  <path d="M16.9999 13.9998C20.3136 13.9998 22.9998 11.3136 22.9998 7.99992C22.9998 4.68626 20.3136 2 16.9999 2C13.6863 2 11 4.68626 11 7.99992C11 11.3136 13.6863 13.9998 16.9999 13.9998Z" fill="#FC7A1C"/>
  <path d="M22.9999 8.00282C22.9999 11.3166 20.3138 14.0027 17.0001 14.0027C15.5712 14.0027 14.2594 13.5035 13.229 12.669C13.9252 12.9516 14.6864 13.1075 15.4839 13.1075C18.7977 13.1075 21.4837 10.4214 21.4837 7.10767C21.4837 5.22273 20.6147 3.54038 19.2549 2.44141C21.451 3.33233 22.9999 5.48654 22.9999 8.00282Z" fill="#E36E1A"/>
  <path d="M18.1827 9.1808H19.8822C20.1167 9.1808 20.3068 8.99072 20.3068 8.75626V7.24009C20.3068 7.00563 20.1167 6.81556 19.8822 6.81556H18.1827V5.11594C18.1827 4.88148 17.9926 4.69141 17.7582 4.69141H16.242C16.0075 4.69141 15.8175 4.88148 15.8175 5.11594V6.8155H14.1179C13.8834 6.8155 13.6934 7.00558 13.6934 7.24003V8.7562C13.6934 8.99066 13.8834 9.18074 14.1179 9.18074H15.8175V10.8803C15.8175 11.1147 16.0075 11.3048 16.242 11.3048H17.7582C17.9926 11.3048 18.1827 11.1147 18.1827 10.8803V9.1808Z" fill="#FFF5F5"/>
  <path d="M18.1826 10.8852C18.1826 11.1194 17.9927 11.3094 17.7581 11.3098L16.2422 11.3094C16.0076 11.3098 15.8172 11.1194 15.8176 10.8848V10.5212L16.97 10.5207C17.2045 10.5212 17.3945 10.3312 17.3941 10.0966L17.3944 8.83563C17.3944 8.59342 17.5908 8.39706 17.833 8.397L19.094 8.39671C19.3286 8.39712 19.5185 8.20716 19.5185 7.97217V6.82031H19.8822C20.1166 6.82031 20.3067 7.01039 20.3067 7.24485V8.76125C20.3067 8.99542 20.1168 9.18538 19.8822 9.18579L18.1827 9.18538L18.1826 10.8852Z" fill="#EFE2DD"/>
</svg>