<svg xmlns="http://www.w3.org/2000/svg" width="80" height="80" viewBox="0 0 80 80" fill="none">
  <path d="M38.7468 70.667H5.3335C4.27263 70.667 3.25522 70.2455 2.50507 69.4954C1.75493 68.7453 1.3335 67.7278 1.3335 66.667V26.2003C1.33279 25.6224 1.47333 25.053 1.74289 24.5417C2.01245 24.0305 2.40287 23.5929 2.88017 23.267L33.9602 1.96297C34.5616 1.55317 35.2724 1.33398 36.0002 1.33398C36.7279 1.33398 37.4388 1.55317 38.0402 1.96297L69.1202 23.267C69.5975 23.5929 69.9879 24.0305 70.2574 24.5417C70.527 25.053 70.6675 25.6224 70.6668 26.2003V38.747L38.7468 70.667Z" fill="#BFDBF0"/>
  <path d="M10.6665 32V10.6667C10.6665 9.95942 10.9475 9.28115 11.4476 8.78105C11.9477 8.28095 12.6259 8 13.3332 8H58.6665C59.3738 8 60.052 8.28095 60.5521 8.78105C61.0522 9.28115 61.3332 9.95942 61.3332 10.6667V31.28L33.3332 52L10.6665 32Z" fill="#E1EFFF"/>
  <path d="M70.6668 26.2007V38.7474L38.7468 70.6674H5.3335C4.27263 70.6674 3.25522 70.246 2.50507 69.4958C1.75493 68.7457 1.3335 67.7283 1.3335 66.6674V26.2007C1.33273 25.5714 1.50327 24.9538 1.82683 24.4141L32.2002 48.0007H37.3335L70.1735 24.4141C70.4971 24.9538 70.6676 25.5714 70.6668 26.2007Z" fill="#B0CCDD"/>
  <path d="M38.7465 70.6674H5.3332C4.2854 70.6682 3.27943 70.2562 2.5332 69.5207L33.1199 46.3074C33.9453 45.6724 34.9585 45.33 35.9999 45.334H37.3332C35.701 49.4029 34.9816 53.7804 35.2258 58.1577C35.47 62.5349 36.6719 66.8053 38.7465 70.6674Z" fill="#9EBBCE"/>
  <path d="M39.9999 70.6665L39.8799 69.5332L39.9999 70.6665Z" fill="#9EBBCE"/>
  <path d="M56.0002 78.6673C68.5186 78.6673 78.6668 68.5191 78.6668 56.0007C78.6668 43.4822 68.5186 33.334 56.0002 33.334C43.4817 33.334 33.3335 43.4822 33.3335 56.0007C33.3335 68.5191 43.4817 78.6673 56.0002 78.6673Z" fill="#CD4C60"/>
  <path d="M65.8798 62.1336C66.1299 62.3791 66.3285 62.6719 66.4641 62.9951C66.5997 63.3182 66.6695 63.6651 66.6695 64.0156C66.6695 64.366 66.5997 64.7129 66.4641 65.036C66.3285 65.3592 66.1299 65.6521 65.8798 65.8976C65.3771 66.3885 64.7024 66.6633 63.9998 66.6633C63.2972 66.6633 62.6224 66.3885 62.1198 65.8976L55.9998 59.7749L49.8798 65.9016C49.3763 66.3909 48.7019 66.6647 47.9998 66.6647C47.2977 66.6647 46.6233 66.3909 46.1198 65.9016C45.8697 65.6561 45.6711 65.3632 45.5355 65.0401C45.3999 64.7169 45.3301 64.37 45.3301 64.0196C45.3301 63.6691 45.3999 63.3222 45.5355 62.9991C45.6711 62.6759 45.8697 62.3831 46.1198 62.1376L52.2398 56.0109L46.1198 49.8856C45.8435 49.6457 45.6195 49.3515 45.4617 49.0214C45.304 48.6912 45.2159 48.3321 45.2029 47.9665C45.1899 47.6008 45.2523 47.2364 45.3862 46.8958C45.5201 46.5553 45.7226 46.246 45.9812 45.9871C46.2398 45.7283 46.5489 45.5254 46.8893 45.3911C47.2297 45.2568 47.594 45.1941 47.9597 45.2067C48.3254 45.2193 48.6846 45.307 49.0149 45.4644C49.3452 45.6218 49.6396 45.8455 49.8798 46.1216L55.9998 52.2469L62.1198 46.1216C62.3599 45.8455 62.6543 45.6218 62.9847 45.4644C63.315 45.307 63.6742 45.2193 64.0399 45.2067C64.4055 45.1941 64.7699 45.2568 65.1103 45.3911C65.4507 45.5254 65.7598 45.7283 66.0184 45.9871C66.277 46.246 66.4795 46.5553 66.6134 46.8958C66.7473 47.2364 66.8097 47.6008 66.7967 47.9665C66.7837 48.3321 66.6956 48.6912 66.5379 49.0214C66.3801 49.3515 66.1561 49.6457 65.8798 49.8856L59.7598 56.0109L65.8798 62.1336Z" fill="white"/>
  <path d="M53.3335 20.0007H18.6668C18.3132 20.0007 17.9741 19.8602 17.724 19.6101C17.474 19.3601 17.3335 19.0209 17.3335 18.6673C17.3335 18.3137 17.474 17.9746 17.724 17.7245C17.9741 17.4745 18.3132 17.334 18.6668 17.334H53.3335C53.6871 17.334 54.0263 17.4745 54.2763 17.7245C54.5264 17.9746 54.6668 18.3137 54.6668 18.6673C54.6668 19.0209 54.5264 19.3601 54.2763 19.6101C54.0263 19.8602 53.6871 20.0007 53.3335 20.0007Z" fill="#9EBBCE"/>
  <path d="M53.3335 28.0007H18.6668C18.3132 28.0007 17.9741 27.8602 17.724 27.6101C17.474 27.3601 17.3335 27.0209 17.3335 26.6673C17.3335 26.3137 17.474 25.9746 17.724 25.7245C17.9741 25.4745 18.3132 25.334 18.6668 25.334H53.3335C53.6871 25.334 54.0263 25.4745 54.2763 25.7245C54.5264 25.9746 54.6668 26.3137 54.6668 26.6673C54.6668 27.0209 54.5264 27.3601 54.2763 27.6101C54.0263 27.8602 53.6871 28.0007 53.3335 28.0007Z" fill="#9EBBCE"/>
</svg>