<svg width="20" height="11" viewBox="0 0 20 11" fill="none" xmlns="http://www.w3.org/2000/svg">
<path d="M15.135 0C13.9523 0 12.8305 0.358887 11.8008 1.06674C11.1482 1.51535 10.5434 2.09488 9.99878 2.79266C9.86664 2.6239 9.73068 2.4614 9.59183 2.30682C8.23685 0.797729 6.60233 0 4.86496 0C2.18246 0 0 2.24884 0 5.01312C0 7.77725 2.18246 10.0262 4.86496 10.0262C6.04782 10.0262 7.16949 9.66736 8.19916 8.9595C8.85178 8.51089 9.45663 7.93137 10.0014 7.23343C10.1334 7.40219 10.2695 7.5647 10.4082 7.71927C11.7632 9.22852 13.3977 10.0262 15.135 10.0262C17.8175 10.0262 20 7.77725 20 5.01312C20 2.24884 17.8175 0 15.135 0ZM17.6241 5.01312C17.6241 6.46729 16.5076 7.6503 15.135 7.6503C14.4669 7.6503 12.7802 7.38953 11.3506 5.01053C12.7669 2.63611 14.4624 2.37595 15.135 2.37595C16.5076 2.37595 17.6241 3.55896 17.6241 5.01312ZM8.64792 5.01312C7.21832 7.38968 5.53268 7.6503 4.86496 7.6503C3.49243 7.6503 2.37595 6.46729 2.37595 5.01312C2.37595 3.55896 3.49243 2.37595 4.86496 2.37595C5.53268 2.37595 7.21832 2.63657 8.64792 5.01312Z" fill="url(#paint0_linear_3227_18020)"/>
<defs>
<linearGradient id="paint0_linear_3227_18020" x1="24.9904" y1="-55.7913" x2="-14.0708" y2="-54.9411" gradientUnits="userSpaceOnUse">
<stop stop-color="#57AC91"/>
<stop offset="1" stop-color="#8AC3F9"/>
</linearGradient>
</defs>
</svg>
