<svg width="24" height="24" viewBox="0 0 24 24" fill="none" xmlns="http://www.w3.org/2000/svg">
<path d="M12 24C18.6274 24 24 18.6274 24 12C24 5.37258 18.6274 0 12 0C5.37258 0 0 5.37258 0 12C0 18.6274 5.37258 24 12 24Z" fill="url(#paint0_linear_325_426)"/>
<path d="M5.27605 13.7759C5.15666 13.7897 5.0496 13.856 4.98468 13.9573C4.91976 14.0585 4.90434 14.1839 4.9423 14.2979C4.96649 14.3706 5.54924 16.0912 6.72904 17.271C7.90879 18.4507 9.62952 19.0335 9.70213 19.0577C9.81604 19.0957 9.94148 19.0803 10.0427 19.0154C10.144 18.9504 10.2105 18.8431 10.2243 18.7237C10.2264 18.7012 10.4774 16.6562 11.5449 15.3252L8.67473 12.455C7.34638 13.5191 5.29823 13.7731 5.27605 13.7759ZM10.9042 11.6849C10.3406 11.5368 9.76921 11.6449 9.30145 11.9547L12.0453 14.6985C12.3552 14.2308 12.4633 13.6595 12.3156 13.0963C12.139 12.4212 11.5783 11.8604 10.9042 11.6849ZM18.6797 5.32031C18.1592 4.79981 17.3123 4.79981 16.7918 5.32031L11.2241 10.888C11.6519 11.0402 12.05 11.2852 12.3824 11.6176C12.714 11.9493 12.9595 12.3471 13.1122 12.7756L18.6797 7.2082C19.2002 6.6877 19.2002 5.84081 18.6797 5.32031Z" fill="white"/>
<defs>
<linearGradient id="paint0_linear_325_426" x1="29.9885" y1="-133.549" x2="-16.9016" y2="-133.037" gradientUnits="userSpaceOnUse">
<stop stop-color="#57AC91"/>
<stop offset="1" stop-color="#8AC3F9"/>
</linearGradient>
</defs>
</svg>
