<svg width="16" height="17" viewBox="0 0 16 17" fill="none" xmlns="http://www.w3.org/2000/svg">
<path d="M8 16.5C12.4183 16.5 16 12.9183 16 8.5C16 4.08172 12.4183 0.5 8 0.5C3.58172 0.5 0 4.08172 0 8.5C0 12.9183 3.58172 16.5 8 16.5Z" fill="url(#paint0_linear_2555_5424)"/>
<path d="M3.51737 9.6825C3.43778 9.69166 3.3664 9.73588 3.32312 9.80338C3.27984 9.87088 3.26956 9.9545 3.29487 10.0305C3.31099 10.0789 3.69949 11.226 4.48603 12.0125C5.27253 12.799 6.41968 13.1875 6.46809 13.2037C6.54403 13.229 6.62765 13.2187 6.69515 13.1754C6.76265 13.1322 6.80703 13.0606 6.81621 12.981C6.81759 12.966 6.98496 11.6027 7.69659 10.7153L5.78315 8.80188C4.89759 9.51125 3.53215 9.68062 3.51737 9.6825V9.6825ZM7.26946 8.28847C6.89375 8.18972 6.51281 8.26178 6.20096 8.46831L8.03018 10.2976C8.23678 9.98572 8.30887 9.60484 8.21043 9.22941C8.09265 8.77931 7.71884 8.4055 7.26946 8.28847V8.28847ZM12.4531 4.04541C12.1061 3.69841 11.5415 3.69841 11.1945 4.04541L7.48275 7.75719C7.76793 7.85866 8.03331 8.02203 8.2549 8.24363C8.476 8.46472 8.63968 8.72991 8.7415 9.01562L12.4531 5.304C12.8001 4.957 12.8001 4.39241 12.4531 4.04541V4.04541Z" fill="url(#paint1_linear_2555_5424)"/>
<defs>
<linearGradient id="paint0_linear_2555_5424" x1="8" y1="16.5" x2="8" y2="0.5" gradientUnits="userSpaceOnUse">
<stop stop-color="#CAF4EC"/>
<stop offset="0.9973" stop-color="#E3F9F3"/>
</linearGradient>
<linearGradient id="paint1_linear_2555_5424" x1="4.48603" y1="12.0125" x2="23.3333" y2="-7.5013" gradientUnits="userSpaceOnUse">
<stop stop-color="#23B094"/>
<stop offset="1" stop-color="#49CDA5"/>
</linearGradient>
</defs>
</svg>
