<svg width="61" height="60" viewBox="0 0 61 60" fill="none" xmlns="http://www.w3.org/2000/svg">
<g clip-path="url(#clip0_3227_17982)">
<path d="M2.7898 30.3203L0.997559 31.0556C0.997441 31.4952 1.17217 31.9315 1.51306 32.2601L29.7604 59.501C30.0901 59.819 30.6563 59.9933 30.9888 59.9948C31.3265 59.9963 31.9041 59.8242 32.2395 59.5007L60.482 32.2427C60.822 31.9145 60.9966 31.4793 60.9971 31.0406L59.4387 30.3204C58.5698 30.3204 50.4992 30.3204 40.6932 30.3204L30.1781 33.6053L21.2849 30.3204C12.0606 30.3203 4.37767 30.3203 2.7898 30.3203Z" fill="#58C3FC"/>
<path d="M60.9975 31.0407C60.9975 31.479 60.8231 31.914 60.4824 32.2425L32.2401 59.5004C31.9078 59.8221 31.3353 59.9943 30.9983 59.9943V33.3491L40.6942 30.3203H59.4397L60.9975 31.0407Z" fill="#29ABF0"/>
<path d="M21.2849 30.3203L30.9974 59.9943L40.6932 30.3203H21.2849Z" fill="#3DB5F5"/>
<path d="M40.694 30.3203L30.9983 59.9943V30.3203H40.694Z" fill="#009FF5"/>
<path d="M60.7024 30.0987L51.3009 16.4668C51.1708 16.2783 51.0032 16.1182 50.8102 15.9946L49.958 16.3906L32.6236 16.4951L30.9972 15.7109L29.6828 16.5128L12.3875 16.6172L11.1806 15.9963C10.989 16.1195 10.822 16.2791 10.6921 16.4677L1.29134 30.1167C1.09342 30.4041 0.997559 30.732 0.997559 31.058C4.4031 31.0571 56.5984 31.0438 60.9968 31.0427C60.9971 30.7157 60.901 30.3867 60.7024 30.0987Z" fill="#7CD2FF"/>
<path d="M60.9975 31.043C58.8181 31.043 44.8994 31.0476 30.9983 31.051V15.7109L32.6252 16.4947L49.9592 16.3905L50.8113 15.994C51.0044 16.1186 51.1718 16.2783 51.3017 16.4663L60.7038 30.0982C60.9027 30.3872 60.9986 30.7156 60.9975 31.043Z" fill="#58C3FC"/>
<path d="M12.1531 15.7109C11.802 15.7109 11.4652 15.8131 11.1812 15.996L21.5938 31.0528H21.595L30.9969 15.7109H12.1531Z" fill="#29ABF0"/>
<path d="M40.4025 31.0479L50.8093 15.9942C50.5259 15.8124 50.1901 15.7109 49.8401 15.7109H30.9961L40.395 31.048H40.4025V31.0479Z" fill="#3DB5F5"/>
<path d="M37.582 10.364L30.6895 4.28125L23.7966 10.364C22.9607 11.0405 21.7614 11.0928 20.866 10.4925L12.0688 4.28125V12.3965C12.1883 13.3915 13.107 14.1122 14.1379 14.0192H47.2407C48.2715 14.1122 49.1907 13.3915 49.3097 12.3965V4.28125L40.5167 10.4885C39.6213 11.0923 38.4192 11.0414 37.582 10.364Z" fill="#F4CD1E"/>
<path d="M14.1379 2.00235C14.1379 3.10807 13.2114 4.00425 12.0688 4.00425C10.9263 4.00425 9.99976 3.10807 9.99976 2.00235C9.99976 0.896626 10.9263 0 12.0688 0C13.2114 0 14.1379 0.896626 14.1379 2.00235Z" fill="#CD4F38"/>
<path d="M32.758 2.00235C32.758 3.10807 31.832 4.00425 30.6894 4.00425C29.5464 4.00425 28.6204 3.10807 28.6204 2.00235C28.6204 0.896626 29.5464 0 30.6894 0C31.832 0 32.758 0.896626 32.758 2.00235Z" fill="#CD4F38"/>
<path d="M51.3789 2.00235C51.3789 3.10807 50.4524 4.00425 49.3098 4.00425C48.1672 4.00425 47.2407 3.10807 47.2407 2.00235C47.2407 0.896626 48.1672 0 49.3098 0C50.4524 0 51.3789 0.896626 51.3789 2.00235Z" fill="#CD4F38"/>
</g>
<defs>
<clipPath id="clip0_3227_17982">
<rect width="60" height="59.9995" fill="white" transform="translate(0.997559)"/>
</clipPath>
</defs>
</svg>
