<svg width="20" height="20" viewBox="0 0 20 20" fill="none" xmlns="http://www.w3.org/2000/svg">
<path d="M16.25 7.49823C16.02 7.49823 15.8334 7.31168 15.8334 7.08156V5.83156H12.9167C12.6866 5.83156 12.5 5.64501 12.5 5.4149V2.49823H5.41671C4.72635 2.49823 4.16671 3.05787 4.16671 3.74823V16.2482C4.16671 16.9386 4.72635 17.4982 5.41671 17.4982H14.5834C15.2737 17.4982 15.8334 16.9386 15.8334 16.2482V14.5815C15.8334 14.3515 16.02 14.1649 16.25 14.1649C16.4801 14.1649 16.6667 14.3515 16.6667 14.5815V16.2482C16.6667 17.3988 15.734 18.3315 14.5834 18.3315H5.41671C4.26612 18.3315 3.33337 17.3988 3.33337 16.2482V3.74823C3.33337 2.59763 4.26612 1.6649 5.41671 1.6649H12.8934C13.004 1.65788 13.1191 1.69476 13.2114 1.78693L16.5447 5.12026C16.6369 5.21244 16.6737 5.32759 16.6667 5.43821V7.08156C16.6667 7.31168 16.4801 7.49823 16.25 7.49823ZM15.2441 10.8315H8.73846C8.50837 10.8315 8.32181 10.645 8.32181 10.4149C8.32181 10.1848 8.50837 9.99821 8.73846 9.99821H15.2441L13.4554 8.20952C13.2927 8.04681 13.2927 7.78298 13.4554 7.62026C13.6181 7.45755 13.882 7.45755 14.0447 7.62026L16.5447 10.1203C16.7074 10.283 16.7074 10.5468 16.5447 10.7095L14.0447 13.2095C13.882 13.3722 13.6181 13.3722 13.4554 13.2095C13.2927 13.0468 13.2927 12.783 13.4554 12.6203L15.2441 10.8315ZM13.3334 3.08748V4.99823H15.2441L13.3334 3.08748Z" fill="black"/>
</svg>
