<svg width="26" height="26" viewBox="0 0 26 26" fill="none" xmlns="http://www.w3.org/2000/svg">
<path d="M18.4844 9.85156C17.3085 9.85156 16.3518 10.8083 16.3518 11.9842C16.3518 13.545 17.9801 14.5743 19.3853 13.9166L19.0106 13.5419C18.7131 13.2445 18.7131 12.7622 19.0106 12.4647C19.308 12.1673 19.7904 12.1673 20.0878 12.4647L20.4453 12.8222C21.0466 11.4208 20.012 9.85156 18.4844 9.85156Z" fill="#0A6DC2"/>
<path d="M23.7148 3.58008H2.28516C1.02512 3.58008 0 4.6052 0 5.86523V18.1038C0 19.3639 1.02512 20.389 2.28516 20.389H11.0957L12.3906 22.1155C12.6954 22.5219 13.3052 22.521 13.6094 22.1155L14.9043 20.389H23.7148C24.9749 20.389 25.9999 19.3639 25.9999 18.1038V5.86523C25.9999 4.6052 24.9748 3.58008 23.7148 3.58008ZM6.74309 11.1895C7.16376 11.1895 7.50481 11.5306 7.50481 11.9513C7.50481 12.3719 7.16376 12.713 6.74309 12.713H5.36077V14.8788C5.36077 15.2995 5.01968 15.6405 4.59905 15.6405C4.17838 15.6405 3.83734 15.2995 3.83734 14.8788V9.1325C3.83734 8.71183 4.17838 8.37078 4.59905 8.37078H6.92804C7.34871 8.37078 7.68975 8.71183 7.68975 9.1325C7.68975 9.55317 7.34871 9.89422 6.92804 9.89422H5.36077V11.1895H6.74309ZM13.5992 15.5915C13.2055 15.7401 12.7661 15.5412 12.6176 15.1477L12.2671 14.2191H9.82632L9.47177 15.15C9.32176 15.5437 8.88113 15.7402 8.48885 15.5907C8.09575 15.441 7.89841 15.0009 8.04812 14.6077L10.2218 8.90048C10.3459 8.57005 10.6705 8.32873 11.0542 8.32833C11.4167 8.32797 11.742 8.54389 11.8808 8.88159C11.8882 8.89952 11.7917 8.64429 14.0429 14.6099C14.1914 15.0034 13.9927 15.443 13.5992 15.5915ZM21.9397 15.3941C21.6423 15.6916 21.16 15.6916 20.8625 15.3941L20.5007 15.0323C19.9223 15.4162 19.2292 15.6405 18.4844 15.6405C16.4684 15.6405 14.8284 14.0004 14.8284 11.9845C14.8284 9.96851 16.4684 8.32838 18.4844 8.32838C20.5003 8.32838 22.1405 9.96851 22.1405 11.9845C22.1405 12.7056 21.9298 13.378 21.568 13.945L21.9397 14.3168C22.2372 14.6143 22.2372 15.0966 21.9397 15.3941Z" fill="#0A6DC2"/>
<path d="M10.4065 12.6957H11.6922L11.0523 11L10.4065 12.6957Z" fill="#0A6DC2"/>
</svg>
