<svg width="22" height="22" viewBox="0 0 22 22" fill="none" xmlns="http://www.w3.org/2000/svg">
<path fill-rule="evenodd" clip-rule="evenodd" d="M16.5282 21C17.3412 21 18 20.3106 18 19.4628V5.95974C18 5.53583 17.7666 4.94856 17.4791 4.64838L14.5053 1.54358C14.2175 1.24339 13.6522 1 13.2502 1H5.47309C4.65945 1 4 1.68851 4 2.53607V19.4638C4 20.3122 4.65647 20.9998 5.47182 20.9998L16.5282 21ZM14.6842 16.0001C14.6842 15.5753 14.3544 15.2307 13.9475 15.2307H8.05258C7.64566 15.2307 7.31582 15.5753 7.31582 16.0001C7.31582 16.4249 7.64567 16.7693 8.05258 16.7693H13.9475C14.3544 16.7693 14.6842 16.4249 14.6842 16.0001ZM11.737 12.923C11.737 12.4982 11.4069 12.1538 11 12.1538H8.05269C7.64577 12.1538 7.31592 12.4982 7.31592 12.923C7.31592 13.3478 7.64578 13.6924 8.05269 13.6924H11C11.4069 13.6924 11.737 13.3478 11.737 12.923ZM13.9475 9.84611C13.9475 9.4213 13.6174 9.07695 13.2105 9.07695H8.05269C7.64577 9.07695 7.31592 9.4213 7.31592 9.84611C7.31592 10.2709 7.64578 10.6153 8.05269 10.6153H13.2105C13.6174 10.6153 13.9475 10.2709 13.9475 9.84611ZM10.6317 6.76923C10.6317 6.34442 10.3016 5.99984 9.89471 5.99984H8.05269C7.64577 5.99984 7.31592 6.34442 7.31592 6.76923C7.31592 7.19404 7.64578 7.53839 8.05269 7.53839H9.89471C10.3016 7.53839 10.6317 7.19403 10.6317 6.76923ZM14.6879 5.61537C14.0766 5.61537 13.579 5.09636 13.579 4.46151V2.92296C13.579 2.71044 13.414 2.53826 13.2105 2.53826C13.0071 2.53826 12.8422 2.71044 12.8422 2.92296V4.46151C12.8422 5.52139 13.6697 6.38453 14.6879 6.38453H16.158C16.3613 6.38453 16.5263 6.21235 16.5263 5.99984C16.5263 5.78754 16.3613 5.61537 16.158 5.61537L14.6879 5.61537Z" fill="#0A6DC2"/>
</svg>
