<svg xmlns="http://www.w3.org/2000/svg" width="80" height="80" viewBox="0 0 80 80" fill="none">
  <path d="M51.25 2.5H20C19.6389 2.49998 19.2821 2.57818 18.9541 2.72923C18.6261 2.88028 18.3347 3.10059 18.1 3.375L3.1 20.875C2.71274 21.3279 2.49995 21.9041 2.5 22.5V71.25C2.5 72.9076 3.15848 74.4973 4.33058 75.6694C5.50269 76.8415 7.0924 77.5 8.75 77.5H51.25C52.9076 77.5 54.4973 76.8415 55.6694 75.6694C56.8415 74.4973 57.5 72.9076 57.5 71.25V8.75C57.5 7.0924 56.8415 5.50269 55.6694 4.33058C54.4973 3.15848 52.9076 2.5 51.25 2.5Z" fill="#F5EEEC"/>
  <path d="M7.5 71.25V22.5C7.49995 21.9041 7.71274 21.3279 8.1 20.875L23.1 3.375C23.3347 3.10059 23.6261 2.88028 23.9541 2.72923C24.2821 2.57818 24.6389 2.49998 25 2.5H20C19.6389 2.49998 19.2821 2.57818 18.9541 2.72923C18.6261 2.88028 18.3347 3.10059 18.1 3.375L3.1 20.875C2.71274 21.3279 2.49995 21.9041 2.5 22.5V71.25C2.5 72.9076 3.15848 74.4973 4.33058 75.6694C5.50269 76.8415 7.0924 77.5 8.75 77.5H13.75C12.0924 77.5 10.5027 76.8415 9.33058 75.6694C8.15848 74.4973 7.5 72.9076 7.5 71.25Z" fill="#E0DEDE"/>
  <path d="M3.1 20.875C2.71274 21.3279 2.49995 21.9041 2.5 22.5H13.75C15.4076 22.5 16.9973 21.8415 18.1694 20.6694C19.3415 19.4973 20 17.9076 20 16.25V2.5C19.6389 2.49998 19.2821 2.57818 18.9541 2.72923C18.6261 2.88028 18.3347 3.10059 18.1 3.375L3.1 20.875Z" fill="#FFC144"/>
  <path d="M8.1 20.875L20 7V2.5C19.6389 2.49998 19.2821 2.57818 18.9541 2.72923C18.6261 2.88028 18.3347 3.10059 18.1 3.375L3.1 20.875C2.71274 21.3279 2.49995 21.9041 2.5 22.5H7.5C7.49995 21.9041 7.71274 21.3279 8.1 20.875Z" fill="#D3922A"/>
  <path d="M12.5 60H17.5V67.5H12.5V60Z" fill="#FFC144"/>
  <path d="M12.5 47.5H17.5V55H12.5V47.5Z" fill="#FFC144"/>
  <path d="M55 17.5C47.7065 17.5 40.7118 20.3973 35.5546 25.5546C30.3973 30.7118 27.5 37.7065 27.5 45C27.5 52.2935 30.3973 59.2882 35.5546 64.4454C40.7118 69.6027 47.7065 72.5 55 72.5C55.8 72.5 56.6 72.5 57.375 72.375C57.4536 72.005 57.4954 71.6282 57.5 71.25V17.625C56.675 17.5 55.85 17.5 55 17.5Z" fill="#E0DEDE"/>
  <path d="M55 67.5C67.4264 67.5 77.5 57.4264 77.5 45C77.5 32.5736 67.4264 22.5 55 22.5C42.5736 22.5 32.5 32.5736 32.5 45C32.5 57.4264 42.5736 67.5 55 67.5Z" fill="#0A6DC2"/>
  <path d="M37.5 49.9997C37.5039 45.8546 38.6528 41.7912 40.8199 38.2577C42.9869 34.7242 46.088 31.8581 49.7808 29.9754C53.4737 28.0928 57.6148 27.2669 61.7474 27.5888C65.8799 27.9107 69.8433 29.3679 73.2 31.7997C71.2968 29.1493 68.8399 26.9447 65.9996 25.3385C63.1594 23.7324 60.0038 22.7632 56.7516 22.4982C53.4995 22.2332 50.2286 22.6786 47.1658 23.8038C44.103 24.9289 41.3215 26.7067 39.0143 29.0139C36.7071 31.3212 34.9292 34.1026 33.8041 37.1654C32.679 40.2282 32.2335 43.4991 32.4985 46.7513C32.7635 50.0034 33.7327 53.159 35.3389 55.9993C36.945 58.8395 39.1497 61.2964 41.8 63.1997C39.0112 59.3629 37.5062 54.7429 37.5 49.9997Z" fill="#095EA8"/>
  <path d="M57.5 57.225H52.5V45.375H50V40.375H55C55.663 40.375 56.2989 40.6384 56.7678 41.1072C57.2366 41.5761 57.5 42.212 57.5 42.875V57.225Z" fill="#F5EEEC"/>
  <path d="M51.25 32.125H56.25V37.375H51.25V32.125Z" fill="#F5EEEC"/>
  <path d="M50 52.875H60V57.875H50V52.875Z" fill="#F5EEEC"/>
</svg>