<svg width="20" height="20" viewBox="0 0 20 20" fill="none" xmlns="http://www.w3.org/2000/svg">
<path d="M15 10.8333H4.99996C4.49996 10.8333 4.16663 10.5 4.16663 10C4.16663 9.5 4.49996 9.16666 4.99996 9.16666H15C15.5 9.16666 15.8333 9.5 15.8333 10C15.8333 10.5 15.5 10.8333 15 10.8333Z" fill="#222F2B"/>
<path d="M12.5 15.8333H7.49996C6.99996 15.8333 6.66663 15.5 6.66663 15C6.66663 14.5 6.99996 14.1667 7.49996 14.1667H12.5C13 14.1667 13.3333 14.5 13.3333 15C13.3333 15.5 13 15.8333 12.5 15.8333Z" fill="#222F2B"/>
<path d="M17.5 5.83333H2.49996C1.99996 5.83333 1.66663 5.5 1.66663 5C1.66663 4.5 1.99996 4.16666 2.49996 4.16666H17.5C18 4.16666 18.3333 4.5 18.3333 5C18.3333 5.5 18 5.83333 17.5 5.83333Z" fill="#222F2B"/>
</svg>
