<svg width="20" height="20" viewBox="0 0 20 20" fill="none" xmlns="http://www.w3.org/2000/svg">
<path d="M15 10.8333H5C4.5 10.8333 4.16666 10.5 4.16666 10C4.16666 9.5 4.5 9.16666 5 9.16666H15C15.5 9.16666 15.8333 9.5 15.8333 10C15.8333 10.5 15.5 10.8333 15 10.8333Z" fill="#0A6DC2"/>
<path d="M12.5 15.8333H7.5C7 15.8333 6.66666 15.5 6.66666 15C6.66666 14.5 7 14.1667 7.5 14.1667H12.5C13 14.1667 13.3333 14.5 13.3333 15C13.3333 15.5 13 15.8333 12.5 15.8333Z" fill="#0A6DC2"/>
<path d="M17.5 5.83333H2.5C2 5.83333 1.66666 5.5 1.66666 5C1.66666 4.5 2 4.16666 2.5 4.16666H17.5C18 4.16666 18.3333 4.5 18.3333 5C18.3333 5.5 18 5.83333 17.5 5.83333Z" fill="#0A6DC2"/>
</svg>
