<svg xmlns="http://www.w3.org/2000/svg" width="80" height="80" viewBox="0 0 80 80" fill="none">
  <path d="M67.5 2.5H12.5C11.1193 2.5 10 3.61929 10 5V27.5C10 28.8807 11.1193 30 12.5 30H67.5C68.8807 30 70 28.8807 70 27.5V5C70 3.61929 68.8807 2.5 67.5 2.5Z" fill="#F5EEEC"/>
  <path d="M15 27.5V2.5H12.5C11.837 2.5 11.2011 2.76339 10.7322 3.23223C10.2634 3.70107 10 4.33696 10 5V27.5C10 28.163 10.2634 28.7989 10.7322 29.2678C11.2011 29.7366 11.837 30 12.5 30H17.5C16.837 30 16.2011 29.7366 15.7322 29.2678C15.2634 28.7989 15 28.163 15 27.5Z" fill="#E0DEDE"/>
  <path d="M42.5 22.5L36.5 14.5C36.0343 13.879 35.4303 13.375 34.7361 13.0279C34.0418 12.6807 33.2762 12.5 32.5 12.5H10V27.5C10 28.163 10.2634 28.7989 10.7322 29.2678C11.2011 29.7366 11.837 30 12.5 30H67.5C68.163 30 68.7989 29.7366 69.2678 29.2678C69.7366 28.7989 70 28.163 70 27.5V22.5H42.5Z" fill="#E0DEDE"/>
  <path d="M74.5 27.4444H40.75L34 16.2444C33.7671 15.8581 33.4652 15.5444 33.118 15.3284C32.7709 15.1125 32.3881 15 32 15H4.5C3.83696 15 3.20107 15.3278 2.73223 15.9112C2.26339 16.4947 2 17.286 2 18.1111V67.8889C2 68.714 2.26339 69.5053 2.73223 70.0888C3.20107 70.6722 3.83696 71 4.5 71H74.5C75.163 71 75.7989 70.6722 76.2678 70.0888C76.7366 69.5053 77 68.714 77 67.8889V30.5556C77 29.7304 76.7366 28.9391 76.2678 28.3557C75.7989 27.7722 75.163 27.4444 74.5 27.4444Z" fill="#FFC144"/>
  <path d="M37.5 20H27.5V25H41.25L37.5 20Z" fill="#D3922A"/>
  <path d="M43.75 10H50V15H43.75V10Z" fill="#0A6DC2"/>
  <path d="M56.25 10H62.5V15H56.25V10Z" fill="#0A6DC2"/>
  <path d="M40 77.5C51.736 77.5 61.25 67.986 61.25 56.25C61.25 44.5139 51.736 35 40 35C28.2639 35 18.75 44.5139 18.75 56.25C18.75 67.986 28.2639 77.5 40 77.5Z" fill="#0A6DC2"/>
  <path d="M23.7498 61.2503C23.7461 57.35 24.8172 53.5241 26.8454 50.1926C28.8737 46.8612 31.7807 44.153 35.2472 42.3655C38.7138 40.578 42.6059 39.7802 46.4961 40.0597C50.3864 40.3393 54.1244 41.6854 57.2998 43.9503C55.5105 41.4365 53.1947 39.343 50.5137 37.8157C47.8326 36.2884 44.8508 35.3641 41.776 35.107C38.7012 34.8499 35.6073 35.2664 32.7099 36.3273C29.8125 37.3882 27.1812 39.0681 24.9994 41.2499C22.8176 43.4317 21.1377 46.0629 20.0768 48.9604C19.0159 51.8578 18.5994 54.9517 18.8565 58.0265C19.1136 61.1013 20.0379 64.0831 21.5652 66.7642C23.0925 69.4452 25.186 71.761 27.6998 73.5503C25.1325 69.9626 23.7514 65.6619 23.7498 61.2503Z" fill="#095EA8"/>
  <path d="M42.5 67.225H37.5V57.875H35V52.875H40C40.663 52.875 41.2989 53.1384 41.7678 53.6072C42.2366 54.0761 42.5 54.712 42.5 55.375V67.225Z" fill="#F5EEEC"/>
  <path d="M36.25 44.625H41.25V49.875H36.25V44.625Z" fill="#F5EEEC"/>
  <path d="M35 62.875H45V67.875H35V62.875Z" fill="#F5EEEC"/>
</svg>