<svg width="16" height="17" viewBox="0 0 16 17" fill="none" xmlns="http://www.w3.org/2000/svg">
<g clip-path="url(#clip0_1184_1994)">
<path d="M12.0846 0.983375H11.3623C11.3623 0.716469 11.146 0.5 10.879 0.5H2.47166C2.20472 0.5 1.98828 0.716406 1.98828 0.983375V13.8302C1.98828 14.0972 2.20472 14.3136 2.47166 14.3136C11.6362 14.3136 10.9219 14.3418 11.0797 14.2695C11.202 14.2135 11.2968 14.1081 11.3387 13.9788H12.0845C12.0846 13.886 12.0846 1.16453 12.0846 0.983375Z" fill="#60B7FF"/>
<path d="M11.8837 0.5H10.8789C11.1459 0.5 11.3623 0.716406 11.3623 0.983375V13.8302C11.3623 14.0972 11.1459 14.3136 10.8789 14.3136H11.8837C12.1507 14.3136 12.3671 14.0972 12.3671 13.8302V0.983375C12.3671 0.716406 12.1507 0.5 11.8837 0.5V0.5Z" fill="#26A6FE"/>
<path d="M12.3671 3.81078L10.1345 1.57812H3.41279C3.04379 1.57812 2.74463 1.87728 2.74463 2.24628V14.193C2.74463 14.234 2.74888 14.274 2.75597 14.313H11.8838C12.1507 14.313 12.3671 14.0966 12.3671 13.8297V3.81078Z" fill="#26A6FE"/>
<path d="M13.159 3.93522L12.0261 3.22784L11.048 1.57812H4.32636C3.95736 1.57812 3.6582 1.87728 3.6582 2.24628V14.193C3.6582 14.562 3.95736 14.8611 4.32636 14.8611H13.1461C13.1505 14.8611 13.1547 14.8606 13.159 14.8605V3.93522Z" fill="#EAF6FF"/>
<path d="M13.8141 4.3442L12.8093 3.7168V14.1929C12.8093 14.5619 12.5101 14.861 12.1411 14.861H13.146C13.515 14.861 13.8141 14.5619 13.8141 14.1929V4.3442H13.8141Z" fill="#D8ECFE"/>
<path d="M11.716 4.34431H13.814L11.0479 1.57812V3.67616C11.0479 4.04516 11.347 4.34431 11.716 4.34431Z" fill="#B3DAFE"/>
<path d="M12.2106 5.85838H5.26171C5.12821 5.85838 5.02002 5.75016 5.02002 5.61669C5.02002 5.48322 5.12821 5.375 5.26171 5.375H12.2106C12.3441 5.375 12.4523 5.48322 12.4523 5.61669C12.4523 5.75016 12.3441 5.85838 12.2106 5.85838Z" fill="#82AEE3"/>
<path d="M12.2106 7.45798H5.26171C5.12821 7.45798 5.02002 7.34977 5.02002 7.2163C5.02002 7.08283 5.12821 6.97461 5.26171 6.97461H12.2106C12.3441 6.97461 12.4523 7.08283 12.4523 7.2163C12.4523 7.34977 12.3441 7.45798 12.2106 7.45798Z" fill="#82AEE3"/>
<path d="M14.8443 8.49978H14.3205C14.2083 8.30587 13.9987 8.17584 13.7623 8.17584C13.4308 8.17584 6.11483 8.17584 5.64842 8.17584L4.79998 6.77206H4.28567C4.19533 6.65128 4.05261 6.57812 3.8988 6.57812H1.07127C0.804297 6.57812 0.587891 6.79456 0.587891 7.0615V15.8552C0.587891 16.2112 0.876453 16.4998 1.23239 16.4998H13.7623C13.8687 16.4998 13.977 16.4722 14.0727 16.4193H14.0739C14.1551 16.3743 14.2254 16.3121 14.2803 16.2379H14.8442V8.49978H14.8443Z" fill="#FDB441"/>
<path d="M4.32721 6.83741L5.02755 8.17584H6.03239L5.33205 6.83741C5.24864 6.678 5.08364 6.57812 4.90377 6.57812H3.89893C4.0788 6.57812 4.2438 6.678 4.32721 6.83741Z" fill="#FEA613"/>
<path d="M14.767 8.17578H13.7622C14.1182 8.17578 14.4067 8.46434 14.4067 8.82028V15.8552C14.4067 16.2112 14.1181 16.4997 13.7622 16.4997H14.767C15.123 16.4997 15.4115 16.2111 15.4115 15.8552V8.82031C15.4115 8.46434 15.123 8.17578 14.767 8.17578Z" fill="#FEA613"/>
</g>
<defs>
<clipPath id="clip0_1184_1994">
<rect width="16" height="16" fill="white" transform="translate(0 0.5)"/>
</clipPath>
</defs>
</svg>
