<svg width="16" height="17" viewBox="0 0 16 17" fill="none" xmlns="http://www.w3.org/2000/svg">
<path d="M15.0003 4.10442C15.0003 4.68538 14.8144 5.22188 14.5001 5.65509C14.0363 6.29447 12.8715 6.54129 12.4548 6.54129C11.0491 6.54129 10.043 5.54277 10.043 4.10438C10.043 3.66435 10.3144 2.4863 10.9393 2.01174C11.3627 1.69021 11.8871 1.5 12.4548 1.5C13.8606 1.5 15.0003 2.66603 15.0003 4.10442Z" fill="#C38C66"/>
<path d="M6.09055 4.10442C6.09055 5.54277 4.95093 6.70884 3.5451 6.70884C3.5451 6.70884 1.18848 6.1218 1.18848 4.10442C1.18848 3.24656 1.40505 2.48551 2.03054 2.01103C2.45379 1.6899 2.97779 1.5 3.54514 1.5C4.95093 1.5 6.09055 2.66603 6.09055 4.10442Z" fill="#C38C66"/>
<path d="M4.07454 6.17209C2.66875 6.17209 1.52909 5.00606 1.52909 3.56767C1.52909 2.98671 1.71657 2.44883 2.03086 2.01562C1.40602 2.49023 1 3.25166 1 4.10906C1 5.54741 2.13963 6.71347 3.54546 6.71347C4.38344 6.71347 5.12455 6.29733 5.58841 5.65799C5.16497 5.97951 4.64235 6.17209 4.07454 6.17209Z" fill="#B57F5F"/>
<path d="M12.9837 6.17134C11.5779 6.17134 10.4383 5.00532 10.4383 3.56692C10.4383 2.98596 10.6248 2.44887 10.939 2.01562C10.3142 2.49019 9.90918 3.25088 9.90918 4.10827C9.90918 5.54662 11.0488 6.71269 12.4546 6.71269C13.2926 6.71269 14.0361 6.29828 14.4999 5.65897C14.0765 5.98054 13.5515 6.17134 12.9837 6.17134Z" fill="#B57F5F"/>
<path d="M13.0906 8.99005C13.0906 11.8668 10.8114 14.1988 7.99976 14.1988C6.5737 14.1988 3.22217 11.8668 3.22217 8.99005C3.22217 7.38545 3.61806 5.95029 4.73318 4.99478C5.61724 4.23728 6.75645 3.78125 7.99979 3.78125C10.8114 3.78125 13.0906 6.1133 13.0906 8.99005Z" fill="#D19A6E"/>
<path d="M10.5131 13.537C10.3931 12.9189 9.90827 12.4196 9.30705 12.2831C8.99658 12.2126 8.70114 12.2384 8.4374 12.3339C8.15186 12.4374 7.84828 12.4374 7.56274 12.3339C7.29905 12.2384 7.00356 12.2126 6.69309 12.2831C6.39202 12.3515 6.12016 12.5108 5.90867 12.7305C4.48839 11.8076 3.54553 10.1858 3.54553 8.33636C3.54553 7.06378 3.99263 5.89688 4.73344 4.99219C3.61886 5.9477 2.90918 7.38329 2.90918 8.98746C2.90918 10.9307 3.94936 12.6251 5.49093 13.5204C5.48977 13.526 5.48816 13.5314 5.48704 13.537C5.28422 14.5821 6.06028 15.4984 7.04552 15.4984C7.22549 15.4984 7.3976 15.4667 7.558 15.4092C7.84701 15.3055 8.15313 15.3055 8.44214 15.4092C8.60254 15.4667 8.77461 15.4984 8.95462 15.4984C9.93982 15.4985 10.7159 14.5822 10.5131 13.537Z" fill="#C38C66"/>
<path d="M7.80941 14.8435L7.24911 13.8924C7.15965 13.7405 7.26653 13.5469 7.43983 13.5469H8.56039C8.7337 13.5469 8.84058 13.7405 8.75111 13.8924L8.19081 14.8435C8.10432 14.9905 7.89599 14.9905 7.80941 14.8435Z" fill="#FF7E92"/>
<path d="M6.72721 9.63289C6.72721 9.7756 6.69727 9.91117 6.64352 10.0334C6.49406 10.373 6.07178 10.4891 5.77267 10.4891C5.24551 10.4891 4.92529 10.1723 4.92529 9.63289C4.92529 9.3824 5.04997 8.89373 5.38279 8.74116C5.50181 8.6866 5.63377 8.65625 5.77267 8.65625C6.29984 8.65621 6.72721 9.09348 6.72721 9.63289Z" fill="#615260"/>
<path d="M6.24971 10.13C5.72255 10.13 5.29518 9.69278 5.29518 9.15341C5.29518 9.01026 5.3285 8.87248 5.38256 8.75C5.05113 8.90315 4.81787 9.24546 4.81787 9.64173C4.81787 10.1811 5.24524 10.6184 5.7724 10.6184C6.1597 10.6184 6.49356 10.3813 6.64325 10.0422C6.52357 10.0975 6.38961 10.13 6.24971 10.13Z" fill="#4E3D4D"/>
<path d="M11.1818 9.63289C11.1818 9.7756 11.1519 9.91117 11.0981 10.0334C10.9487 10.373 10.5264 10.4891 10.2273 10.4891C9.7001 10.4891 9.37988 10.1723 9.37988 9.63289C9.37988 9.3824 9.50456 8.89373 9.83738 8.74116C9.9564 8.6866 10.0884 8.65625 10.2273 8.65625C10.7544 8.65621 11.1818 9.09348 11.1818 9.63289Z" fill="#615260"/>
<path d="M10.7043 10.13C10.1771 10.13 9.74977 9.69278 9.74977 9.15341C9.74977 9.01026 9.78309 8.87248 9.83715 8.75C9.50572 8.90315 9.27246 9.24546 9.27246 9.64173C9.27246 10.1811 9.69983 10.6184 10.227 10.6184C10.6143 10.6184 10.9482 10.3813 11.0978 10.0422C10.9782 10.0975 10.8442 10.13 10.7043 10.13Z" fill="#4E3D4D"/>
</svg>
