<svg width="19" height="18" viewBox="0 0 19 18" fill="none" xmlns="http://www.w3.org/2000/svg">
<path d="M16.6539 4.46931C15.822 3.50744 14.9259 2.61475 13.9663 1.79069C11.7602 -0.320376 7.41428 0.531812 4.22209 3.72344C1.00009 6.94487 0.158027 11.3453 2.34503 13.5323L4.96797 16.1552C5.79034 16.9782 6.92603 17.3725 8.19503 17.3725C10.2988 17.3725 12.767 16.2886 14.7768 14.2787C17.9988 11.0567 18.8403 6.65631 16.6539 4.46931ZM4.93759 4.43894C6.75897 2.61812 8.96678 1.62081 10.7859 1.62081C11.7905 1.62081 12.677 1.92512 13.3149 2.56244C13.7042 2.95169 13.9753 3.44162 14.121 4.01987C14.639 6.03587 13.5613 8.81631 11.4378 10.9397C9.3189 13.0581 6.53734 14.1347 4.51515 13.6223C3.93915 13.4772 3.44978 13.2061 3.06053 12.8168C1.26897 11.0241 2.11047 7.26606 4.93759 4.43894ZM14.0613 13.5627C11.2348 16.3892 7.47559 17.2307 5.68347 15.4392L4.97078 14.7265C5.17553 14.749 5.38365 14.7631 5.59515 14.7631C7.73265 14.7631 10.179 13.6296 12.1533 11.6552C14.3285 9.48006 15.4777 6.74069 15.224 4.47212L15.9373 5.18537C17.73 6.9775 16.8879 10.735 14.0613 13.5627Z" fill="url(#paint0_linear_6727_6635)"/>
<path d="M4.93759 4.43894C6.75897 2.61812 8.96678 1.62081 10.7859 1.62081C11.7905 1.62081 12.677 1.92512 13.3149 2.56244C13.7042 2.95169 13.9753 3.44162 14.121 4.01987C14.639 6.03587 13.5613 8.81631 11.4378 10.9397C9.3189 13.0581 6.53734 14.1347 4.51515 13.6223C3.93915 13.4772 3.44978 13.2061 3.06053 12.8168C1.26897 11.0241 2.11047 7.26606 4.93759 4.43894Z" fill="white"/>
<path d="M14.0613 13.5627C11.2348 16.3892 7.47559 17.2307 5.68347 15.4392L4.97078 14.7265C5.17553 14.749 5.38365 14.7631 5.59515 14.7631C7.73265 14.7631 10.179 13.6296 12.1533 11.6552C14.3285 9.48006 15.4777 6.74069 15.224 4.47212L15.9373 5.18537C17.73 6.9775 16.8879 10.735 14.0613 13.5627Z" fill="white"/>
<path d="M5.13534 6.28964C7.7522 8.19945 6.78676 10.8269 6.78676 10.8269C6.78676 10.8269 8.1789 8.39843 11.324 9.17545C8.70713 7.26564 9.67257 4.63822 9.67257 4.63822C9.67257 4.63822 8.28043 7.06666 5.13534 6.28964Z" fill="url(#paint1_linear_6727_6635)"/>
<defs>
<linearGradient id="paint0_linear_6727_6635" x1="22.0479" y1="-92.5156" x2="-10.662" y2="-92.1587" gradientUnits="userSpaceOnUse">
<stop stop-color="#57AC91"/>
<stop offset="1" stop-color="#8AC3F9"/>
</linearGradient>
<linearGradient id="paint1_linear_6727_6635" x1="30.3693" y1="-27.6357" x2="18.2167" y2="-33.142" gradientUnits="userSpaceOnUse">
<stop stop-color="#57AC91"/>
<stop offset="1" stop-color="#8AC3F9"/>
</linearGradient>
</defs>
</svg>
