<svg width="16" height="17" viewBox="0 0 16 17" fill="none" xmlns="http://www.w3.org/2000/svg">
<g clip-path="url(#clip0_1184_1927)">
<path d="M1.54883 15.2433L2.69814 15.5246L3.84742 15.2433V14.6797L2.69814 14.3984L1.54883 14.6797V15.2433Z" fill="#F9CF58"/>
<path d="M5.0835 15.2433L6.23281 15.5246L7.38212 15.2433V14.6797L6.23281 14.3984L5.0835 14.6797V15.2433Z" fill="#FFAC3E"/>
<path d="M8.61768 15.2433L9.76699 15.5246L10.9163 15.2433V14.6797L9.76699 14.3984L8.61768 14.6797V15.2433Z" fill="#82D361"/>
<path d="M12.1523 15.2433L13.3017 15.5246L14.451 15.2433V14.6797L13.3017 14.3984L12.1523 14.6797V15.2433Z" fill="#6CC4FF"/>
<path d="M3.84742 14.6808H1.54883V12.4069C1.54883 12.2339 1.68902 12.0938 1.86195 12.0938H3.53436C3.7073 12.0938 3.84748 12.2339 3.84748 12.4069V14.6808H3.84742Z" fill="#FFE27A"/>
<path d="M7.38212 14.6789H5.0835V10.6959C5.0835 10.523 5.22368 10.3828 5.39662 10.3828H7.069C7.24193 10.3828 7.38212 10.523 7.38212 10.6959V14.6789Z" fill="#FFBA57"/>
<path d="M10.9163 14.679H8.61768V8.98695C8.61768 8.81402 8.75786 8.67383 8.9308 8.67383H10.6032C10.7761 8.67383 10.9163 8.81402 10.9163 8.98695V14.679H10.9163Z" fill="#98DB7C"/>
<path d="M14.451 14.679H12.1523V7.27797C12.1523 7.10503 12.2925 6.96484 12.4655 6.96484H14.1379C14.3108 6.96484 14.451 7.10503 14.451 7.27797V14.679H14.451Z" fill="#8BCAFF"/>
<path d="M13.1861 4.17576L12.9102 1.4281C12.9006 1.33251 12.808 1.26801 12.715 1.29223L10.0407 1.98873C9.91128 2.02244 9.881 2.19241 9.99082 2.26876L10.6894 2.75448C10.6894 2.75448 8.89775 6.24851 2.42432 8.24626V8.42088C4.20047 8.4306 8.8435 7.92263 11.7555 4.00954L12.242 3.83398L12.9409 4.31991C13.0507 4.39623 13.1994 4.30876 13.1861 4.17576Z" fill="#FF4755"/>
<path d="M11.9614 3.63603C11.8917 3.58681 11.7958 3.60275 11.7449 3.67119C8.8329 7.58428 5.097 8.07706 2.53006 8.25537C2.49225 8.258 2.45765 8.25422 2.42609 8.24578L2.42381 8.2465C2.09272 8.35094 2.18547 8.84297 2.53181 8.81887C5.12575 8.6384 9.40756 7.71206 12.2418 3.83412L11.9614 3.63603Z" fill="#FC2B3A"/>
<path d="M15.7652 15.7138H0.234844C0.105156 15.7138 0 15.6087 0 15.479C0 15.3493 0.105125 15.2441 0.234844 15.2441H15.7652C15.8949 15.2441 16 15.3493 16 15.479C16 15.6087 15.8948 15.7138 15.7652 15.7138Z" fill="#407093"/>
</g>
<defs>
<clipPath id="clip0_1184_1927">
<rect width="16" height="16" fill="white" transform="translate(0 0.5)"/>
</clipPath>
</defs>
</svg>
