<svg width="16" height="16" viewBox="0 0 12 12" fill="none" xmlns="http://www.w3.org/2000/svg">
<path d="M5.99984 0.166016C2.77984 0.166016 0.166504 2.77935 0.166504 5.99935C0.166504 9.21935 2.77984 11.8327 5.99984 11.8327C9.21984 11.8327 11.8332 9.21935 11.8332 5.99935C11.8332 2.77935 9.21984 0.166016 5.99984 0.166016ZM6.58317 10.0827H5.4165V8.91602H6.58317V10.0827ZM7.79067 5.56185L7.26567 6.09852C6.84567 6.52435 6.58317 6.87435 6.58317 7.74935H5.4165V7.45768C5.4165 6.81602 5.679 6.23268 6.099 5.80685L6.82234 5.07185C7.03817 4.86185 7.1665 4.57018 7.1665 4.24935C7.1665 3.60768 6.6415 3.08268 5.99984 3.08268C5.35817 3.08268 4.83317 3.60768 4.83317 4.24935H3.6665C3.6665 2.96018 4.71067 1.91602 5.99984 1.91602C7.289 1.91602 8.33317 2.96018 8.33317 4.24935C8.33317 4.76268 8.12317 5.22935 7.79067 5.56185Z" fill="white"/>
</svg>
