<svg width="23" height="23" viewBox="0 0 23 23" fill="none" xmlns="http://www.w3.org/2000/svg">
<path d="M11.7288 5.28857C8.61788 5.28857 6.04028 7.82173 6.04028 10.9771C6.04028 14.1324 8.57344 16.6656 11.7288 16.6656C14.8841 16.6656 17.4173 14.088 17.4173 10.9771C17.4173 7.86617 14.8397 5.28857 11.7288 5.28857ZM11.7288 14.6213C9.72892 14.6213 8.08459 12.9769 8.08459 10.9771C8.08459 8.97721 9.72892 7.33288 11.7288 7.33288C13.7286 7.33288 15.373 8.97721 15.373 10.9771C15.373 12.9769 13.7286 14.6213 11.7288 14.6213Z" fill="#085394"/>
<path d="M17.6395 6.44406C18.3513 6.44406 18.9283 5.86704 18.9283 5.15526C18.9283 4.44347 18.3513 3.86646 17.6395 3.86646C16.9277 3.86646 16.3507 4.44347 16.3507 5.15526C16.3507 5.86704 16.9277 6.44406 17.6395 6.44406Z" fill="#085394"/>
<path d="M20.9725 1.8221C19.8171 0.622179 18.1727 0 16.3062 0H7.15128C3.28488 0 0.707275 2.5776 0.707275 6.444V15.5545C0.707275 17.4655 1.32945 19.1098 2.57381 20.3097C3.77373 21.4652 5.37362 22.0429 7.19572 22.0429H16.2618C18.1727 22.0429 19.7726 21.4207 20.9281 20.3097C22.128 19.1542 22.7502 17.5099 22.7502 15.5989V6.444C22.7502 4.57746 22.128 2.97757 20.9725 1.8221ZM20.7948 15.5989C20.7948 16.9766 20.3059 18.0876 19.506 18.8431C18.706 19.5987 17.595 19.9986 16.2618 19.9986H7.19572C5.86248 19.9986 4.75144 19.5987 3.9515 18.8431C3.15155 18.0432 2.75158 16.9322 2.75158 15.5545V6.444C2.75158 5.11076 3.15155 3.99972 3.9515 3.19978C4.707 2.44428 5.86248 2.0443 7.19572 2.0443H16.3506C17.6839 2.0443 18.7949 2.44428 19.5949 3.24422C20.3504 4.04417 20.7948 5.1552 20.7948 6.444V15.5989Z" fill="#085394"/>
</svg>
