<svg width="22" height="21" viewBox="0 0 22 21" fill="none" xmlns="http://www.w3.org/2000/svg">
<path d="M4.7916 20.9368H0.323242V6.04224H4.7916V20.9368ZM21.1756 20.9368H16.7072V12.9801C16.7072 10.9068 15.9685 9.8746 14.5043 9.8746C13.344 9.8746 12.6083 10.4525 12.2389 11.6098C12.2389 13.4895 12.2389 20.9368 12.2389 20.9368H7.77051C7.77051 20.9368 7.83009 7.53169 7.77051 6.04224H11.2975L11.5701 9.02114H11.6625C12.5785 7.53169 14.0426 6.52184 16.0504 6.52184C17.5771 6.52184 18.8118 6.94633 19.7547 8.01278C20.7034 9.08072 21.1756 10.5136 21.1756 12.5258V20.9368Z" fill="#085394"/>
<path d="M2.55743 4.55283C3.83247 4.55283 4.86609 3.55256 4.86609 2.31865C4.86609 1.08475 3.83247 0.0844727 2.55743 0.0844727C1.2824 0.0844727 0.248779 1.08475 0.248779 2.31865C0.248779 3.55256 1.2824 4.55283 2.55743 4.55283Z" fill="#085394"/>
</svg>
