<svg width="24" height="24" viewBox="0 0 24 24" fill="none" xmlns="http://www.w3.org/2000/svg">
<g clip-path="url(#clip0_1184_1296)">
<path d="M23.6496 20.2571L18.1448 14.7524C17.6776 14.2851 16.9159 14.2851 16.4486 14.7524L15.1236 13.4274C17.5879 10.1374 17.3319 5.45193 14.3427 2.46273C11.0591 -0.82091 5.73997 -0.82091 2.46273 2.46273C-0.82091 5.74637 -0.82091 11.0655 2.46273 14.3427C5.45193 17.3319 10.1374 17.5879 13.4274 15.1236L14.7524 16.4486C14.2851 16.9159 14.2851 17.6776 14.7524 18.1448L20.2571 23.6496C20.7244 24.1168 21.4861 24.1168 21.9533 23.6496L23.6496 21.9533C24.1168 21.4861 24.1168 20.7244 23.6496 20.2571ZM13.2482 11.9104L11.9232 13.2354C10.9055 13.9779 9.68929 14.3939 8.40912 14.3939C6.79611 14.4003 5.29191 13.7794 4.15895 12.6401C3.026 11.5071 2.39872 9.99653 2.39872 8.39632C2.39872 6.79611 3.026 5.2855 4.15895 4.15255C5.29191 3.0196 6.80251 2.39232 8.40272 2.39232C10.0029 2.39232 11.5135 3.0196 12.6465 4.15255C13.7794 5.2855 14.4067 6.79611 14.4067 8.39632C14.4067 9.68289 13.9907 10.8927 13.2482 11.9104Z" fill="#0A6DC2"/>
</g>
<defs>
<clipPath id="clip0_1184_1296">
<rect width="24" height="24" fill="white"/>
</clipPath>
</defs>
</svg>
