<svg width="20" height="20" viewBox="0 0 20 20" fill="none" xmlns="http://www.w3.org/2000/svg">
<path d="M15.5957 13.5008V13.5508H15.6457H16.4286C16.5697 13.5508 16.7036 13.5969 16.8009 13.6767C16.898 13.7564 16.95 13.862 16.95 13.9695V16.5312C16.95 16.6388 16.898 16.7444 16.8009 16.824C16.7036 16.9039 16.5697 16.95 16.4286 16.95H3.57143C3.43029 16.95 3.29645 16.9039 3.19908 16.824C3.10199 16.7444 3.05 16.6388 3.05 16.5312V13.9695C3.05 13.862 3.10199 13.7564 3.19908 13.6767C3.29645 13.5969 3.43029 13.5508 3.57143 13.5508H8.41429H8.46429V13.5008V12.3758V12.3258H8.41429H4.15143C4.01029 12.3258 3.87645 12.2797 3.77908 12.1998C3.68199 12.1202 3.63 12.0145 3.63 11.907C3.63 11.7995 3.68199 11.6939 3.77908 11.6142C3.87645 11.5344 4.01029 11.4883 4.15143 11.4883H11.6914C11.8326 11.4883 11.9664 11.5344 12.0638 11.6142C12.1609 11.6939 12.2129 11.7995 12.2129 11.907C12.2129 12.0145 12.1609 12.1202 12.0638 12.1998C11.9664 12.2797 11.8326 12.3258 11.6914 12.3258H9.55714H9.50714V12.3758V13.5008V13.5508H9.55714H14.5029H14.5529V13.5008V9.67109V9.67104C14.5515 8.47751 14.0099 7.32903 13.0367 6.44767C12.0638 5.56652 10.7283 5.01439 9.28981 4.89626L9.23571 4.89182V4.94609L9.23571 8.32812L9.23572 8.32886C9.23716 8.42638 9.19583 8.52293 9.11597 8.60045C9.03587 8.67821 8.92271 8.73105 8.79648 8.74728L8.75286 8.75289V8.79688V9.92188C8.75286 10.0294 8.70087 10.135 8.60378 10.2147C8.50641 10.2945 8.37257 10.3406 8.23143 10.3406H5.34C5.19886 10.3406 5.06502 10.2945 4.96765 10.2147C4.87056 10.135 4.81857 10.0294 4.81857 9.92188V8.79688V8.75289L4.77495 8.74728C4.64872 8.73105 4.53555 8.67821 4.45546 8.60045C4.3756 8.52293 4.33427 8.42638 4.33571 8.32886L4.33571 8.32886V8.32812V2.46875C4.33571 2.36125 4.3877 2.2556 4.48479 2.17595C4.58216 2.09608 4.716 2.05 4.85714 2.05H8.71429C8.85543 2.05 8.98927 2.09608 9.08664 2.17595C9.18373 2.2556 9.23571 2.36125 9.23571 2.46875V4.00625V4.05293L9.28228 4.05613C11.0048 4.17463 12.6087 4.81909 13.7773 5.85996C14.9457 6.90061 15.5932 8.26093 15.5957 9.67118V13.5008ZM7.66 9.49609H7.71V9.44609V8.79688V8.74687H7.66H5.90286H5.85286V8.79688V9.44609V9.49609H5.90286H7.66ZM8.14286 7.90938H8.19286V7.85938V2.9375V2.8875H8.14286H5.42857H5.37857V2.9375V7.85938V7.90938H5.42857H8.14286ZM4.14286 14.3883H4.09286V14.4383V16.0625V16.1125H4.14286H15.8571H15.9071V16.0625V14.4383V14.3883H15.8571H4.14286Z" fill="#0A6DC2" stroke="#F1F4F6" stroke-width="0.1"/>
</svg>
