<svg width="28" height="28" viewBox="0 0 28 28" fill="none" xmlns="http://www.w3.org/2000/svg">
<path d="M19.5996 1.0293H8.40031C7.28159 1.0293 6.37366 1.93723 6.37366 3.05595V24.9438C6.37366 26.0625 7.28159 26.9705 8.40031 26.9705H19.5996C20.7183 26.9705 21.6263 26.0625 21.6263 24.9438C21.6263 17.6419 21.6263 10.3334 21.6263 3.05595C21.6263 1.93723 20.7183 1.0293 19.5996 1.0293ZM14.1276 2.81276H15.5058C15.7287 2.81276 15.9111 2.99111 15.9111 3.21809C15.9111 3.44102 15.7287 3.62343 15.5058 3.62343H14.1276C13.9007 3.62343 13.7223 3.44102 13.7223 3.21809C13.7223 2.99111 13.9007 2.81276 14.1276 2.81276ZM12.4942 2.81276H12.636C12.863 2.81276 13.0414 2.99111 13.0414 3.21809C13.0414 3.44102 12.863 3.62343 12.636 3.62343H12.4942C12.2712 3.62343 12.0888 3.44102 12.0888 3.21809C12.0888 2.99111 12.2712 2.81276 12.4942 2.81276ZM14.6911 25.1951H13.3089C13.0859 25.1951 12.9036 25.0127 12.9036 24.7898C12.9036 24.5628 13.0859 24.3845 13.3089 24.3845H14.6911C14.914 24.3845 15.0964 24.5628 15.0964 24.7898C15.0964 25.0127 14.914 25.1951 14.6911 25.1951ZM20.3838 22.601H7.61609V5.39877H20.3838V22.601H20.3838Z" fill="#0A6DC2"/>
<path d="M13.2274 21.7167H14.7726C15.0535 21.7167 15.2813 21.4735 15.2813 21.1736V19.5158C15.2813 19.2158 15.0535 18.9727 14.7726 18.9727H13.2274C12.9464 18.9727 12.7186 19.2158 12.7186 19.5158V21.1736C12.7186 21.4735 12.9464 21.7167 13.2274 21.7167Z" fill="#0A6DC2"/>
<path d="M9.27522 17.6972H10.8204C11.1014 17.6972 11.3292 17.45 11.3292 17.15V15.4963C11.3292 15.1963 11.1014 14.9531 10.8204 14.9531H9.27522C8.99428 14.9531 8.7627 15.1963 8.7627 15.4963V17.15C8.7627 17.45 8.99428 17.6972 9.27522 17.6972Z" fill="#0A6DC2"/>
<path d="M17.1795 17.6972H18.7247C19.0056 17.6972 19.2372 17.45 19.2372 17.15V15.4963C19.2372 15.1963 19.0056 14.9531 18.7247 14.9531H17.1795C16.8985 14.9531 16.6708 15.1963 16.6708 15.4963V17.15C16.6708 17.45 16.8986 17.6972 17.1795 17.6972Z" fill="#0A6DC2"/>
<path d="M17.1795 21.7167H18.7247C19.0056 21.7167 19.2372 21.4735 19.2372 21.1736V19.5158C19.2372 19.2158 19.0056 18.9727 18.7247 18.9727H17.1795C16.8985 18.9727 16.6708 19.2158 16.6708 19.5158V21.1736C16.6708 21.4735 16.8986 21.7167 17.1795 21.7167Z" fill="#0A6DC2"/>
<path d="M9.27522 21.7167H10.8204C11.1014 21.7167 11.3292 21.4735 11.3292 21.1736V19.5158C11.3292 19.2158 11.1014 18.9727 10.8204 18.9727H9.27522C8.99428 18.9727 8.7627 19.2158 8.7627 19.5158V21.1736C8.7627 21.4735 8.99428 21.7167 9.27522 21.7167Z" fill="#0A6DC2"/>
<path d="M13.2274 17.6972H14.7726C15.0535 17.6972 15.2813 17.45 15.2813 17.15V15.4963C15.2813 15.1963 15.0535 14.9531 14.7726 14.9531H13.2274C12.9464 14.9531 12.7186 15.1963 12.7186 15.4963V17.15C12.7186 17.45 12.9464 17.6972 13.2274 17.6972Z" fill="#0A6DC2"/>
</svg>
