<svg width="20" height="20" viewBox="0 0 20 20" fill="none" xmlns="http://www.w3.org/2000/svg">
<path d="M10.0003 10.8307C10.4606 10.8307 10.8337 10.4576 10.8337 9.9974C10.8337 9.53716 10.4606 9.16406 10.0003 9.16406C9.54009 9.16406 9.16699 9.53716 9.16699 9.9974C9.16699 10.4576 9.54009 10.8307 10.0003 10.8307Z" stroke="#222F2B" stroke-width="2" stroke-linecap="round" stroke-linejoin="round"/>
<path d="M10.0003 5.0026C10.4606 5.0026 10.8337 4.62951 10.8337 4.16927C10.8337 3.70903 10.4606 3.33594 10.0003 3.33594C9.54009 3.33594 9.16699 3.70903 9.16699 4.16927C9.16699 4.62951 9.54009 5.0026 10.0003 5.0026Z" stroke="#222F2B" stroke-width="2" stroke-linecap="round" stroke-linejoin="round"/>
<path d="M10.0003 16.6667C10.4606 16.6667 10.8337 16.2936 10.8337 15.8333C10.8337 15.3731 10.4606 15 10.0003 15C9.54009 15 9.16699 15.3731 9.16699 15.8333C9.16699 16.2936 9.54009 16.6667 10.0003 16.6667Z" stroke="#222F2B" stroke-width="2" stroke-linecap="round" stroke-linejoin="round"/>
</svg>
