<svg width="460" height="344" viewBox="0 0 460 344" fill="none" xmlns="http://www.w3.org/2000/svg">
<path d="M69.0028 343.467H390.963C409.275 343.426 426.823 336.124 439.76 323.161C452.692 310.202 459.958 292.634 459.958 274.327V201.598C459.958 193.384 455.572 185.791 448.458 181.681C441.343 177.577 432.577 177.577 425.463 181.681C418.343 185.79 413.963 193.384 413.963 201.598V275.071C413.963 281.17 411.541 287.019 407.228 291.331C402.916 295.643 397.062 298.071 390.963 298.071H69.0031C62.9041 298.071 57.05 295.644 52.7377 291.331C48.4255 287.019 46.0033 281.17 46.0033 275.071V156.801H436.95C443.065 156.837 448.934 154.431 453.257 150.108C457.58 145.785 459.991 139.915 459.949 133.801V69.14C459.949 50.8334 452.684 33.2653 439.752 20.3067C426.815 7.34308 409.268 0.0413333 390.955 0H68.9947C50.6827 0.0416667 33.1347 7.34375 20.1973 20.3067C7.26506 33.2651 0 50.8334 0 69.14V274.327C0 292.633 7.26559 310.201 20.1973 323.16C33.1348 336.124 50.6813 343.425 68.9947 343.467L69.0028 343.467ZM69.0028 46.1473H390.963C397.062 46.1473 402.916 48.5692 407.228 52.8817C411.54 57.1943 413.963 63.0432 413.963 69.1417V110.803L46.0025 110.808V69.1416C46.0025 63.0427 48.4244 57.1937 52.7369 52.8816C57.0495 48.5695 62.9041 46.1473 69.0028 46.1473Z" fill="#0000003d"/>
<path d="M107.523 205.788C99.304 205.788 91.7161 210.173 87.6054 217.288C83.4961 224.402 83.4961 233.168 87.6054 240.282C91.7148 247.402 99.3033 251.782 107.523 251.782H200.111C208.324 251.782 215.917 247.402 220.028 240.282C224.132 233.168 224.132 224.402 220.028 217.288C215.919 210.173 208.325 205.788 200.111 205.788H107.523Z" fill="#0000003d"/>
</svg>
