<svg width="16" height="17" viewBox="0 0 16 17" fill="none" xmlns="http://www.w3.org/2000/svg">
<g clip-path="url(#clip0_5529_32428)">
<path d="M15.6781 5.76562H0.321932C0.144129 5.76562 0 5.90975 0 6.08756V16.1804C0 16.3582 0.144129 16.5023 0.321932 16.5023H7.3844C7.52551 16.3165 7.7487 16.1965 8 16.1965C8.2513 16.1965 8.47449 16.3165 8.6156 16.5023H15.6781C15.8559 16.5023 16 16.3582 16 16.1804V6.08756C16 5.90979 15.8559 5.76562 15.6781 5.76562Z" fill="#6E9EFF"/>
<path d="M15.6779 5.76562H14.3901C14.5679 5.76562 14.7121 5.90975 14.7121 6.08756V16.1804C14.7121 16.3582 14.5679 16.5023 14.3901 16.5023H15.6779C15.8557 16.5023 15.9998 16.3582 15.9998 16.1804V6.08756C15.9998 5.90979 15.8557 5.76562 15.6779 5.76562Z" fill="#5990FF"/>
<path d="M1.05127 7.28125H14.9492V15.504H1.05127V7.28125Z" fill="#C5D7E6"/>
<path d="M8.00023 5.46394V15.3945C8.00023 15.3945 5.38128 13.2274 1.05127 14.7507V5.46394C1.05127 5.46394 4.5432 3.82241 8.00023 5.46394Z" fill="#D6E2EB"/>
<path d="M8.00043 5.62261C8.00043 5.62261 6.49218 2.24011 2.66113 1.4375V11.2098C6.49218 12.0124 8.00043 15.3949 8.00043 15.3949V5.62261Z" fill="#FBFCFC"/>
<path d="M8.00041 5.62245C8.00041 5.62245 8.10156 1.30264 4.27051 0.5V10.2723C8.10156 11.0749 8.00041 15.3947 8.00041 15.3947V5.62245Z" fill="#E7EEF3"/>
<path d="M8 5.46394V15.3945C8 15.3945 10.6189 13.2274 14.949 14.7507V5.46394C14.949 5.46394 11.457 3.82241 8 5.46394Z" fill="#E4ECF2"/>
<path d="M8.00098 5.62071C8.00098 5.62071 10.104 3.36719 13.9841 3.36719V13.1395C10.104 13.1395 8.00098 15.393 8.00098 15.393V5.62071Z" fill="#FBFCFC"/>
</g>
<defs>
<clipPath id="clip0_5529_32428">
<rect width="16" height="16" fill="white" transform="translate(0 0.5)"/>
</clipPath>
</defs>
</svg>
