<svg width="16" height="17" viewBox="0 0 16 17" fill="none" xmlns="http://www.w3.org/2000/svg">
<path d="M15.0002 9.75386H4.21912L4.59399 8.68965C4.6298 8.58812 4.63188 8.47774 4.59991 8.37494C4.56795 8.27213 4.50365 8.18239 4.41658 8.11906C4.32951 8.05574 4.22433 8.02221 4.11668 8.02347C4.00902 8.02473 3.90465 8.06071 3.81909 8.12605L0.733764 10.4814C0.672622 10.5281 0.62307 10.5882 0.588962 10.6571C0.554854 10.7261 0.537109 10.8019 0.537109 10.8789C0.537109 10.9558 0.554854 11.0316 0.588962 11.1006C0.62307 11.1695 0.672622 11.2297 0.733764 11.2763L3.81909 13.6317C3.90466 13.697 4.00903 13.733 4.11669 13.7342C4.22434 13.7355 4.32953 13.702 4.4166 13.6386C4.50367 13.5753 4.56798 13.4856 4.59997 13.3828C4.63195 13.28 4.6299 13.1696 4.59412 13.0681L4.21912 12.0039H15.0002C15.1328 12.0037 15.2599 11.951 15.3537 11.8573C15.4474 11.7635 15.5001 11.6364 15.5002 11.5039V10.2539C15.5001 10.1213 15.4474 9.99419 15.3537 9.90045C15.2599 9.80671 15.1328 9.75399 15.0002 9.75386Z" fill="#23B094"/>
<path d="M15.2665 5.73138L12.1812 3.37603C12.0956 3.3107 11.9912 3.27473 11.8836 3.27347C11.7759 3.27221 11.6707 3.30574 11.5836 3.36906C11.4966 3.43238 11.4323 3.52211 11.4003 3.62491C11.3683 3.72771 11.3703 3.83809 11.4061 3.93963L11.7811 5.00384H1C0.867432 5.00397 0.740332 5.0567 0.646593 5.15043C0.552853 5.24417 0.500132 5.37127 0.5 5.50384V6.75384C0.500132 6.88641 0.552853 7.01351 0.646593 7.10725C0.740332 7.20099 0.867432 7.25371 1 7.25384H11.7811L11.4062 8.31805C11.3704 8.41958 11.3684 8.52996 11.4003 8.63277C11.4323 8.73557 11.4966 8.82531 11.5837 8.88864C11.6707 8.95196 11.7759 8.98549 11.8836 8.98423C11.9912 8.98297 12.0956 8.94699 12.1812 8.88165L15.2665 6.5263C15.3276 6.47964 15.3772 6.4195 15.4113 6.35057C15.4454 6.28163 15.4631 6.20575 15.4631 6.12884C15.4631 6.05193 15.4454 5.97605 15.4113 5.90712C15.3772 5.83818 15.3276 5.77804 15.2665 5.73138Z" fill="#0A6DC2"/>
</svg>
