<svg width="16" height="16" viewBox="0 0 16 16" fill="none" xmlns="http://www.w3.org/2000/svg">
<g clip-path="url(#clip0_597_1054)">
<path d="M10.1122 9.8125C13.0757 11.8041 14.9834 13.7118 14.9834 13.7118C14.9834 13.7118 15.1729 14.3646 14.2687 15.2689C13.3644 16.1731 12.7116 15.9836 12.7116 15.9836C12.7116 15.9836 10.8039 14.0759 8.81226 11.1124" fill="#292B2F"/>
<path d="M5.89963 12.7993C9.1579 12.7993 11.7993 10.1579 11.7993 6.89963C11.7993 3.64135 9.1579 1 5.89963 1C2.64135 1 0 3.64135 0 6.89963C0 10.1579 2.64135 12.7993 5.89963 12.7993Z" fill="#F88F19"/>
<path d="M5.89969 10.9258C8.12327 10.9258 9.92584 9.12327 9.92584 6.89969C9.92584 4.6761 8.12327 2.87354 5.89969 2.87354C3.6761 2.87354 1.87354 4.6761 1.87354 6.89969C1.87354 9.12327 3.6761 10.9258 5.89969 10.9258Z" fill="#F1F4F6"/>
</g>
<defs>
<clipPath id="clip0_597_1054">
<rect width="15" height="15" fill="white" transform="translate(0 1)"/>
</clipPath>
</defs>
</svg>
