<svg width="20" height="20" viewBox="0 0 20 20" fill="none" xmlns="http://www.w3.org/2000/svg">
<path d="M9.94172 6.22107H6.2039C5.93626 6.22107 5.71992 6.00427 5.71992 5.7371C5.71992 5.46993 5.93626 5.25313 6.2039 5.25313H9.94172C10.2094 5.25313 10.4257 5.46993 10.4257 5.7371C10.4257 6.00427 10.2094 6.22107 9.94172 6.22107Z" fill="#0A6DC2" stroke="#F1F4F6" stroke-width="0.1"/>
<path d="M11.5436 8.89295H6.2039C5.93626 8.89295 5.71992 8.67615 5.71992 8.40897C5.71992 8.1418 5.93626 7.925 6.2039 7.925H11.5436C11.8113 7.925 12.0276 8.1418 12.0276 8.40897C12.0276 8.67615 11.8113 8.89295 11.5436 8.89295Z" fill="#0A6DC2" stroke="#F1F4F6" stroke-width="0.1"/>
<path d="M9.33299 11.0258H6.2039C5.93626 11.0258 5.71992 10.809 5.71992 10.5418C5.71992 10.2746 5.93626 10.0578 6.2039 10.0578H9.33299C9.60063 10.0578 9.81697 10.2746 9.81697 10.5418C9.81697 10.809 9.60063 11.0258 9.33299 11.0258Z" fill="#0A6DC2" stroke="#F1F4F6" stroke-width="0.1"/>
<path d="M8.05145 13.1664H6.2039C5.93626 13.1664 5.71992 12.9496 5.71992 12.6824C5.71992 12.4152 5.93626 12.1984 6.2039 12.1984H8.05145C8.31909 12.1984 8.53542 12.4152 8.53542 12.6824C8.53542 12.9496 8.31909 13.1664 8.05145 13.1664Z" fill="#0A6DC2" stroke="#F1F4F6" stroke-width="0.1"/>
<path d="M8.0514 16.3673H5.66987C4.22532 16.3673 3.05 15.192 3.05 13.7474V4.66987C3.05 3.22532 4.22532 2.05 5.66987 2.05H12.0776C13.5221 2.05 14.6974 3.22532 14.6974 4.66987V9.04847C14.6974 9.31564 14.4811 9.53244 14.2135 9.53244C13.9458 9.53244 13.7295 9.31564 13.7295 9.04847V4.66987C13.7295 3.75907 12.9884 3.01795 12.0776 3.01795H5.66987C4.75907 3.01795 4.01795 3.75907 4.01795 4.66987V13.7474C4.01795 14.6583 4.75907 15.3994 5.66987 15.3994H8.0514C8.31904 15.3994 8.53538 15.6162 8.53538 15.8833C8.53538 16.1505 8.31904 16.3673 8.0514 16.3673Z" fill="#0A6DC2" stroke="#F1F4F6" stroke-width="0.1"/>
<path d="M13.1455 17.9725C11.1125 17.9725 9.45771 16.3182 9.45771 14.2847C9.45771 12.2512 11.1125 10.5969 13.1455 10.5969C15.1785 10.5969 16.8334 12.2512 16.8334 14.2847C16.8334 16.3182 15.1785 17.9725 13.1455 17.9725ZM13.1455 11.5648C11.6458 11.5648 10.4257 12.7849 10.4257 14.2847C10.4257 15.7845 11.6458 17.0046 13.1455 17.0046C14.6453 17.0046 15.8654 15.7845 15.8654 14.2847C15.8654 12.7849 14.6453 11.5648 13.1455 11.5648Z" fill="#0A6DC2" stroke="#F1F4F6" stroke-width="0.1"/>
<path d="M12.7545 14.3786L12.7898 14.414L12.8252 14.3786L13.8718 13.3326L13.8718 13.3326C14.061 13.1433 14.3669 13.1433 14.5561 13.3326C14.7454 13.5219 14.7453 13.8282 14.5562 14.0169L14.5561 14.0169L13.132 15.441C13.0377 15.5353 12.9139 15.5823 12.7898 15.5823C12.6659 15.5823 12.5421 15.5349 12.4477 15.4405L11.7359 14.7287C11.5466 14.5394 11.5466 14.2336 11.7359 14.0444C11.9251 13.8551 12.231 13.8551 12.4202 14.0444L12.7545 14.3786Z" fill="#0A6DC2" stroke="#F1F4F6" stroke-width="0.1"/>
</svg>
