<svg width="16" height="16" viewBox="0 0 16 16" fill="none" xmlns="http://www.w3.org/2000/svg">
<path d="M4 0C3.45 0 3 0.45 3 1V15C3 15.55 3.45 16 4 16H14C14.55 16 15 15.55 15 15V4L11 0H4Z" fill="#E2E5E7"/>
<path d="M12 4H15L11 0V3C11 3.55 11.45 4 12 4Z" fill="#B0B7BD"/>
<path d="M15 7L12 4H15V7Z" fill="#CAD1D8"/>
<path d="M13 13C13 13.275 12.775 13.5 12.5 13.5H1.5C1.225 13.5 1 13.275 1 13V8C1 7.725 1.225 7.5 1.5 7.5H12.5C12.775 7.5 13 7.725 13 8V13Z" fill="#F15642"/>
<path d="M3.17944 9.47131C3.17944 9.33931 3.28344 9.19531 3.45094 9.19531H4.37444C4.89444 9.19531 5.36244 9.54331 5.36244 10.2103C5.36244 10.8423 4.89444 11.1943 4.37444 11.1943H3.70694V11.7223C3.70694 11.8983 3.59494 11.9978 3.45094 11.9978C3.31894 11.9978 3.17944 11.8983 3.17944 11.7223V9.47131ZM3.70694 9.69881V10.6948H4.37444C4.64244 10.6948 4.85444 10.4583 4.85444 10.2103C4.85444 9.93081 4.64244 9.69881 4.37444 9.69881H3.70694Z" fill="white"/>
<path d="M6.14538 12.0009C6.01338 12.0009 5.86938 11.9289 5.86938 11.7534V9.48238C5.86938 9.33888 6.01338 9.23438 6.14538 9.23438H7.06088C8.88788 9.23438 8.84788 12.0009 7.09688 12.0009H6.14538ZM6.39738 9.72238V11.5134H7.06088C8.14038 11.5134 8.18838 9.72238 7.06088 9.72238H6.39738Z" fill="white"/>
<path d="M9.4959 9.75488V10.3904H10.5154C10.6594 10.3904 10.8034 10.5344 10.8034 10.6739C10.8034 10.8059 10.6594 10.9139 10.5154 10.9139H9.4959V11.7534C9.4959 11.8934 9.3964 12.0009 9.2564 12.0009C9.0804 12.0009 8.9729 11.8934 8.9729 11.7534V9.48238C8.9729 9.33888 9.0809 9.23438 9.2564 9.23438H10.6599C10.8359 9.23438 10.9399 9.33888 10.9399 9.48238C10.9399 9.61038 10.8359 9.75438 10.6599 9.75438H9.4959V9.75488Z" fill="white"/>
<path d="M12.5 13.5H3V14H12.5C12.775 14 13 13.775 13 13.5V13C13 13.275 12.775 13.5 12.5 13.5Z" fill="#CAD1D8"/>
</svg>
