<svg xmlns="http://www.w3.org/2000/svg" width="20" height="20" viewBox="0 0 20 20" fill="none">
  <g clip-path="url(#clip0_6124_186)">
    <path d="M6.12234 11.613L4.52125 11.1454L2.7041 11.1406L1.10051 11.5996C0.875209 11.6641 0.676965 11.8 0.535635 11.987C0.394306 12.1739 0.317545 12.4017 0.316914 12.6361L0.3125 16.3767L6.8959 16.3945L6.90031 12.6537C6.90095 12.4193 6.82542 12.1911 6.6851 12.0034C6.54479 11.8158 6.34729 11.6787 6.12234 11.613Z" fill="#FFDD00"/>
    <path d="M3.60244 10.3668C3.359 10.3661 3.00658 10.1988 2.72541 9.95059C2.7176 9.94379 2.70955 9.93621 2.70147 9.92887L2.69971 11.1369C2.69971 11.1369 2.86127 11.8993 3.64916 11.9014C4.43705 11.9035 4.52111 11.1418 4.52111 11.1418V9.92188C4.22236 10.1946 3.85107 10.3668 3.60389 10.3668H3.60244Z" fill="#FFC7B5"/>
    <path d="M18.9096 11.613L17.2038 11.1406H15.5944L13.8876 11.5993C13.6623 11.6638 13.4641 11.7998 13.3228 11.9867C13.1814 12.1736 13.1047 12.4014 13.104 12.6358L13.0996 16.3766L19.683 16.3945L19.6876 12.6537C19.6882 12.4193 19.6127 12.1911 19.4724 12.0034C19.3321 11.8158 19.1346 11.6787 18.9096 11.613Z" fill="#52DBFF"/>
    <path d="M10.0055 0.312505C9.357 0.311167 8.73451 0.567505 8.27498 1.02513C7.81545 1.48275 7.55653 2.10418 7.55518 2.7527V6.89938L12.4558 6.90442V2.7527C12.4545 2.10418 12.1956 1.48276 11.736 1.02514C11.2765 0.56752 10.654 0.311178 10.0055 0.312505Z" fill="#56585E"/>
    <path d="M12.5303 6.53781L10.8554 6.06742L9.15578 6.0625L7.48 6.52414C7.25342 6.58899 7.05404 6.72571 6.9119 6.91371C6.76977 7.10171 6.69258 7.3308 6.69195 7.56648L6.6875 10.154L13.3086 10.1719L13.313 7.58441C13.3137 7.34869 13.2377 7.11914 13.0965 6.93037C12.9553 6.7416 12.7566 6.60383 12.5303 6.53781Z" fill="#00DCAB"/>
    <path d="M16.3991 5.72657C16.0951 5.72594 15.7939 5.7852 15.5128 5.90097C15.2316 6.01674 14.976 6.18675 14.7606 6.4013C14.5452 6.61585 14.3741 6.87073 14.2572 7.15139C14.1402 7.43205 14.0797 7.73299 14.0791 8.03704V10.6723H18.7192V8.03704C18.7186 7.73299 18.658 7.43205 18.5411 7.15139C18.4242 6.87073 18.2531 6.61585 18.0377 6.4013C17.8222 6.18675 17.5667 6.01674 17.2855 5.90097C17.0044 5.7852 16.7032 5.72594 16.3991 5.72657Z" fill="#56585E"/>
    <path d="M13.9926 16.5314C13.9926 16.2461 13.8999 15.9686 13.7285 15.7406C13.5571 15.5126 13.3162 15.3464 13.0421 15.2672L11.0916 14.7031H8.87953L6.92895 15.2672C6.65491 15.3464 6.41404 15.5126 6.24262 15.7406C6.07121 15.9686 5.97852 16.2461 5.97852 16.5314L6.00762 19.6848H14.0217L13.9926 16.5314Z" fill="#FA496E"/>
    <path d="M8.87402 13.2677V14.7054C8.87402 14.7054 9.07324 15.6329 10.0323 15.6329C10.9914 15.6329 11.0912 14.7054 11.0912 14.7054V13.25C10.7248 13.5816 10.2727 13.7904 9.97039 13.7904C9.67473 13.7904 9.23527 13.5891 8.87402 13.2677Z" fill="#FCD3C4"/>
    <path d="M9.97039 13.7904C9.67473 13.7904 9.23527 13.5891 8.87402 13.2677V14.7054C8.93314 14.9332 9.05052 15.1416 9.21461 15.3103C9.24555 14.8795 9.46941 14.566 9.97758 14.3816C10.5852 14.1612 10.9784 13.8933 11.0912 13.6845V13.25C10.7248 13.5816 10.2727 13.7904 9.97039 13.7904Z" fill="#FFC7B5"/>
    <path d="M16.3965 10.4479C16.1032 10.4481 15.8193 10.3448 15.5947 10.1562V11.2349C15.5947 11.2349 15.7393 11.9076 16.4346 11.9076C17.1299 11.9076 17.2026 11.2349 17.2026 11.2349V10.1572C16.9781 10.3451 16.6946 10.448 16.4018 10.4477L16.3965 10.4479Z" fill="#FCD3C4"/>
    <path d="M16.4022 10.4479H16.3965C16.1032 10.4481 15.8193 10.3448 15.5947 10.1562V11.2349C15.6376 11.4001 15.7227 11.5513 15.8418 11.6737C15.8642 11.3612 16.0265 11.1338 16.3951 11.0001C16.8357 10.8403 17.1209 10.6461 17.2028 10.4945V10.1572C16.9784 10.3451 16.6949 10.4481 16.4022 10.4479Z" fill="#FFC7B5"/>
    <path d="M10.0026 5.29867C9.6932 5.29896 9.39355 5.19074 9.15576 4.99285V6.12266C9.15576 6.12266 9.30854 6.83395 10.0441 6.83395C10.7796 6.83395 10.8562 6.12266 10.8562 6.12266V4.99219C10.6182 5.19051 10.3182 5.29898 10.0085 5.29867H10.0026Z" fill="#FCD3C4"/>
    <path d="M10.0086 5.29875H10.0026C9.6932 5.29904 9.39355 5.19082 9.15576 4.99293V6.12273C9.20112 6.29743 9.29115 6.45731 9.41701 6.58668C9.44072 6.25625 9.61232 6.01582 10.0021 5.87445C10.4681 5.70543 10.7696 5.50012 10.8562 5.33984V4.99219C10.6183 5.19051 10.3183 5.29901 10.0086 5.29875Z" fill="#FFC7B5"/>
    <path d="M3.60244 10.3643C3.359 10.3637 3.00658 10.1964 2.72541 9.94816C2.71717 9.94086 2.70838 9.93277 2.69971 9.92473V11.1381C2.69971 11.1381 2.86307 11.8988 3.64979 11.8988C4.4365 11.8988 4.51838 11.1381 4.51838 11.1381V9.92188C4.22014 10.1932 3.85041 10.3643 3.60389 10.3643H3.60244Z" fill="#FCD3C4"/>
    <path d="M3.6049 10.8726C4.10326 10.6918 4.42584 10.4722 4.51838 10.3008V9.92188C4.22014 10.1932 3.85041 10.3643 3.60389 10.3643H3.60244C3.359 10.3637 3.00658 10.1964 2.72541 9.94816C2.71717 9.94086 2.70838 9.93277 2.69971 9.92473V11.1381C2.74823 11.3249 2.84451 11.4958 2.97908 11.6342C3.00443 11.2809 3.18807 11.0238 3.6049 10.8726Z" fill="#FFC7B5"/>
    <path d="M4.79237 7.36691C4.74388 7.36753 4.69682 7.38338 4.65784 7.41223C4.38139 7.60715 4.18846 7.72547 3.84069 7.72547C3.74436 7.72479 3.64819 7.71732 3.55291 7.70313C3.25884 7.66353 2.97596 7.56426 2.72163 7.41141L2.5978 7.32812L2.54608 7.46805C2.54534 7.47 2.46014 7.69461 2.22186 8.00348C2.18455 8.05187 2.14223 8.09619 2.09561 8.1357L2.09498 8.13523L2.09424 8.96707C2.09198 9.80227 3.0708 10.482 3.60245 10.4834C4.13409 10.4849 5.12284 9.81051 5.1251 8.97527L5.12616 7.75113C5.05377 7.53953 4.94725 7.36691 4.79237 7.36691Z" fill="#FCD3C4"/>
    <path d="M5.56467 5.4813C5.56467 5.4813 5.26237 5.83677 4.90541 5.76447C4.45659 5.67377 4.12026 5.41646 3.23455 5.41408C2.57741 5.41228 1.59936 5.56474 1.37971 6.57111C1.14268 7.65732 2.09455 8.28416 2.09455 8.28416C2.17848 8.22813 2.25236 8.15836 2.31311 8.07779C2.56702 7.7483 2.65444 7.51138 2.65444 7.51138C2.9232 7.67489 3.22304 7.78067 3.53491 7.82201C4.12315 7.90517 4.37084 7.75951 4.72377 7.51091C4.98881 7.32404 5.12537 8.29248 5.12537 8.29248C5.12537 8.29248 5.6228 7.86669 5.77455 7.53623C6.34198 6.30115 5.56467 5.4813 5.56467 5.4813Z" fill="#56585E"/>
    <path d="M8.12988 9.39062V12.0667C8.12988 13.0834 9.32375 13.9076 9.97082 13.9076C10.6179 13.9076 11.8194 13.0834 11.8194 12.0667V9.39062H8.12988Z" fill="#FCD3C4"/>
    <path d="M8.12985 11.2318C8.12985 11.2318 6.96891 10.4719 7.25406 9.14898C7.51809 7.92316 8.7082 7.73438 9.50797 7.73438C10.5861 7.73438 10.9963 8.04645 11.5431 8.15543C11.9779 8.24207 12.3447 7.80852 12.3447 7.80852C12.3447 7.80852 13.2936 8.80391 12.6071 10.3092C12.4235 10.7119 11.8193 11.2319 11.8193 11.2319C11.8193 11.2319 11.6499 10.0535 11.3278 10.2818C10.8992 10.5857 10.598 10.7638 9.88164 10.6646C9.50188 10.6153 9.13653 10.4875 8.80883 10.2894C8.80883 10.2894 8.70336 10.5782 8.3952 10.9801C8.32151 11.0784 8.23179 11.1636 8.12981 11.2321" fill="#56585E"/>
    <path d="M16.5125 8.10973C15.9184 7.79297 15.7841 7.28125 15.7841 7.28125C15.7841 7.28125 15.7375 7.49828 15.2588 7.97172C15.0283 8.19973 15.0283 8.55066 15.0283 8.55066V9.18824C15.0283 9.36795 15.0637 9.54589 15.1325 9.71192C15.2012 9.87794 15.302 10.0288 15.4291 10.1559C15.5562 10.2829 15.707 10.3837 15.873 10.4525C16.0391 10.5213 16.217 10.5567 16.3967 10.5567H16.4024C16.7653 10.5567 17.1134 10.4125 17.37 10.1559C17.6266 9.89924 17.7708 9.55117 17.7708 9.18824V8.55078C17.331 8.46991 16.9065 8.32111 16.5125 8.10973Z" fill="#FCD3C4"/>
    <path d="M11.2105 2.68238C10.7049 2.18238 10.6558 1.95312 10.6558 1.95312C10.6558 1.95312 10.5139 2.49352 9.88648 2.82813C9.47036 3.05133 9.02204 3.20846 8.55762 3.29387V3.96723C8.55762 4.35055 8.70989 4.71817 8.98094 4.98922C9.25199 5.26027 9.61961 5.41254 10.0029 5.41254H10.0089C10.3922 5.41254 10.7598 5.26027 11.0309 4.98922C11.3019 4.71817 11.4542 4.35055 11.4542 3.96723V3.29387C11.4542 3.29387 11.454 2.9232 11.2105 2.68238Z" fill="#FCD3C4"/>
  </g>
  <defs>
    <clipPath id="clip0_6124_186">
      <rect width="20" height="20" fill="white"/>
    </clipPath>
  </defs>
</svg>