<svg width="16" height="17" viewBox="0 0 16 17" fill="none" xmlns="http://www.w3.org/2000/svg">
<g clip-path="url(#clip0_5529_32809)">
<path d="M2.6665 10.7657V5.83072C2.6665 4.35797 3.86041 3.16406 5.33316 3.16406C6.80591 3.16406 7.99985 4.35797 7.99985 5.83072L8.68147 8.09903L7.99985 10.7657H2.6665Z" fill="#0EC86E"/>
<path d="M13.3333 10.7657V5.83072C13.3333 4.35797 12.1394 3.16406 10.6667 3.16406C9.19394 3.16406 8 4.35797 8 5.83072V10.7657H13.3333Z" fill="#178CF2" fill-opacity="0.58"/>
<path d="M10.6668 3.16669C11.4032 3.16669 12.0002 2.56973 12.0002 1.83334C12.0002 1.09696 11.4032 0.5 10.6668 0.5C9.93046 0.5 9.3335 1.09696 9.3335 1.83334C9.3335 2.56973 9.93046 3.16669 10.6668 3.16669Z" fill="#F6B68E"/>
<path d="M15.9998 15.7032V10.7682C15.9998 9.29547 14.8059 8.10156 13.3331 8.10156C11.8604 8.10156 10.6665 9.29547 10.6665 10.7682L9.98486 13.0365L10.6665 15.7032H15.9998V15.7032Z" fill="#57AC91"/>
<path d="M13.3333 8.10419C14.0697 8.10419 14.6667 7.50723 14.6667 6.77084C14.6667 6.03446 14.0697 5.4375 13.3333 5.4375C12.597 5.4375 12 6.03446 12 6.77084C12 7.50723 12.597 8.10419 13.3333 8.10419Z" fill="#F6B68E"/>
<path d="M5.33334 3.16669C6.06973 3.16669 6.66669 2.56973 6.66669 1.83334C6.66669 1.09696 6.06973 0.5 5.33334 0.5C4.59696 0.5 4 1.09696 4 1.83334C4 2.56973 4.59696 3.16669 5.33334 3.16669Z" fill="#FFD9B5"/>
<path d="M0 15.7032V10.7682C0 9.29547 1.19391 8.10156 2.66666 8.10156C4.13941 8.10156 5.33331 9.29547 5.33331 10.7682L6.01494 13.0365L5.33331 15.7032H0V15.7032Z" fill="#45BBE4"/>
<path d="M8.66699 6.77084L8.00034 8.10416C7.26396 8.10416 6.66699 7.50722 6.66699 6.77081C6.66699 6.03441 7.26396 5.4375 8.00034 5.4375L8.66699 6.77084Z" fill="#FFD7B0"/>
<path d="M9.33334 6.77084C9.33334 7.50722 8.73641 8.10419 8 8.10419V5.4375C8.73637 5.4375 9.33334 6.03444 9.33334 6.77084Z" fill="#F6B68E"/>
<path d="M8.00015 13.0365L5.3335 16.4999V10.7682C5.3335 9.29544 6.52737 8.10156 8.00015 8.10156L8.55243 9.43491L8.00015 13.0365Z" fill="#FF7C5C"/>
<path d="M10.6667 10.7682V16.4999L8 13.0366V8.10156C9.47278 8.10156 10.6667 9.29547 10.6667 10.7682Z" fill="#E33B37"/>
<path d="M2.66684 8.10419C3.40323 8.10419 4.00018 7.50723 4.00018 6.77084C4.00018 6.03446 3.40323 5.4375 2.66684 5.4375C1.93045 5.4375 1.3335 6.03446 1.3335 6.77084C1.3335 7.50723 1.93045 8.10419 2.66684 8.10419Z" fill="#FFD9B5"/>
<path d="M0 15.7057C0 14.233 1.19391 13.0391 2.66666 13.0391C4.13941 13.0391 5.33331 14.233 5.33331 15.7057L5.57719 16.0337L5.33334 16.5024H0V15.7057Z" fill="#FFEC27"/>
<path d="M10.6665 15.7057C10.6665 14.233 11.8604 13.0391 13.3331 13.0391C14.8059 13.0391 15.9998 14.233 15.9998 15.7057V16.5024H10.6665L10.3926 16.0337L10.6665 15.7057Z" fill="#FFB800"/>
<path d="M13.3333 13.0339C14.0697 13.0339 14.6667 12.4369 14.6667 11.7005C14.6667 10.9641 14.0697 10.3672 13.3333 10.3672C12.597 10.3672 12 10.9641 12 11.7005C12 12.4369 12.597 13.0339 13.3333 13.0339Z" fill="#F6B68E"/>
<path d="M2.66684 13.0339C3.40323 13.0339 4.00018 12.4369 4.00018 11.7005C4.00018 10.9641 3.40323 10.3672 2.66684 10.3672C1.93045 10.3672 1.3335 10.9641 1.3335 11.7005C1.3335 12.4369 1.93045 13.0339 2.66684 13.0339Z" fill="#FFD9B5"/>
<path d="M8.66699 11.7005L8.00034 13.0339C7.26396 13.0339 6.66699 12.4369 6.66699 11.7005C6.66699 10.9642 7.26393 10.3672 8.00034 10.3672L8.66699 11.7005Z" fill="#FFD7B0"/>
<path d="M9.33334 11.7005C9.33334 12.4369 8.73641 13.0338 8 13.0338V10.3672C8.73637 10.3672 9.33334 10.9641 9.33334 11.7005Z" fill="#F6B68E"/>
<path d="M8.00015 16.4946H5.3335V15.6979C5.3335 14.2251 6.52737 13.0312 8.00015 13.0312L8.55243 14.3646L8.00015 16.4946Z" fill="#45BBE4"/>
<path d="M10.6667 15.6979V16.4946H8V13.0312C9.47278 13.0312 10.6667 14.2251 10.6667 15.6979Z" fill="#3877CF"/>
</g>
<defs>
<clipPath id="clip0_5529_32809">
<rect width="16" height="16" fill="white" transform="translate(0 0.5)"/>
</clipPath>
</defs>
</svg>
