<svg width="16" height="17" viewBox="0 0 16 17" fill="none" xmlns="http://www.w3.org/2000/svg">
<g clip-path="url(#clip0_1184_2022)">
<path d="M11.461 15.5343H10.1857L8.72461 12.5977L13.5536 13.6027V14.5685L11.461 15.5343Z" fill="#A2ABB8"/>
<path d="M11.4609 15.5342H13.0706C13.3362 15.5342 13.5535 15.3169 13.5535 15.0513V14.5684H11.4609V15.5342Z" fill="#C8D2DC"/>
<path d="M12.7487 2.00391H14.5193C14.7849 2.00391 15.0022 2.22121 15.0022 2.4868V13.1202C15.0022 13.3858 14.7849 13.6031 14.5193 13.6031H6.31005C6.04445 13.6031 5.82715 13.3858 5.82715 13.1202V9.67554L12.7487 2.00391Z" fill="#E9EDF1"/>
<path d="M6.31005 2.00391H12.5877V10.9365C12.5877 11.2021 12.3704 11.4194 12.1048 11.4194H10.8171V13.6031H9.85129L5.82715 2.4868C5.82715 2.22121 6.04445 2.00391 6.31005 2.00391Z" fill="#C8D2DC"/>
<path d="M13.5534 11.8481H10.1731C10.0397 11.8481 9.93164 11.7401 9.93164 11.6067C9.93164 11.4733 10.0397 11.3652 10.1731 11.3652H13.5534C13.6867 11.3652 13.7948 11.4733 13.7948 11.6067C13.7948 11.7401 13.6867 11.8481 13.5534 11.8481Z" fill="#A2ABB8"/>
<path d="M13.5534 10.3989H10.1731C10.0397 10.3989 9.93164 10.2908 9.93164 10.1575C9.93164 10.0241 10.0397 9.91602 10.1731 9.91602H13.5534C13.6867 9.91602 13.7948 10.0241 13.7948 10.1575C13.7948 10.2908 13.6867 10.3989 13.5534 10.3989Z" fill="#A2ABB8"/>
<path d="M13.5534 8.94969H10.1731C10.0397 8.94969 9.93164 8.84162 9.93164 8.70825C9.93164 8.57487 10.0397 8.4668 10.1731 8.4668H13.5534C13.6867 8.4668 13.7948 8.57487 13.7948 8.70825C13.7948 8.84162 13.6867 8.94969 13.5534 8.94969Z" fill="#A2ABB8"/>
<path d="M13.5534 7.50048H10.1731C10.0397 7.50048 9.93164 7.3924 9.93164 7.25903C9.93164 7.12565 10.0397 7.01758 10.1731 7.01758H13.5534C13.6867 7.01758 13.7948 7.12565 13.7948 7.25903C13.7948 7.3924 13.6867 7.50048 13.5534 7.50048Z" fill="#A2ABB8"/>
<path d="M13.5534 6.05321H10.1731C10.0397 6.05321 9.93164 5.94514 9.93164 5.81176C9.93164 5.67838 10.0397 5.57031 10.1731 5.57031H13.5534C13.6867 5.57031 13.7948 5.67838 13.7948 5.81176C13.7948 5.94514 13.6867 6.05321 13.5534 6.05321Z" fill="#A2ABB8"/>
<path d="M13.5534 4.60399H10.1731C10.0397 4.60399 9.93164 4.49592 9.93164 4.36254C9.93164 4.22917 10.0397 4.12109 10.1731 4.12109H13.5534C13.6867 4.12109 13.7948 4.22917 13.7948 4.36254C13.7948 4.49592 13.6867 4.60399 13.5534 4.60399Z" fill="#A2ABB8"/>
<path d="M1.48094 3.45117C1.21535 3.45117 0.998047 3.66848 0.998047 3.93407V16.246C0.998047 16.3852 1.11191 16.4991 1.25109 16.4991H9.92006C10.0592 16.4991 10.1731 16.3852 10.1731 16.246V15.8552L1.48094 3.45117Z" fill="#FFD064"/>
<path d="M3.25158 3.45117H1.48096V15.6253C1.48096 15.7518 1.58439 15.8552 1.71082 15.8552H10.1731V10.8009L3.25158 3.45117Z" fill="#FFF0AF"/>
<path d="M9.6901 3.45117H3.25146V10.318C3.25146 10.5836 3.46877 10.8009 3.73436 10.8009H10.173V3.93407C10.173 3.66848 9.95569 3.45117 9.6901 3.45117Z" fill="#FFD064"/>
<path d="M11.6219 10.1579H4.37841C4.11281 10.1579 3.89551 9.94064 3.89551 9.67505V0.982897C3.89551 0.717304 4.11281 0.5 4.37841 0.5H11.6219C11.8875 0.5 12.1048 0.717304 12.1048 0.982897V9.67505C12.1048 9.94064 11.8875 10.1579 11.6219 10.1579Z" fill="#DCE7EF"/>
<path d="M9.04554 6.37695C8.75206 6.59062 7.24829 6.59062 6.95482 6.37695C6.44272 7.06698 4.86133 6.69135 4.86133 8.35368V9.14125C4.86133 9.16952 4.88425 9.19244 4.91252 9.19244H11.0878C11.1161 9.19244 11.139 9.16952 11.139 9.14125V8.35368C11.139 6.69135 9.5576 7.06698 9.04554 6.37695Z" fill="#78A3C4"/>
<path d="M9.04534 6.37714C8.94644 6.24386 8.88718 6.07108 8.88718 5.83594H7.11275C7.11275 6.07111 7.05349 6.24389 6.95459 6.37714C7.24806 6.5908 7.60917 6.71716 7.99997 6.71716C8.39076 6.71716 8.75187 6.5908 9.04534 6.37714Z" fill="#4980AC"/>
<path d="M9.77844 3.29987C9.77844 2.31772 8.98224 1.52148 8.00006 1.52148C7.01791 1.52148 6.22168 2.31769 6.22168 3.29987V4.29544C6.22168 5.27759 7.01788 6.07382 8.00006 6.07382C8.98224 6.07382 9.77844 5.27762 9.77844 4.29544C9.77844 4.07872 9.77844 3.51656 9.77844 3.29987Z" fill="#78A3C4"/>
</g>
<defs>
<clipPath id="clip0_1184_2022">
<rect width="16" height="16" fill="white" transform="translate(0 0.5)"/>
</clipPath>
</defs>
</svg>
