<svg width="20" height="20" viewBox="0 0 20 20" fill="none" xmlns="http://www.w3.org/2000/svg">
<path d="M4.46777 10.0908C5.64941 10.0908 6.60645 9.05078 6.60645 7.77637C6.60645 6.5166 5.6543 5.51562 4.46777 5.51562C3.2959 5.51562 2.3291 6.53125 2.33398 7.78125C2.33398 9.05566 3.29102 10.0908 4.46777 10.0908ZM10 10.0908C11.1768 10.0908 12.1338 9.05078 12.1338 7.77637C12.1338 6.5166 11.1865 5.51562 10 5.51562C8.82324 5.51562 7.86133 6.53125 7.86621 7.78125C7.86621 9.05566 8.82324 10.0908 10 10.0908ZM15.5322 10.0908C16.7139 10.0908 17.6709 9.05078 17.6709 7.77637C17.6709 6.5166 16.7188 5.51562 15.5322 5.51562C14.3604 5.51562 13.3936 6.53125 13.3984 7.78125C13.3984 9.05566 14.3555 10.0908 15.5322 10.0908ZM4.46777 9.25098C3.79395 9.25098 3.21777 8.60644 3.21777 7.78125C3.21289 6.98047 3.78418 6.36035 4.46777 6.36035C5.15625 6.36035 5.72266 6.9707 5.72266 7.77637C5.72266 8.59668 5.15137 9.25098 4.46777 9.25098ZM10 9.25098C9.32129 9.25098 8.75 8.60644 8.75 7.78125C8.74512 6.98047 9.31641 6.36035 10 6.36035C10.6885 6.36035 11.25 6.9707 11.25 7.77637C11.25 8.59668 10.6836 9.25098 10 9.25098ZM15.5322 9.25098C14.8584 9.25098 14.2822 8.60644 14.2822 7.78125C14.2773 6.98047 14.8486 6.36035 15.5322 6.36035C16.2207 6.36035 16.7871 6.9707 16.7871 7.77637C16.7871 8.59668 16.2158 9.25098 15.5322 9.25098ZM1.42578 14.6904H7.51465C8.35449 14.6904 8.75977 14.4268 8.75977 13.8555C8.75977 12.5176 7.08984 10.7207 4.46777 10.7207C1.8457 10.7207 0.175781 12.5176 0.175781 13.8555C0.175781 14.4268 0.581055 14.6904 1.42578 14.6904ZM10 10.7207C9.19922 10.7207 8.49121 10.8916 7.89062 11.165C8.14941 11.3604 8.37891 11.5752 8.56934 11.8096C8.97949 11.6631 9.46289 11.5654 10 11.5654C12.1533 11.5654 13.3643 12.9717 13.3643 13.7187C13.3643 13.8115 13.3203 13.8457 13.2031 13.8457H9.41895C9.42383 14.1484 9.37012 14.4316 9.19434 14.6904H13.042C13.8818 14.6904 14.292 14.4268 14.292 13.8555C14.292 12.5176 12.6172 10.7207 10 10.7207ZM15.5322 10.7207C14.7314 10.7207 14.0234 10.8916 13.418 11.165C13.6768 11.3604 13.9111 11.5752 14.1016 11.8145C14.5117 11.6631 14.9951 11.5654 15.5322 11.5654C17.6904 11.5654 18.9014 12.9717 18.9014 13.7187C18.9014 13.8115 18.8525 13.8457 18.7402 13.8457H14.9512C14.9512 14.1484 14.9023 14.4316 14.7217 14.6904H18.5791C19.4189 14.6904 19.8242 14.4268 19.8242 13.8555C19.8242 12.5176 18.1543 10.7207 15.5322 10.7207ZM1.25977 13.8457C1.14746 13.8457 1.10352 13.8115 1.10352 13.7187C1.10352 12.9717 2.30957 11.5654 4.46777 11.5654C6.62598 11.5654 7.83691 12.9717 7.83691 13.7187C7.83691 13.8115 7.78809 13.8457 7.67578 13.8457H1.25977Z" fill="#0A6DC2"/>
</svg>
