<svg width="24" height="24" viewBox="0 0 24 24" fill="none" xmlns="http://www.w3.org/2000/svg">
<path d="M12 24C18.6274 24 24 18.6274 24 12C24 5.37258 18.6274 0 12 0C5.37258 0 0 5.37258 0 12C0 18.6274 5.37258 24 12 24Z" fill="#F89C11"/>
<path d="M10.1292 6.75138C9.92851 7.0517 9.80378 7.39485 9.76392 7.75141H7.59047C7.63215 7.01971 7.85539 6.30844 8.24174 5.68258C8.67198 4.98562 9.28756 4.42203 10.0197 4.05479C10.7518 3.68754 11.5716 3.53111 12.3875 3.60297C13.2034 3.67484 13.9833 3.97217 14.6399 4.46173C15.2966 4.9513 15.8041 5.61382 16.1059 6.37526C16.4077 7.13669 16.4918 7.96705 16.3488 8.77354C16.2059 9.58003 15.8415 10.3309 15.2963 10.9422C14.7512 11.5535 14.0468 12.0011 13.2619 12.2352L13.0833 12.2884V12.4747V15.7514H10.9167V11.3347C10.9167 11.0474 11.0308 10.7719 11.234 10.5687C11.4371 10.3655 11.7127 10.2514 12 10.2514C12.445 10.2514 12.88 10.1194 13.25 9.87222C13.62 9.62498 13.9084 9.27358 14.0787 8.86245C14.249 8.45131 14.2936 7.99891 14.2068 7.56246C14.1199 7.126 13.9056 6.72509 13.591 6.41042C13.2763 6.09575 12.8754 5.88146 12.4389 5.79464C12.0025 5.70783 11.5501 5.75238 11.1389 5.92268C10.7278 6.09298 10.3764 6.38137 10.1292 6.75138Z" fill="white" stroke="#F89C11" stroke-width="0.5"/>
<path d="M13.0833 19.3353C13.0833 19.9336 12.5983 20.4186 12 20.4186C11.4017 20.4186 10.9167 19.9336 10.9167 19.3353C10.9167 18.737 11.4017 18.252 12 18.252C12.5983 18.252 13.0833 18.737 13.0833 19.3353Z" fill="white" stroke="#F89C11" stroke-width="0.5"/>
</svg>
