<svg width="60" height="60" viewBox="0 0 60 60" fill="none" xmlns="http://www.w3.org/2000/svg">
<g clip-path="url(#clip0_3227_18173)">
<path d="M1.78995 29.3359L-0.00231928 30.0958C-0.00243646 30.55 0.17229 31.0008 0.513189 31.3404L28.7609 59.4893C29.0905 59.8179 29.6568 59.998 29.9892 59.9996C30.327 60.0011 30.9046 59.8233 31.24 59.489L59.4829 31.3224C59.8228 30.9832 59.9974 30.5336 59.9979 30.0802L58.4396 29.3361C57.5706 29.3361 49.4999 29.3361 39.6938 29.3361L29.1785 32.7304L20.2853 29.3361C11.0609 29.3359 3.37784 29.3359 1.78995 29.3359Z" fill="#58C3FC"/>
<path d="M59.9984 30.0803C59.9984 30.5332 59.8241 30.9828 59.4834 31.3221L31.2407 59.4887C30.9084 59.8211 30.3359 59.9991 29.9989 59.9991V32.4657L39.6949 29.3359H58.4407L59.9984 30.0803Z" fill="#29ABF0"/>
<path d="M20.2852 29.3359L29.9978 59.9991L39.6936 29.3359H20.2852Z" fill="#3DB5F5"/>
<path d="M39.6948 29.3359L29.9989 59.9991V29.3359H39.6948Z" fill="#009FF5"/>
<path d="M59.7032 29.1017L50.3016 15.0154C50.1715 14.8207 50.0039 14.6552 49.8109 14.5275L48.9587 14.9367L31.6241 15.0447L29.9977 14.2344L28.6833 15.063L11.3877 15.1708L10.1808 14.5292C9.9892 14.6566 9.82221 14.8215 9.69237 15.0164L0.29147 29.1203C0.09354 29.4173 -0.00231934 29.7561 -0.00231934 30.093C3.40327 30.0921 55.5992 30.0784 59.9977 30.0772C59.9979 29.7393 59.9018 29.3994 59.7032 29.1017Z" fill="#7CD2FF"/>
<path d="M59.9984 30.0775C57.8191 30.0775 43.9001 30.0822 29.9989 30.0857V14.2344L31.6258 15.0443L48.9601 14.9366L49.8121 14.5269C50.0053 14.6557 50.1726 14.8207 50.3026 15.015L59.7048 29.1012C59.9036 29.3998 59.9996 29.7392 59.9984 30.0775Z" fill="#58C3FC"/>
<path d="M11.1532 14.2344C10.8021 14.2344 10.4653 14.34 10.1813 14.529L20.5941 30.0876H20.5953L29.9972 14.2344H11.1532Z" fill="#29ABF0"/>
<path d="M39.403 30.0826L49.8099 14.5271C49.5265 14.3393 49.1907 14.2344 48.8407 14.2344H29.9965L39.3955 30.0827H39.403V30.0826Z" fill="#3DB5F5"/>
<path d="M19.499 42.3447C16.5605 42.3447 14.1698 39.9541 14.1698 37.0156C14.1698 36.0448 13.3828 35.2578 12.412 35.2578C11.4412 35.2578 10.6542 36.0448 10.6542 37.0156C10.6542 39.9393 8.27796 42.3447 5.32507 42.3447C4.35429 42.3447 3.56726 43.1318 3.56726 44.1025C3.56726 45.0733 4.35429 45.8604 5.32507 45.8604C8.26355 45.8604 10.6542 48.251 10.6542 51.1895C10.6542 52.1602 11.4412 52.9473 12.412 52.9473C13.3828 52.9473 14.1698 52.1602 14.1698 51.1895C14.1698 48.266 16.5458 45.8604 19.499 45.8604C20.4698 45.8604 21.2568 45.0733 21.2568 44.1025C21.2568 43.1318 20.4698 42.3447 19.499 42.3447Z" fill="#7CD2FF"/>
<path d="M46.4437 7.08691C43.5052 7.08691 41.1146 4.69629 41.1146 1.75781C41.1146 0.787031 40.3276 0 39.3568 0C38.386 0 37.599 0.787031 37.599 1.75781C37.599 4.69629 35.2085 7.08691 32.2699 7.08691C31.2991 7.08691 30.5121 7.87395 30.5121 8.84473C30.5121 9.81551 31.2991 10.6025 32.2699 10.6025C35.2084 10.6025 37.599 12.9932 37.599 15.9316C37.599 16.9024 38.386 17.6895 39.3568 17.6895C40.3276 17.6895 41.1146 16.9024 41.1146 15.9316C41.1146 12.9932 43.5051 10.6025 46.4437 10.6025C47.4145 10.6025 48.2015 9.81551 48.2015 8.84473C48.2015 7.87395 47.4145 7.08691 46.4437 7.08691Z" fill="#29ABF0"/>
</g>
<defs>
<clipPath id="clip0_3227_18173">
<rect width="60" height="60" fill="white"/>
</clipPath>
</defs>
</svg>
