<svg width="72" height="86" viewBox="0 0 72 86" fill="none" xmlns="http://www.w3.org/2000/svg">
<g clip-path="url(#clip0_5213_24233)">
<path d="M1.90882 45.291L-0.00292962 46.1015C-0.00305462 46.586 0.18332 47.0669 0.546945 47.4291L30.6778 77.4546C31.0294 77.8051 31.6334 77.9973 31.9881 77.9989C32.3483 78.0005 32.9644 77.8109 33.3222 77.4543L63.4479 47.4099C63.8106 47.0481 63.9968 46.5685 63.9973 46.0849L62.3351 45.2911C61.4082 45.2911 52.7994 45.2911 42.3396 45.2911L31.1233 48.9118L21.6372 45.2911C11.7978 45.291 3.60257 45.291 1.90882 45.291Z" fill="#58C3FC"/>
<path d="M63.9975 46.085C63.9975 46.5681 63.8115 47.0476 63.4482 47.4096L33.3227 77.454C32.9682 77.8085 32.3575 77.9984 31.998 77.9984V48.6294L42.3404 45.291H62.3359L63.9975 46.085Z" fill="#29ABF0"/>
<path d="M21.6367 45.291L31.9968 77.9984L42.3391 45.291H21.6367Z" fill="#3DB5F5"/>
<path d="M42.3403 45.291L31.998 77.9984V45.291H42.3403Z" fill="#009FF5"/>
<path d="M63.6829 45.044L53.6546 30.0187C53.5158 29.8109 53.3371 29.6344 53.1312 29.4982L52.2222 29.9347L33.7319 30.0499L31.9971 29.1855L30.5951 30.0694L12.1464 30.1844L10.8591 29.5C10.6547 29.6359 10.4766 29.8118 10.3381 30.0197L0.310445 45.0639C0.0993203 45.3807 -0.00292969 45.742 -0.00292969 46.1014C3.6297 46.1004 59.3053 46.0858 63.9971 46.0845C63.9973 45.7242 63.8948 45.3615 63.6829 45.044Z" fill="#7CD2FF"/>
<path d="M63.9975 46.0849C61.6729 46.0849 46.826 46.0899 31.998 46.0937V29.1855L33.7334 30.0494L52.2233 29.9345L53.1322 29.4975C53.3382 29.6349 53.5167 29.8109 53.6553 30.0182L63.6843 45.0435C63.8964 45.362 63.9988 45.724 63.9975 46.0849Z" fill="#58C3FC"/>
<path d="M11.8961 29.1855C11.5216 29.1855 11.1624 29.2982 10.8594 29.4998L21.9664 46.0957H21.9676L31.9964 29.1855H11.8961Z" fill="#29ABF0"/>
<path d="M42.0297 46.0903L53.1305 29.4978C52.8281 29.2974 52.47 29.1855 52.0966 29.1855H31.9961L42.0217 46.0904H42.0297V46.0903Z" fill="#3DB5F5"/>
<path d="M20.7986 59.1629C17.6642 59.1629 15.1141 56.6129 15.1141 53.4785C15.1141 52.443 14.2746 51.6035 13.2391 51.6035C12.2036 51.6035 11.3641 52.443 11.3641 53.4785C11.3641 56.5971 8.82944 59.1629 5.67969 59.1629C4.64419 59.1629 3.80469 60.0024 3.80469 61.0379C3.80469 62.0734 4.64419 62.9129 5.67969 62.9129C8.81406 62.9129 11.3641 65.4629 11.3641 68.5973C11.3641 69.6328 12.2036 70.4723 13.2391 70.4723C14.2746 70.4723 15.1141 69.6328 15.1141 68.5973C15.1141 65.4789 17.6484 62.9129 20.7986 62.9129C21.8341 62.9129 22.6736 62.0734 22.6736 61.0379C22.6736 60.0024 21.8341 59.1629 20.7986 59.1629Z" fill="#7CD2FF"/>
</g>
<path d="M63.6685 59.1172L60.3693 57.704L58.3579 54.7313C58.2292 54.5411 58.0014 54.4435 57.7749 54.4815L54.2353 55.0764L50.9361 53.6631C50.725 53.5727 50.4805 53.6138 50.3106 53.7681L47.6545 56.1821L44.1149 56.7768C43.8885 56.8149 43.705 56.9816 43.6456 57.2034L42.7162 60.6702L40.0601 63.0841C39.8901 63.2386 39.826 63.478 39.8959 63.6967L40.9883 67.1156L40.0588 70.5824C39.9993 70.8042 40.0748 71.0403 40.2518 71.1866L43.0193 73.4721L44.1117 76.891C44.1816 77.1098 44.3727 77.2675 44.6007 77.2949L48.1645 77.7214L50.9318 80.007C51.1089 80.1532 51.355 80.1827 51.5615 80.0823L54.7902 78.5144L58.354 78.9409C58.582 78.9683 58.8049 78.8599 58.9245 78.6639L60.793 75.5995L64.0216 74.0316C64.0728 74.0068 64.1191 73.9752 64.1599 73.9382C64.2838 73.8255 64.3559 73.6629 64.3518 73.4901L64.2668 69.9019L66.1353 66.8373C66.2549 66.6413 66.249 66.3935 66.1204 66.2033L64.1089 63.2307L64.024 59.6425C64.0184 59.413 63.8795 59.2077 63.6685 59.1172Z" fill="#EE6482"/>
<path d="M46.5163 59.8874C42.6868 63.3677 42.4027 69.3147 45.8831 73.1442C49.3634 76.9737 55.3104 77.2577 59.1398 73.7774C62.9693 70.2971 63.2534 64.3501 59.773 60.5206C56.2927 56.6911 50.3457 56.4071 46.5163 59.8874Z" fill="#DE5762"/>
<path d="M47.6994 61.192C44.588 64.0198 44.3572 68.8516 47.185 71.9631C50.0127 75.0746 54.8446 75.3053 57.9561 72.4776C61.0675 69.6498 61.2983 64.8179 58.4705 61.7065C55.6428 58.595 50.8109 58.3642 47.6994 61.192Z" fill="#F1839B"/>
<path d="M50.6652 71.762C50.2058 71.9037 49.7931 71.4032 50.0169 70.9797L54.667 62.1788C54.809 61.9102 55.1416 61.8076 55.4101 61.9494C55.6786 62.0913 55.7813 62.424 55.6394 62.6925L50.9893 71.4934C50.9183 71.6276 50.7997 71.7205 50.6652 71.762Z" fill="white"/>
<path d="M56.8314 69.8569C55.9236 70.1371 54.9571 69.6264 54.677 68.7186C54.3968 67.8108 54.9075 66.8444 55.8153 66.5642C56.7231 66.2841 57.6896 66.7947 57.9697 67.7025C58.2498 68.6104 57.7392 69.5768 56.8314 69.8569ZM56.1396 67.6151C55.8112 67.7164 55.6265 68.066 55.7278 68.3943C55.8292 68.7227 56.1787 68.9074 56.5071 68.8061C56.8355 68.7047 57.0202 68.3552 56.9188 68.0268C56.8175 67.6985 56.4679 67.5138 56.1396 67.6151Z" fill="white"/>
<path d="M49.8431 67.103C48.9353 67.3832 47.9688 66.8725 47.6887 65.9647C47.4086 65.0569 47.9192 64.0905 48.827 63.8103C49.7348 63.5302 50.7013 64.0408 50.9814 64.9486C51.2615 65.8564 50.7509 66.8229 49.8431 67.103ZM49.1513 64.8612C48.8229 64.9625 48.6382 65.3121 48.7396 65.6404C48.8409 65.9688 49.1905 66.1535 49.5188 66.0522C49.8472 65.9508 50.0319 65.6013 49.9305 65.2729C49.8292 64.9446 49.4797 64.7599 49.1513 64.8612Z" fill="white"/>
<path d="M49.0851 13.0566V27.9816C49.0851 28.6807 48.6674 29.312 48.0231 29.5839C43.3888 31.5456 38.2458 33.3288 32.5928 34.9334C32.4376 34.9766 32.2765 34.9988 32.1167 34.9988C31.9568 34.9988 31.7957 34.9766 31.6405 34.9334C25.9875 33.3288 20.8445 31.5456 16.2102 29.5839C15.5672 29.312 15.1494 28.6806 15.1494 27.9816V13.5853L32.1167 13.3216L49.0851 13.0566Z" fill="#365E7D"/>
<path d="M32.1167 13.3203V34.9976C31.9568 34.9976 31.7957 34.9754 31.6405 34.9322C25.9875 33.3276 20.8445 31.5444 16.2102 29.5827C15.5672 29.3108 15.1494 28.6794 15.1494 27.9804V13.584L32.1167 13.3203Z" fill="#2B4D66"/>
<path d="M49.085 13.6406V19.9296C44.2104 21.6276 39.1001 23.2428 33.7552 24.7751C32.608 25.1041 31.3896 25.1041 30.2424 24.7751C24.9838 23.2673 19.9528 21.6802 15.1494 20.0124V14.1692L49.085 13.6406Z" fill="#2B4D66"/>
<path d="M59.3603 8.93111C51.5282 5.79036 42.9934 2.89553 33.7559 0.246645C32.6089 -0.0822148 31.3908 -0.0822148 30.2438 0.246645C21.0065 2.89553 12.4717 5.79036 4.63953 8.93111C2.45295 9.80792 2.7263 12.6283 4.91288 13.5051C12.745 16.6459 21.0065 19.2234 30.244 21.8722C31.391 22.201 32.6091 22.7918 33.7561 22.4628C42.9936 19.8139 51.5283 16.9192 59.3606 13.7784C61.5469 12.9017 61.5469 9.80803 59.3603 8.93111Z" fill="#365E7D"/>
<path d="M34.376 22.2445C34.4017 22.2515 34.4262 22.2585 34.4519 22.2655C34.2208 22.3319 33.9886 22.3984 33.7564 22.4651C32.6093 22.7941 31.3908 22.7941 30.2437 22.4651C21.0067 19.8159 12.4712 16.9217 4.63934 13.7813C2.45355 12.9037 2.45355 9.80992 4.63934 8.93345C4.82252 8.85993 5.00581 8.78641 5.19023 8.71289C4.03249 9.96625 4.35342 12.1848 6.15064 12.9048C13.9824 16.0465 25.1391 19.5954 34.376 22.2445Z" fill="#2B4D66"/>
<path d="M46.0469 36.057C45.5634 36.057 45.1717 35.6651 45.1717 35.1817V18.5975L31.6231 12.1442C31.1867 11.9364 31.0014 11.4141 31.2093 10.9777C31.4173 10.5412 31.9396 10.3559 32.376 10.5638L46.4234 17.2548C46.7281 17.3999 46.9221 17.7073 46.9221 18.0449V35.1816C46.9221 35.665 46.5303 36.057 46.0469 36.057Z" fill="#F6E781"/>
<path d="M46.048 34.5977C44.2892 34.5977 42.8633 36.0235 42.8633 37.7823V43.9296H49.2326V37.7823C49.2328 36.0235 47.8069 34.5977 46.048 34.5977Z" fill="#F6E781"/>
<path d="M47.0865 34.772C45.838 35.2017 44.9414 36.3878 44.9414 37.7811V43.9284H42.8633V37.7811C42.8633 36.0235 44.2893 34.5977 46.0467 34.5977C46.4109 34.5978 46.7612 34.6584 47.0865 34.772Z" fill="#F1CB86"/>
<defs>
<clipPath id="clip0_5213_24233">
<rect width="64" height="64" fill="white" transform="translate(0 14)"/>
</clipPath>
</defs>
</svg>
