<svg width="16" height="17" viewBox="0 0 16 17" fill="none" xmlns="http://www.w3.org/2000/svg">
<path d="M7.99244 16.4933C12.2639 16.4933 15.7896 12.9676 15.7896 8.70368C15.7896 4.43973 12.2564 0.914062 7.98491 0.914062C3.72096 0.914062 0.20282 4.43973 0.20282 8.70368C0.20282 12.9676 3.72849 16.4933 7.99244 16.4933ZM7.81164 10.2556C7.32196 10.2556 7.05075 10.0296 7.05075 9.57757V9.4947C7.05075 8.78655 7.45756 8.38728 8.01504 7.99554C8.67799 7.53599 9.00193 7.28739 9.00193 6.80525C9.00193 6.28544 8.60265 5.9389 7.98491 5.9389C7.5329 5.9389 7.20142 6.1649 6.95282 6.54911C6.71175 6.82031 6.59875 7.05385 6.14674 7.05385C5.7776 7.05385 5.47626 6.81278 5.47626 6.4361C5.47626 6.28544 5.50639 6.14983 5.55912 6.01423C5.80773 5.27595 6.71175 4.67327 8.06024 4.67327C9.46147 4.67327 10.6442 5.41909 10.6442 6.72991C10.6442 7.63393 10.147 8.08594 9.36353 8.59068C8.86632 8.91462 8.58005 9.18583 8.55745 9.59263C8.55745 9.61523 8.54992 9.6529 8.54992 9.68304C8.52732 10.007 8.24858 10.2556 7.81164 10.2556ZM7.8041 12.6663C7.29183 12.6663 6.86995 12.2972 6.86995 11.7999C6.86995 11.3027 7.28429 10.9336 7.8041 10.9336C8.31638 10.9336 8.73072 11.3027 8.73072 11.7999C8.73072 12.3047 8.30885 12.6663 7.8041 12.6663Z" fill="#4A98F6"/>
</svg>
