<svg width="20" height="20" viewBox="0 0 20 20" fill="none" xmlns="http://www.w3.org/2000/svg">
<path d="M16.7035 9.99805V9.39805H16.1035H13.0518C12.3722 9.39805 11.8207 8.84652 11.8207 8.16699V3.28418C11.8207 2.60465 12.3722 2.05313 13.0518 2.05313H17.9346C18.6141 2.05313 19.1656 2.60465 19.1656 3.28418V12.4395C19.1656 15.4803 16.7029 17.943 13.6621 17.943H13.357C13.181 17.943 13.0414 17.8035 13.0414 17.6275V15.7964C13.0414 15.6204 13.181 15.4809 13.357 15.4809H13.6621C15.3401 15.4809 16.7035 14.1174 16.7035 12.4395V9.99805Z" stroke="#2AA3EF" stroke-width="1.2"/>
<path d="M5.71719 9.99805V9.39805H5.11719H2.06543C1.3859 9.39805 0.834375 8.84652 0.834375 8.16699V3.28418C0.834375 2.60465 1.3859 2.05313 2.06543 2.05313H6.94824C7.62777 2.05313 8.1793 2.60465 8.1793 3.28418V12.4395C8.1793 15.4803 5.7166 17.943 2.67578 17.943H2.37063C2.19463 17.943 2.05508 17.8035 2.05508 17.6275V15.7964C2.05508 15.6204 2.19464 15.4809 2.37063 15.4809H2.67578C4.35375 15.4809 5.71719 14.1174 5.71719 12.4395V9.99805Z" stroke="#2AA3EF" stroke-width="1.2"/>
</svg>
