<svg width="16" height="16" viewBox="0 0 16 16" fill="none" xmlns="http://www.w3.org/2000/svg">
<path d="M3.29999 10.1198C2.97 10.9498 2.45001 11.7698 1.75501 12.5598C1.535 12.8098 1.505 13.1698 1.685 13.4498C1.82501 13.6698 2.055 13.7898 2.305 13.7898C2.375 13.7898 2.44501 13.7848 2.51501 13.7598C3.98498 13.3298 7.42002 11.8048 7.51502 6.9148C7.54999 5.02982 6.17001 3.40983 4.375 3.22483C3.38 3.12483 2.39001 3.44981 1.655 4.10981C0.920015 4.77482 0.5 5.72483 0.5 6.71482C0.5 8.36481 1.67001 9.80982 3.29999 10.1198Z" fill="#F88F19"/>
<path d="M12.355 3.22483C11.365 3.12482 10.375 3.44981 9.64001 4.10981C8.905 4.77482 8.48499 5.72483 8.48499 6.71482C8.48499 8.36482 9.655 9.80982 11.285 10.1198C10.955 10.9498 10.435 11.7698 9.73999 12.5598C9.51999 12.8098 9.48999 13.1698 9.67002 13.4498C9.81 13.6698 10.04 13.7898 10.29 13.7898C10.36 13.7898 10.43 13.7848 10.5 13.7598C11.97 13.3298 15.405 11.8048 15.5 6.9148V6.84483C15.5 4.98982 14.135 3.40983 12.355 3.22483Z" fill="#F88F19"/>
</svg>
