<svg xmlns="http://www.w3.org/2000/svg" width="20" height="20" viewBox="0 0 20 20" fill="none">
  <g clip-path="url(#clip0_6124_295)">
    <path fill-rule="evenodd" clip-rule="evenodd" d="M3.23308 2.28906H13.9224C14.52 2.28906 15.0072 2.79336 15.0072 3.41262V17.9041C15.0072 18.5234 14.52 19.0277 13.9224 19.0277H3.23308C2.63429 19.0277 2.14819 18.5234 2.14819 17.9041V3.41262C2.14819 2.79336 2.63429 2.28906 3.23308 2.28906Z" fill="#60B7FF"/>
    <path fill-rule="evenodd" clip-rule="evenodd" d="M3.44152 3.91406V17.3923C3.44192 17.4815 3.47757 17.5669 3.54071 17.6298C3.60384 17.6928 3.68932 17.7282 3.77848 17.7283H13.3771C13.4661 17.728 13.5514 17.6925 13.6143 17.6295C13.6772 17.5666 13.7127 17.4813 13.713 17.3923V3.91406C13.7127 3.82506 13.6772 3.7398 13.6143 3.67687C13.5514 3.61394 13.4661 3.57844 13.3771 3.57812H3.77836C3.68921 3.57825 3.60373 3.61365 3.54059 3.67659C3.47746 3.73954 3.4418 3.82491 3.44141 3.91406H3.44152Z" fill="#EAF6FF"/>
    <path fill-rule="evenodd" clip-rule="evenodd" d="M6.67645 1.32277H7.25457C7.25457 0.971952 7.39393 0.635499 7.642 0.387431C7.89007 0.139363 8.22652 0 8.57734 0C8.92817 0 9.26462 0.139363 9.51269 0.387431C9.76075 0.635499 9.90012 0.971952 9.90012 1.32277H10.4773C10.7623 1.32371 11.0354 1.43735 11.2369 1.6389C11.4385 1.84044 11.5521 2.11353 11.553 2.39855V4.35996C11.5529 4.44902 11.5175 4.53438 11.4545 4.59736C11.3915 4.66033 11.3062 4.69576 11.2171 4.6959H5.93652C5.84753 4.69557 5.76227 4.66007 5.69934 4.59714C5.63641 4.53421 5.60092 4.44896 5.60059 4.35996V2.39844C5.60151 2.11341 5.71515 1.84033 5.91668 1.63878C6.11822 1.43724 6.39131 1.32359 6.67633 1.32266L6.67645 1.32277Z" fill="#685E68"/>
    <path d="M8.58223 0.953125C8.61916 0.953125 8.65573 0.9604 8.68986 0.974534C8.72398 0.988668 8.75498 1.00938 8.7811 1.0355C8.80722 1.06162 8.82793 1.09262 8.84207 1.12675C8.8562 1.16087 8.86348 1.19744 8.86348 1.23438C8.86348 1.27131 8.8562 1.30788 8.84207 1.342C8.82793 1.37613 8.80722 1.40713 8.7811 1.43325C8.75498 1.45937 8.72398 1.48008 8.68986 1.49422C8.65573 1.50835 8.61916 1.51563 8.58223 1.51563H8.57199C8.4974 1.51563 8.42586 1.48599 8.37312 1.43325C8.32037 1.3805 8.29074 1.30897 8.29074 1.23438C8.29074 1.15978 8.32037 1.08825 8.37312 1.0355C8.42586 0.982757 8.4974 0.953125 8.57199 0.953125H8.58223ZM6.69824 3.86164C6.62365 3.86164 6.55211 3.83201 6.49937 3.77926C6.44662 3.72652 6.41699 3.65498 6.41699 3.58039C6.41699 3.5058 6.44662 3.43426 6.49937 3.38152C6.55211 3.32877 6.62365 3.29914 6.69824 3.29914H10.4561C10.5306 3.29914 10.6022 3.32877 10.6549 3.38152C10.7077 3.43426 10.7373 3.5058 10.7373 3.58039C10.7373 3.65498 10.7077 3.72652 10.6549 3.77926C10.6022 3.83201 10.5306 3.86164 10.4561 3.86164H6.69824Z" fill="#EAF6FF"/>
    <path fill-rule="evenodd" clip-rule="evenodd" d="M17.8521 16.507C17.8522 17.1977 17.6475 17.8729 17.2638 18.4473C16.8801 19.0216 16.3348 19.4693 15.6967 19.7336C15.0586 19.998 14.3564 20.0672 13.679 19.9325C13.0016 19.7977 12.3793 19.4651 11.8909 18.9767C11.4025 18.4884 11.0699 17.8661 10.9352 17.1887C10.8005 16.5112 10.8697 15.8091 11.1341 15.171C11.3985 14.5329 11.8461 13.9875 12.4205 13.6039C12.9948 13.2202 13.67 13.0155 14.3607 13.0156C15.2866 13.0158 16.1745 13.3838 16.8292 14.0385C17.484 14.6932 17.8519 15.5811 17.8521 16.507Z" fill="#3BB54A"/>
    <path d="M12.3957 16.852C12.3428 16.7993 12.3131 16.7278 12.313 16.6532C12.3129 16.5786 12.3424 16.507 12.3951 16.4541C12.4478 16.4013 12.5193 16.3716 12.5939 16.3715C12.6685 16.3713 12.7401 16.4009 12.793 16.4536L13.6741 17.3347L15.9269 15.0819C15.9796 15.0294 16.051 14.9999 16.1254 15C16.1998 15.0001 16.2711 15.0297 16.3238 15.0823C16.3764 15.1349 16.406 15.2062 16.406 15.2806C16.4061 15.355 16.3767 15.4264 16.3242 15.4792L13.8722 17.9312C13.8194 17.9837 13.7479 18.0131 13.6735 18.0131C13.5991 18.0131 13.5276 17.9837 13.4749 17.9312L12.3957 16.852Z" fill="#EAF6FF"/>
    <path fill-rule="evenodd" clip-rule="evenodd" d="M11.484 5.78125H10.5801C10.5481 5.78127 10.5175 5.79399 10.4948 5.81661C10.4722 5.83924 10.4595 5.86992 10.4595 5.90191V9.92262C10.4597 9.95456 10.4725 9.98514 10.495 10.0077C10.5176 10.0303 10.5482 10.0431 10.5801 10.0433H11.484C11.5159 10.0431 11.5465 10.0303 11.5691 10.0077C11.5917 9.98514 11.6045 9.95456 11.6047 9.92262V5.90191C11.6046 5.86992 11.5919 5.83924 11.5693 5.81661C11.5467 5.79399 11.516 5.78127 11.484 5.78125Z" fill="#35A343"/>
    <path fill-rule="evenodd" clip-rule="evenodd" d="M9.02941 6.6875H8.12559C8.09364 6.6877 8.06307 6.70048 8.04048 6.72307C8.01789 6.74565 8.0051 6.77622 8.00488 6.80816V9.92613C8.00509 9.95808 8.01787 9.98866 8.04046 10.0113C8.06305 10.0338 8.09364 10.0466 8.12559 10.0468H9.02941C9.06124 10.0466 9.09167 10.0337 9.11406 10.0111C9.13646 9.98851 9.149 9.95796 9.14895 9.92613V6.80816C9.14899 6.77635 9.13644 6.7458 9.11405 6.72319C9.09166 6.70059 9.06123 6.68776 9.02941 6.6875Z" fill="#CF3A45"/>
    <path fill-rule="evenodd" clip-rule="evenodd" d="M6.57422 7.58594H5.67031C5.63849 7.5862 5.60807 7.59903 5.58568 7.62163C5.56328 7.64424 5.55074 7.67478 5.55078 7.7066V9.9207C5.55073 9.95253 5.56327 9.98308 5.58566 10.0057C5.60806 10.0283 5.63849 10.0411 5.67031 10.0414H6.57422C6.60616 10.0412 6.63673 10.0284 6.6593 10.0058C6.68188 9.98322 6.69465 9.95264 6.69484 9.9207V7.70676C6.69468 7.6748 6.68192 7.64419 6.65934 7.62158C6.63676 7.59896 6.60618 7.58615 6.57422 7.58594Z" fill="#E6A82E"/>
    <path d="M5.55054 11.7031C5.47595 11.7031 5.40441 11.6735 5.35166 11.6207C5.29892 11.568 5.26929 11.4965 5.26929 11.4219C5.26929 11.3473 5.29892 11.2757 5.35166 11.223C5.40441 11.1703 5.47595 11.1406 5.55054 11.1406H11.6043C11.6789 11.1406 11.7504 11.1703 11.8032 11.223C11.8559 11.2757 11.8855 11.3473 11.8855 11.4219C11.8855 11.4965 11.8559 11.568 11.8032 11.6207C11.7504 11.6735 11.6789 11.7031 11.6043 11.7031H5.55054ZM5.55054 15.8138C5.47595 15.8138 5.40441 15.7842 5.35166 15.7314C5.29892 15.6787 5.26929 15.6071 5.26929 15.5325C5.26929 15.4579 5.29892 15.3864 5.35166 15.3337C5.40441 15.2809 5.47595 15.2513 5.55054 15.2513H9.49976C9.57435 15.2513 9.64589 15.2809 9.69863 15.3337C9.75137 15.3864 9.78101 15.4579 9.78101 15.5325C9.78101 15.6071 9.75137 15.6787 9.69863 15.7314C9.64589 15.7842 9.57435 15.8138 9.49976 15.8138H5.55054ZM5.55054 14.4432C5.51341 14.4436 5.47656 14.4367 5.44213 14.4228C5.40771 14.4089 5.37638 14.3883 5.34997 14.3622C5.32356 14.3361 5.30259 14.305 5.28828 14.2707C5.27397 14.2365 5.2666 14.1997 5.2666 14.1626C5.2666 14.1254 5.27397 14.0887 5.28828 14.0544C5.30259 14.0201 5.32356 13.9891 5.34997 13.963C5.37638 13.9369 5.40771 13.9163 5.44213 13.9024C5.47656 13.8884 5.51341 13.8815 5.55054 13.882H9.49976C9.53688 13.8815 9.57373 13.8884 9.60816 13.9024C9.64259 13.9163 9.67392 13.9369 9.70033 13.963C9.72674 13.9891 9.7477 14.0201 9.76201 14.0544C9.77632 14.0887 9.78369 14.1254 9.78369 14.1626C9.78369 14.1997 9.77632 14.2365 9.76201 14.2707C9.7477 14.305 9.72674 14.3361 9.70033 14.3622C9.67392 14.3883 9.64259 14.4089 9.60816 14.4228C9.57373 14.4367 9.53688 14.4436 9.49976 14.4432H5.55054ZM5.55054 13.0737C5.47595 13.0737 5.40441 13.0441 5.35166 12.9913C5.29892 12.9386 5.26929 12.8671 5.26929 12.7925C5.26929 12.7179 5.29892 12.6463 5.35166 12.5936C5.40441 12.5408 5.47595 12.5112 5.55054 12.5112H11.6043C11.6789 12.5112 11.7504 12.5408 11.8032 12.5936C11.8559 12.6463 11.8855 12.7179 11.8855 12.7925C11.8855 12.8671 11.8559 12.9386 11.8032 12.9913C11.7504 13.0441 11.6789 13.0737 11.6043 13.0737H5.55054Z" fill="#D3DDE6"/>
    <path fill-rule="evenodd" clip-rule="evenodd" d="M6.26908 2.28926C6.29709 2.02465 6.42178 1.77969 6.61925 1.60133C6.81672 1.42298 7.07307 1.32379 7.33916 1.32278H7.91728C7.91733 1.02961 8.01474 0.744751 8.19424 0.51295C8.37373 0.28115 8.62514 0.115534 8.90897 0.0421133C8.71347 -0.00843002 8.509 -0.0135503 8.31122 0.0271447C8.11344 0.0678397 7.9276 0.15327 7.76794 0.276889C7.60828 0.400509 7.47904 0.559037 7.39012 0.740326C7.3012 0.921615 7.25496 1.12085 7.25494 1.32278H6.67682C6.41068 1.32361 6.15424 1.42274 5.95674 1.60113C5.75923 1.77952 5.6346 2.02458 5.60678 2.28926C5.60334 2.32567 5.60107 2.36211 5.60107 2.39864V4.36004C5.6014 4.44904 5.6369 4.53429 5.69983 4.59722C5.76276 4.66015 5.84802 4.69565 5.93701 4.69598H6.60068C6.51153 4.69586 6.42605 4.66046 6.36292 4.59751C6.29978 4.53457 6.26412 4.44919 6.26373 4.36004V2.39844C6.26373 2.362 6.266 2.32555 6.26939 2.28907L6.26908 2.28926Z" fill="#5E555E"/>
    <path fill-rule="evenodd" clip-rule="evenodd" d="M4.07522 17.728V3.57812H3.77812C3.68896 3.57825 3.60348 3.61365 3.54035 3.67659C3.47721 3.73954 3.44155 3.82491 3.44116 3.91406V17.3922C3.44155 17.4814 3.47721 17.5668 3.54035 17.6297C3.60348 17.6926 3.68896 17.728 3.77812 17.7282L4.07522 17.728Z" fill="#D3DDE6"/>
    <path fill-rule="evenodd" clip-rule="evenodd" d="M3.44151 17.3975V3.91922C3.44191 3.83007 3.47756 3.74469 3.5407 3.68175C3.60383 3.6188 3.68931 3.5834 3.77847 3.58328H4.07558V2.28906H3.23308C2.63429 2.28906 2.14819 2.79336 2.14819 3.41262V17.9041C2.14819 18.5234 2.63429 19.0277 3.23308 19.0277H4.07546V17.7333H3.77835C3.6892 17.7332 3.60372 17.6978 3.54058 17.6349C3.47745 17.5719 3.44179 17.4865 3.4414 17.3974L3.44151 17.3975Z" fill="#56A5E6"/>
    <path fill-rule="evenodd" clip-rule="evenodd" d="M10.7498 5.78125V10.0433H11.4841C11.5161 10.0431 11.5466 10.0303 11.5692 10.0077C11.5918 9.98514 11.6046 9.95456 11.6048 9.92262V5.90191C11.6048 5.86992 11.5921 5.83924 11.5694 5.81661C11.5468 5.79399 11.5161 5.78127 11.4841 5.78125H10.7498Z" fill="#3BB54A"/>
    <path fill-rule="evenodd" clip-rule="evenodd" d="M8.29565 6.6875V10.0469H9.03003C9.06185 10.0466 9.09228 10.0338 9.11468 10.0112C9.13707 9.98855 9.14961 9.958 9.14956 9.92617V6.8082C9.1496 6.77638 9.13706 6.74584 9.11467 6.72323C9.09227 6.70063 9.06185 6.6878 9.03003 6.68754L8.29565 6.6875Z" fill="#E6404D"/>
    <path fill-rule="evenodd" clip-rule="evenodd" d="M5.85352 7.58594C5.84434 7.60226 5.83963 7.62072 5.83985 7.63945V10.0414H6.57423C6.60617 10.0412 6.63673 10.0284 6.65931 10.0058C6.68189 9.98322 6.69466 9.95264 6.69485 9.9207V7.70676C6.69469 7.6748 6.68193 7.64419 6.65935 7.62158C6.63677 7.59896 6.60619 7.58615 6.57423 7.58594H5.85352Z" fill="#FFBB33"/>
    <path fill-rule="evenodd" clip-rule="evenodd" d="M11.8029 16.507C11.8028 15.6618 12.1092 14.8452 12.6655 14.2088C13.2217 13.5724 13.9899 13.1593 14.8276 13.0464C14.6729 13.0258 14.5169 13.0155 14.3609 13.0156C13.9023 13.0156 13.4482 13.1059 13.0245 13.2814C12.6009 13.4569 12.2159 13.7141 11.8917 14.0384C11.5674 14.3627 11.3102 14.7476 11.1347 15.1713C10.9592 15.5949 10.8689 16.049 10.8689 16.5076C10.8689 16.9661 10.9592 17.4202 11.1347 17.8439C11.3102 18.2676 11.5674 18.6525 11.8917 18.9768C12.2159 19.301 12.6009 19.5582 13.0245 19.7337C13.4482 19.9092 13.9023 19.9995 14.3609 19.9995C14.517 19.9993 14.6729 19.9887 14.8276 19.9677C13.9895 19.8556 13.2207 19.4429 12.6643 18.8063C12.1079 18.1697 11.8017 17.3525 11.8029 16.507Z" fill="#35A343"/>
  </g>
  <defs>
    <clipPath id="clip0_6124_295">
      <rect width="20" height="20" fill="white"/>
    </clipPath>
  </defs>
</svg>