<svg width="20" height="20" viewBox="0 0 20 20" fill="none" xmlns="http://www.w3.org/2000/svg">
<path d="M5.58333 17.2475H15.0833C15.9823 17.2475 16.7142 16.5156 16.7142 15.6167V3.58333C16.7142 2.68437 15.9823 1.9525 15.0833 1.9525H5.58333C4.68437 1.9525 3.9525 2.68437 3.9525 3.58333V15.6167C3.9525 16.5156 4.68437 17.2475 5.58333 17.2475ZM4.68083 3.58333C4.68083 3.0858 5.0858 2.68083 5.58333 2.68083H15.0833C15.5809 2.68083 15.9858 3.0858 15.9858 3.58333V15.6167C15.9858 16.1142 15.5809 16.5192 15.0833 16.5192H5.58333C5.0858 16.5192 4.68083 16.1142 4.68083 15.6167V3.58333Z" fill="#0A6DC2" stroke="#0A6DC2" stroke-width="0.095"/>
<path d="M6.85002 7.12042H13.8167C14.3667 7.12042 14.8142 6.67292 14.8142 6.12292V4.85625C14.8142 4.30625 14.3667 3.85875 13.8167 3.85875H6.85002C6.30002 3.85875 5.85252 4.30625 5.85252 4.85625V6.12292C5.85252 6.67292 6.30002 7.12042 6.85002 7.12042ZM6.58086 4.85625C6.58086 4.70768 6.70146 4.58708 6.85002 4.58708H13.8167C13.9653 4.58708 14.0859 4.70768 14.0859 4.85625V6.12292C14.0859 6.27148 13.9653 6.39208 13.8167 6.39208H6.85002C6.70146 6.39208 6.58086 6.27148 6.58086 6.12292V4.85625Z" fill="#0A6DC2" stroke="#0A6DC2" stroke-width="0.095"/>
<path d="M7.43565 10.5526C7.43565 10.7536 7.59879 10.9168 7.79982 10.9168C8.00085 10.9168 8.16399 10.7536 8.16399 10.5526V8.6526C8.16399 8.45157 8.00085 8.28844 7.79982 8.28844C7.59879 8.28844 7.43565 8.45157 7.43565 8.6526V10.5526Z" fill="#0A6DC2" stroke="#0A6DC2" stroke-width="0.095"/>
<path d="M6.84987 9.9699H8.74987C8.9509 9.9699 9.11404 9.80676 9.11404 9.60573C9.11404 9.4047 8.9509 9.24156 8.74987 9.24156H6.84987C6.64884 9.24156 6.4857 9.4047 6.4857 9.60573C6.4857 9.80676 6.64884 9.9699 6.84987 9.9699Z" fill="#0A6DC2" stroke="#0A6DC2" stroke-width="0.095"/>
<path d="M11.9166 9.9699H13.8166C14.0177 9.9699 14.1808 9.80676 14.1808 9.60573C14.1808 9.4047 14.0177 9.24156 13.8166 9.24156H11.9166C11.7156 9.24156 11.5525 9.4047 11.5525 9.60573C11.5525 9.80676 11.7156 9.9699 11.9166 9.9699Z" fill="#0A6DC2" stroke="#0A6DC2" stroke-width="0.095"/>
<path d="M11.9166 12.8215H13.8166C14.0177 12.8215 14.1808 12.6583 14.1808 12.4573C14.1808 12.2563 14.0177 12.0931 13.8166 12.0931H11.9166C11.7156 12.0931 11.5525 12.2563 11.5525 12.4573C11.5525 12.6583 11.7156 12.8215 11.9166 12.8215Z" fill="#0A6DC2" stroke="#0A6DC2" stroke-width="0.095"/>
<path d="M11.9166 14.7199H13.8166C14.0177 14.7199 14.1808 14.5568 14.1808 14.3557C14.1808 14.1547 14.0177 13.9916 13.8166 13.9916H11.9166C11.7156 13.9916 11.5525 14.1547 11.5525 14.3557C11.5525 14.5568 11.7156 14.7199 11.9166 14.7199Z" fill="#0A6DC2" stroke="#0A6DC2" stroke-width="0.095"/>
<path d="M6.59224 14.6146L6.59241 14.6148C6.66365 14.6853 6.75684 14.721 6.85003 14.721C6.94317 14.721 7.03648 14.6853 7.10718 14.6146L9.00718 12.7146C9.14923 12.5726 9.14923 12.3417 9.00718 12.1997C8.86513 12.0576 8.63429 12.0576 8.49224 12.1997L6.59224 14.0997C6.45019 14.2417 6.45019 14.4726 6.59224 14.6146Z" fill="#0A6DC2" stroke="#0A6DC2" stroke-width="0.095"/>
<path d="M8.49224 14.6146L8.49241 14.6148C8.56365 14.6853 8.65684 14.721 8.75003 14.721C8.84317 14.721 8.93648 14.6853 9.00718 14.6146C9.14923 14.4726 9.14923 14.2417 9.00718 14.0997L7.10718 12.1997C6.96513 12.0576 6.73429 12.0576 6.59224 12.1997C6.45019 12.3417 6.45019 12.5726 6.59224 12.7146L8.49224 14.6146Z" fill="#0A6DC2" stroke="#0A6DC2" stroke-width="0.095"/>
</svg>
