<svg xmlns="http://www.w3.org/2000/svg" width="20" height="20" viewBox="0 0 20 20" fill="none">
  <g clip-path="url(#clip0_6124_213)">
    <path d="M4.59912 13.7656L6.23561 15.4021L4.29453 17.3432L2.65804 15.7067L4.59912 13.7656Z" fill="#EAF6FF"/>
    <path d="M6.23481 15.4083L4.29356 17.3496L3.7334 16.7894L5.67022 14.8438L6.23481 15.4083Z" fill="#C8EFFE"/>
    <path d="M1.9631 15.2993L0.326597 16.9358C0.124384 17.138 0.0107422 17.4123 0.0107422 17.6983V19.5244C0.0107422 19.7846 0.221688 19.9956 0.481929 19.9956H2.30805C2.59404 19.9956 2.86833 19.882 3.07054 19.6797L4.70704 18.0432C4.91855 17.8317 4.91855 17.4888 4.70704 17.2773L2.72897 15.2992C2.5175 15.0878 2.17457 15.0878 1.9631 15.2993Z" fill="#8EBAC5"/>
    <path d="M4.70714 18.0431L3.07088 19.6797C2.86863 19.882 2.59434 19.9957 2.30831 19.9957H1.21313C1.54509 19.9398 1.85132 19.7818 2.08931 19.5437L3.58963 18.0431C3.8013 17.8315 3.8013 17.4886 3.58963 17.2773L1.78762 15.4749L1.96307 15.2991C2.17474 15.0878 2.5176 15.0878 2.72927 15.2991L4.70714 17.2773C4.91881 17.4886 4.91881 17.8315 4.70714 18.0431Z" fill="#7CA1B1"/>
    <path d="M0.892231 1.77079C0.40539 1.77079 0.0107422 1.37614 0.0107422 0.889301C0.0107422 0.40246 0.40539 0.0078125 0.892231 0.0078125C1.37907 0.0078125 1.77372 0.40246 1.77372 0.889301C1.77368 1.37614 1.37903 1.77079 0.892231 1.77079Z" fill="#99E6FC"/>
    <path d="M1.77375 0.889503C1.77375 1.13296 1.67516 1.35308 1.5154 1.51284C1.35604 1.6722 1.13552 1.77079 0.89206 1.77079C0.731497 1.77079 0.580993 1.72773 0.451416 1.65248C0.518217 1.61425 0.579786 1.56717 0.634112 1.51284C0.793468 1.35308 0.89206 1.13296 0.89206 0.889503C0.89206 0.646042 0.793468 0.425519 0.634112 0.266163C0.579786 0.211837 0.518217 0.164352 0.451416 0.126122C0.580993 0.0508709 0.731497 0.0078125 0.89206 0.0078125C1.13552 0.0078125 1.35604 0.106404 1.5154 0.266163C1.67516 0.425519 1.77375 0.646042 1.77375 0.889503Z" fill="#62DBFB"/>
    <path d="M7.62058 1.77082H6.3149C6.1281 1.77082 6.01346 1.56619 6.111 1.40687L6.76384 0.340798C6.85712 0.188484 7.07836 0.188484 7.1716 0.340798L7.82444 1.40687C7.92199 1.56619 7.80738 1.77082 7.62058 1.77082Z" fill="#6ED5A1"/>
    <path d="M13.5535 1.77079H12.5328C12.3278 1.77079 12.1616 1.60463 12.1616 1.39964V0.378959C12.1616 0.173969 12.3278 0.0078125 12.5328 0.0078125H13.5535C13.7584 0.0078125 13.9246 0.173969 13.9246 0.378959V1.39964C13.9246 1.60463 13.7584 1.77079 13.5535 1.77079Z" fill="#FB5F7A"/>
    <path d="M13.9248 0.379241V1.39976C13.9248 1.60459 13.7586 1.77079 13.5534 1.77079H12.6721C12.8769 1.77079 13.0431 1.60459 13.0431 1.39976V0.379241C13.0431 0.17401 12.8769 0.0078125 12.6721 0.0078125H13.5534C13.7586 0.0078125 13.9248 0.17401 13.9248 0.379241Z" fill="#F74455"/>
    <path d="M19.7145 1.77161H18.5227C18.3359 1.77161 18.2212 1.56698 18.3188 1.40767L18.9147 0.434548C19.008 0.282234 19.2292 0.282234 19.3225 0.434548L19.9184 1.40767C20.0159 1.56698 19.9013 1.77161 19.7145 1.77161Z" fill="#6ED5A1"/>
    <path d="M0.0355674 7.485L0.688404 6.41892C0.781684 6.26661 1.00293 6.26661 1.09617 6.41892L1.74901 7.485C1.84655 7.64431 1.73191 7.84894 1.5451 7.84894H0.239431C0.0526297 7.84894 -0.0619779 7.64431 0.0355674 7.485Z" fill="#6ED5A1"/>
    <path d="M0.0107422 13.5481V12.5274C0.0107422 12.3224 0.176899 12.1562 0.381889 12.1562H1.40257C1.60756 12.1562 1.77372 12.3224 1.77372 12.5274V13.5481C1.77372 13.7531 1.60756 13.9192 1.40257 13.9192H0.381889C0.176899 13.9192 0.0107422 13.7531 0.0107422 13.5481Z" fill="#FB5F7A"/>
    <path d="M1.77396 12.5273V13.5482C1.77396 13.753 1.60776 13.9192 1.40293 13.9192H0.52124C0.726069 13.9192 0.892266 13.753 0.892266 13.5482V12.5273C0.892266 12.3224 0.726069 12.1562 0.52124 12.1562H1.40293C1.60776 12.1562 1.77396 12.3224 1.77396 12.5273Z" fill="#F74455"/>
    <path d="M6.11101 19.6334L6.76384 18.5674C6.85712 18.415 7.07837 18.415 7.17161 18.5674L7.82445 19.6334C7.92199 19.7928 7.80734 19.9974 7.62054 19.9974H6.31487C6.12807 19.9974 6.01346 19.7928 6.11101 19.6334Z" fill="#6ED5A1"/>
    <path d="M12.1616 19.6262V18.6055C12.1616 18.4005 12.3278 18.2344 12.5328 18.2344H13.5535C13.7584 18.2344 13.9246 18.4005 13.9246 18.6055V19.6262C13.9246 19.8312 13.7584 19.9974 13.5535 19.9974H12.5328C12.3278 19.9974 12.1616 19.8312 12.1616 19.6262Z" fill="#FB5F7A"/>
    <path d="M13.9248 18.6054V19.6259C13.9248 19.8312 13.7586 19.9974 13.5534 19.9974H12.6721C12.8769 19.9974 13.0431 19.8312 13.0431 19.6259V18.6054C13.0431 18.4006 12.8769 18.2344 12.6721 18.2344H13.5534C13.7586 18.2344 13.9248 18.4006 13.9248 18.6054Z" fill="#F74455"/>
    <path d="M18.2371 7.47777V6.45708C18.2371 6.25209 18.4032 6.08594 18.6082 6.08594H19.6289C19.8339 6.08594 20 6.25209 20 6.45708V7.47777C20 7.68276 19.8339 7.84892 19.6289 7.84892H18.6082C18.4032 7.84892 18.2371 7.68276 18.2371 7.47777Z" fill="#FB5F7A"/>
    <path d="M20 6.45696V7.47789C20 7.68272 19.8338 7.84892 19.629 7.84892H18.7473C18.9525 7.84892 19.1187 7.68272 19.1187 7.47789V6.45696C19.1187 6.25213 18.9525 6.08594 18.7473 6.08594H19.629C19.8338 6.08594 20 6.25213 20 6.45696Z" fill="#F74455"/>
    <path d="M18.2371 13.5481V12.5274C18.2371 12.3224 18.4032 12.1562 18.6082 12.1562H19.6289C19.8339 12.1562 20 12.3224 20 12.5274V13.5481C20 13.7531 19.8339 13.9192 19.6289 13.9192H18.6082C18.4032 13.9192 18.2371 13.7531 18.2371 13.5481Z" fill="#FB5F7A"/>
    <path d="M20 12.5273V13.5482C20 13.753 19.8338 13.9192 19.629 13.9192H18.7473C18.9525 13.9192 19.1187 13.753 19.1187 13.5482V12.5273C19.1187 12.3224 18.9525 12.1562 18.7473 12.1562H19.629C19.8338 12.1562 20 12.3224 20 12.5273Z" fill="#F74455"/>
    <path d="M18.2371 19.1159C18.2371 18.629 18.6317 18.2344 19.1185 18.2344C19.6054 18.2344 20 18.629 20 19.1159C20 19.6027 19.6054 19.9974 19.1185 19.9974C18.6317 19.9974 18.2371 19.6027 18.2371 19.1159Z" fill="#99E6FC"/>
    <path d="M19.9999 19.1157C19.9999 19.3591 19.9013 19.5796 19.7416 19.739C19.5822 19.8988 19.3617 19.9974 19.1186 19.9974C18.9581 19.9974 18.8076 19.9547 18.678 19.879C18.7448 19.8404 18.8059 19.7933 18.8603 19.739C19.02 19.5796 19.1186 19.3591 19.1186 19.1157C19.1186 18.8722 19.02 18.6521 18.8603 18.4923C18.8059 18.438 18.7448 18.3909 18.678 18.3527C18.8076 18.277 18.9581 18.2344 19.1186 18.2344C19.3617 18.2344 19.5822 18.333 19.7416 18.4923C19.9013 18.6521 19.9999 18.8722 19.9999 19.1157Z" fill="#62DBFB"/>
    <path d="M10.0054 16.8556C13.7905 16.8556 16.859 13.7871 16.859 10.002C16.859 6.21688 13.7905 3.14844 10.0054 3.14844C6.2203 3.14844 3.15186 6.21688 3.15186 10.002C3.15186 13.7871 6.2203 16.8556 10.0054 16.8556Z" fill="#8EBAC5"/>
    <path d="M14.8516 14.8481C13.3675 16.3322 11.3723 16.9933 9.43311 16.8311C10.9909 16.7008 12.5128 16.0396 13.7043 14.8481C16.3808 12.1716 16.3808 7.83195 13.7043 5.15549C12.5128 3.96394 10.9909 3.30278 9.43311 3.1724C11.3723 3.01022 13.3675 3.67139 14.8516 5.15549C17.5281 7.83195 17.5281 12.1716 14.8516 14.8481Z" fill="#7CA1B1"/>
    <path d="M14.6558 13.311L12.9665 14.8824C11.8912 15.5359 10.6466 15.8023 9.43328 15.6808C8.75361 15.6128 8.08439 15.4228 7.45984 15.1118L4.89646 12.5484C4.1194 10.9894 4.10049 9.1492 4.83932 7.57657L7.35723 4.94679C8.01035 4.60433 8.71578 4.39749 9.43208 4.32546H9.43288C10.4932 4.21922 11.5773 4.40916 12.5512 4.89447L15.1142 7.45785C16.0417 9.31942 15.8892 11.5818 14.6558 13.311Z" fill="#EAF6FF"/>
    <path d="M14.656 13.311L12.9667 14.8824C11.8915 15.5359 10.6468 15.8023 9.43351 15.6808C10.2653 15.5967 11.0822 15.3307 11.8194 14.8824C12.2017 14.6502 12.5627 14.3685 12.8931 14.0381C13.1216 13.8096 13.3273 13.5661 13.5088 13.311C14.7422 11.5818 14.8947 9.31942 13.9671 7.45785C13.6991 6.92023 13.3414 6.41641 12.8931 5.96812C12.4452 5.52023 11.9414 5.16208 11.4041 4.89447C10.7808 4.58341 10.1116 4.39387 9.43311 4.32546C10.4935 4.21922 11.5776 4.40916 12.5514 4.89447L15.1144 7.45785C16.042 9.31942 15.8894 11.5818 14.656 13.311Z" fill="#C8EFFE"/>
    <path d="M9.09569 5.84109V8.30547C9.09569 8.80044 8.69449 9.20165 8.19992 9.20165H5.73553C5.24056 9.20165 4.83936 8.80044 4.83936 8.30547V7.57509C5.11259 6.9932 5.48966 6.44753 5.97054 5.96664C6.38986 5.54732 6.85827 5.20688 7.35726 4.94531H8.19992C8.69449 4.94531 9.09569 5.34612 9.09569 5.84109Z" fill="#FB5F7A"/>
    <path d="M9.09587 5.84109V8.30547C9.09587 8.80044 8.69466 9.20165 8.20009 9.20165H7.06689C7.56146 9.20165 7.96267 8.80044 7.96267 8.30547V5.84109C7.96267 5.4266 7.68138 5.07851 7.29989 4.9759C7.31921 4.96543 7.33812 4.95537 7.35744 4.94531H8.20009C8.69466 4.94531 9.09587 5.34612 9.09587 5.84109Z" fill="#F74455"/>
    <path d="M9.09568 13.0424C9.09568 13.63 8.85745 14.1619 8.47234 14.5471C8.19829 14.8211 7.8498 15.0211 7.45986 15.1133C6.92224 14.8457 6.41842 14.4875 5.97053 14.0396C5.52224 13.5913 5.16449 13.0875 4.89648 12.5499C5.11862 11.6118 5.96168 10.9141 6.96771 10.9141C7.55564 10.9141 8.08763 11.1523 8.47234 11.5374C8.85745 11.9225 9.09568 12.4545 9.09568 13.0424Z" fill="#99E6FC"/>
    <path d="M9.09569 13.0424C9.09569 13.63 8.85746 14.1619 8.47235 14.5471C8.19831 14.8211 7.84981 15.0211 7.45988 15.1133C7.29408 15.0308 7.1315 14.9394 6.97295 14.84C7.10575 14.7563 7.22849 14.6577 7.33915 14.5471C7.72426 14.1619 7.96249 13.63 7.96249 13.0424C7.96249 12.4545 7.72426 11.9225 7.33915 11.5374C7.08281 11.2807 6.76128 11.0895 6.40112 10.9905C6.5814 10.9406 6.77134 10.9141 6.96772 10.9141C7.55565 10.9141 8.08764 11.1523 8.47235 11.5374C8.85746 11.9225 9.09569 12.4545 9.09569 13.0424Z" fill="#62DBFB"/>
    <path d="M15.1142 7.45401C15.0217 7.84394 14.8221 8.19244 14.548 8.46648C14.4985 8.51598 14.4466 8.56306 14.3927 8.60773C14.0253 8.90873 13.5549 9.08982 13.043 9.08982C12.4555 9.08982 11.9235 8.85159 11.5384 8.46648C11.1533 8.08137 10.915 7.54938 10.915 6.96145C10.915 6.20813 11.3066 5.54616 11.8973 5.16829C12.0953 5.04113 12.3158 4.94656 12.5513 4.89062C13.0885 5.15823 13.5923 5.51638 14.0402 5.96427C14.4885 6.41256 14.8462 6.91638 15.1142 7.45401Z" fill="#99E6FC"/>
    <path d="M15.1144 7.45401C15.0218 7.84394 14.8222 8.19244 14.5482 8.46648C14.4987 8.51598 14.4468 8.56306 14.3928 8.60773C14.2938 8.21215 14.1522 7.82503 13.9671 7.45401C13.6991 6.91638 13.3413 6.41256 12.893 5.96427C12.5852 5.65642 12.2512 5.39123 11.8975 5.16829C12.0954 5.04113 12.316 4.94656 12.5514 4.89062C13.0886 5.15823 13.5924 5.51638 14.0403 5.96427C14.4886 6.41256 14.8464 6.91638 15.1144 7.45401Z" fill="#62DBFB"/>
    <path d="M14.6559 13.307C14.4744 13.5621 14.2688 13.8056 14.0402 14.0341C13.7098 14.3645 13.3488 14.6462 12.9665 14.8784H11.4861C11.0406 14.8784 10.767 14.3903 10.9995 14.0104L12.5569 11.4675C12.779 11.1046 13.307 11.1046 13.5295 11.4675L14.0635 12.3396L14.6559 13.307Z" fill="#6ED5A1"/>
    <path d="M14.656 13.3112C14.4745 13.5663 14.2688 13.8097 14.0403 14.0383C13.7099 14.3687 13.3489 14.6504 12.9666 14.8826H11.8193C12.2016 14.6504 12.5626 14.3687 12.893 14.0383C13.1216 13.8097 13.3272 13.5663 13.5087 13.3112C13.728 13.0037 13.9131 12.6794 14.0636 12.3438L14.656 13.3112Z" fill="#46CC8D"/>
  </g>
  <defs>
    <clipPath id="clip0_6124_213">
      <rect width="20" height="20" fill="white"/>
    </clipPath>
  </defs>
</svg>