<svg width="100" height="100" viewBox="0 0 100 100" fill="none" xmlns="http://www.w3.org/2000/svg">
<path d="M54.8285 23.2594C63.8614 27.2998 70.0766 36.2902 70.0766 46.7344C70.0766 51.7171 68.6614 56.3979 66.1998 60.3767L81.767 75.9421C84.207 78.3819 84.2093 82.3402 81.767 84.7825C79.3248 87.2227 75.3689 87.2227 72.9266 84.7825L57.2766 69.1325C53.4477 71.3959 48.9804 72.7075 44.1862 72.7265C29.5035 72.7823 17.9285 60.4229 18.3496 45.7457C18.4381 42.6881 18.9458 39.8515 20.0535 37.415L20.0804 37.34L43.1496 44.1667C55.2602 19.2744 54.7545 23.4129 54.8285 23.2594Z" fill="#D5E8FE"/>
<path d="M21.6344 89.4225C25.3517 89.4225 28.3652 86.409 28.3652 82.6917C28.3652 78.9744 25.3517 75.9609 21.6344 75.9609C17.9171 75.9609 14.9036 78.9744 14.9036 82.6917C14.9036 86.409 17.9171 89.4225 21.6344 89.4225Z" fill="#0A6DC2"/>
<path d="M84.1344 37.4994C87.3207 37.4994 89.9036 34.9164 89.9036 31.7302C89.9036 28.5439 87.3207 25.9609 84.1344 25.9609C80.9481 25.9609 78.3652 28.5439 78.3652 31.7302C78.3652 34.9164 80.9481 37.4994 84.1344 37.4994Z" fill="#0A6DC2"/>
<path d="M43.8382 45.9977L37.4036 34.9996L34.9902 22.465C35.1231 22.4596 39.245 20.8054 44.9882 21.0027C47.9461 21.1044 51.334 21.6971 54.8284 23.2592C54.7548 23.4115 55.6175 21.7363 49.3638 34.6265C47.9288 37.5842 46.1194 41.3086 43.8382 45.9977Z" fill="#FFDA2D"/>
<path d="M43.8382 45.998C40.9882 44.9595 35.2142 42.8553 29.3709 40.7259C23.778 38.6876 18.1213 36.6263 14.9038 35.4538C16.498 31.2853 18.9502 27.5459 22.0459 24.4499C25.1417 21.3542 28.8809 18.9018 33.05 17.3076C35.2844 23.2495 37.0586 27.9676 38.4665 31.712C45.0448 49.207 43.633 45.4524 43.8382 45.998Z" fill="#2CC09E"/>
<path d="M87.4421 45.615C88.0056 45.0515 88.9171 45.0515 89.4806 45.615C90.0441 46.1784 90.0441 47.09 89.4806 47.6534C88.9171 48.2169 88.0056 48.2169 87.4421 47.6534C86.8787 47.09 86.8787 46.1782 87.4421 45.615Z" fill="#95C9F4"/>
<path d="M81.6728 60.038C82.2363 59.4743 83.1478 59.4743 83.7113 60.038C84.2748 60.6014 84.2748 61.513 83.7113 62.0764C83.1478 62.6401 82.2363 62.6401 81.6728 62.0764C81.1094 61.513 81.1094 60.6014 81.6728 60.038Z" fill="#95C9F4"/>
<path d="M57.7498 10.9997C58.3132 11.5632 58.3132 12.4747 57.7498 13.0382C57.1863 13.6017 56.2748 13.6017 55.7113 13.0382C55.1477 12.4747 55.1477 11.5632 55.7113 10.9997C56.2748 10.4363 57.1863 10.4363 57.7498 10.9997Z" fill="#95C9F4"/>
<path d="M50.9037 85.9999C51.4671 85.4362 52.3787 85.4362 52.9421 85.9999C53.5056 86.5634 53.5056 87.4749 52.9421 88.0384C52.3787 88.602 51.4671 88.602 50.9037 88.0384C50.3402 87.4749 50.3402 86.5634 50.9037 85.9999Z" fill="#95C9F4"/>
<path d="M10.519 22.5378C11.0825 21.9744 11.994 21.9744 12.5575 22.5378C13.121 23.1013 13.121 24.0128 12.5575 24.5763C11.994 25.1398 11.0825 25.1398 10.519 24.5763C9.95557 24.0128 9.95557 23.1011 10.519 22.5378Z" fill="#95C9F4"/>
<path d="M10.519 63.8847C11.0825 63.321 11.994 63.321 12.5575 63.8847C13.121 64.4481 13.121 65.3597 12.5575 65.9231C11.994 66.4868 11.0825 66.4868 10.519 65.9231C9.95557 65.3597 9.95557 64.4481 10.519 63.8847Z" fill="#95C9F4"/>
<path d="M43.7498 66.3456C43.2187 66.3456 42.7883 65.9152 42.7883 65.384C42.7883 64.8529 43.2187 64.4225 43.7498 64.4225C53.8235 64.4225 62.019 56.2269 62.019 46.1532C62.019 39.1109 58.0854 32.8159 51.7529 29.725C49.251 28.5032 46.5583 27.884 43.7498 27.884C43.2187 27.884 42.7883 27.4534 42.7883 26.9225C42.7883 26.3915 43.2187 25.9609 43.7498 25.9609C46.8535 25.9609 49.8298 26.6459 52.5967 27.9969C55.9471 29.6323 58.7794 32.1617 60.7877 35.3113C62.8513 38.5481 63.9421 42.2971 63.9421 46.1532C63.9421 57.2873 54.8838 66.3456 43.7498 66.3456Z" fill="#B5DBFF"/>
</svg>
