<svg width="32" height="32" viewBox="0 0 32 32" fill="none" xmlns="http://www.w3.org/2000/svg">
<g clip-path="url(#clip0_4482_49825)">
<path d="M20.375 22.9022L22.385 24.9172L24.92 22.3872L22.905 20.3672L20.375 22.9022Z" fill="#222F2B"/>
<path d="M25.6252 21.6797L31.1802 27.2347C32.2702 28.3247 32.2702 30.0897 31.1802 31.1797C30.0902 32.2697 28.3252 32.2697 27.2352 31.1797L21.6802 25.6247L25.6252 21.6797Z" fill="#8BC6B3"/>
<path d="M30.82 26.875L31.18 27.235C32.27 28.325 32.27 30.09 31.18 31.18C30.09 32.27 28.325 32.27 27.235 31.18L26.875 30.82L30.82 26.875Z" fill="#5FB096"/>
<path d="M12.73 25.46C19.7606 25.46 25.46 19.7606 25.46 12.73C25.46 5.69941 19.7606 0 12.73 0C5.69941 0 0 5.69941 0 12.73C0 19.7606 5.69941 25.46 12.73 25.46Z" fill="#364B44"/>
<path d="M12.7301 22.7366C18.2557 22.7366 22.7351 18.2572 22.7351 12.7316C22.7351 7.20595 18.2557 2.72656 12.7301 2.72656C7.20449 2.72656 2.7251 7.20595 2.7251 12.7316C2.7251 18.2572 7.20449 22.7366 12.7301 22.7366Z" fill="#F2F2F2"/>
<path d="M16.6353 7.99219H18.3553V17.9172H16.6353V7.99219Z" fill="#34AFAA"/>
<path d="M13.3101 9.90625H15.0301V17.9163H13.3101V9.90625Z" fill="#FFD15C"/>
<path d="M9.98535 12.3203H11.7054V17.9203H9.98535V12.3203Z" fill="#FD7058"/>
<path d="M6.66016 13.6641H8.38016V17.9141H6.66016V13.6641Z" fill="#EF6082"/>
</g>
<defs>
<clipPath id="clip0_4482_49825">
<rect width="32" height="32" fill="white"/>
</clipPath>
</defs>
</svg>
