<svg xmlns="http://www.w3.org/2000/svg" width="80" height="80" viewBox="0 0 80 80" fill="none">
  <g clip-path="url(#clip0_5487_24001)">
    <path d="M40 80C62.0914 80 80 62.0914 80 40C80 17.9086 62.0914 0 40 0C17.9086 0 0 17.9086 0 40C0 62.0914 17.9086 80 40 80Z" fill="#F1F2F3"/>
    <path d="M45.4038 24.361C45.3838 24.3405 45.3566 24.3151 45.3366 24.2951C42.643 21.6199 38.9415 19.9707 34.8495 19.9707C26.6315 19.9707 19.9707 26.6323 19.9707 34.8487C19.9707 38.6966 21.4343 42.2118 23.8376 44.8535C23.8445 44.8666 23.858 44.874 23.8707 44.8863L24.8112 45.8271C24.8255 45.8412 24.8307 45.853 24.8443 45.8599L55.753 76.7743C65.1802 72.7307 72.739 65.1695 76.7794 55.741L45.4038 24.361Z" fill="#D9DBDE"/>
    <path d="M43.9238 46.2243L44.9082 47.209L46.059 48.3538L46.5026 48.8007L48.799 46.5026L46.2243 43.9238L43.9238 46.2243Z" fill="#5D6D7E"/>
    <path d="M51.142 46.4863L59.0664 54.4104C59.6623 55.0048 60.0323 55.8299 60.03 56.7376C60.03 57.6468 59.6623 58.4712 59.0664 59.068C58.472 59.6616 57.6488 60.028 56.7395 60.028C55.8308 60.028 55.0083 59.6616 54.4123 59.066L46.4883 51.1412L51.142 46.4863Z" fill="#AFBCC6"/>
    <path d="M50.0469 47.5827L50.6909 46.9375L58.6161 54.8627C59.1166 55.3634 59.3917 56.0295 59.3913 56.7383C59.3913 57.4491 59.1153 58.1163 58.6161 58.6178C58.5248 58.7055 58.4081 58.7494 58.2933 58.7494C58.1756 58.7494 58.0597 58.7053 57.9692 58.6166C57.7928 58.4378 57.7928 58.1514 57.9692 57.9737C58.2997 57.6445 58.4805 57.2033 58.4805 56.737C58.4817 56.2727 58.3 55.8347 57.9717 55.507L50.0469 47.5827Z" fill="#91A3B1"/>
    <path d="M46.4875 51.1419L51.1416 46.4867L50.7944 46.1387C50.5848 45.9283 50.2984 45.8008 49.98 45.8008C49.6595 45.8008 49.3723 45.928 49.1648 46.1372L46.1384 49.1652C45.9305 49.3716 45.8008 49.6587 45.8008 49.9795C45.8008 50.2955 45.9303 50.5864 46.1384 50.7916L46.4875 51.1419Z" fill="#34495E"/>
    <path d="M19.9707 34.8487C19.9707 26.633 26.6323 19.9707 34.8495 19.9707C43.0674 19.9707 49.7287 26.6335 49.7287 34.8487C49.7287 43.0666 43.0666 49.7279 34.8495 49.7299C26.6323 49.7279 19.9707 43.0666 19.9707 34.8487Z" fill="#404E59"/>
    <path d="M34.8485 48.1181C42.1745 48.1181 48.1165 42.1781 48.1165 34.8489C48.1165 27.5238 42.1745 21.582 34.8485 21.582C27.5213 21.582 21.5801 27.5233 21.5801 34.8489C21.5801 42.1781 27.5213 48.1181 34.8485 48.1181Z" fill="#7F94A4"/>
    <path d="M34.849 47.0554C41.589 47.0554 47.0549 41.5918 47.0549 34.8482C47.0549 28.1098 41.589 22.6426 34.849 22.6426C28.109 22.6426 22.6426 28.1098 22.6426 34.8482C22.6426 41.5913 28.1077 47.0554 34.849 47.0554Z" fill="#D9DBDE"/>
    <path d="M35.1711 24.647C34.9632 24.3385 34.606 24.1454 34.2127 24.1678C32.5279 24.2701 30.9355 24.7446 29.4804 25.5893C28.968 25.8889 28.7924 26.5493 29.0908 27.0642C29.3893 27.5726 30.0504 27.7534 30.5613 27.451C31.7221 26.7815 32.9925 26.401 34.3393 26.319C34.9308 26.2882 35.3861 25.7778 35.3493 25.1867C35.3422 24.9817 35.2735 24.7973 35.1711 24.647Z" fill="white"/>
    <path d="M28.2596 28.1867C28.2024 28.1008 28.1275 28.0211 28.0455 27.9531C27.5835 27.5751 26.906 27.6487 26.5324 28.1103C25.4328 29.4603 24.676 31.0798 24.3419 32.8034C23.9468 34.8506 24.1535 36.9465 24.9383 38.8675C25.1671 39.4211 25.7968 39.6811 26.346 39.4547C26.8968 39.2315 27.1591 38.6042 26.9336 38.0506C26.3077 36.519 26.1452 34.8462 26.4632 33.2122C26.7232 31.8362 27.3275 30.5442 28.2047 29.467C28.5099 29.0923 28.518 28.5659 28.2596 28.1867Z" fill="white"/>
  </g>
  <defs>
    <clipPath id="clip0_5487_24001">
      <rect width="80" height="80" fill="white"/>
    </clipPath>
  </defs>
</svg>