<svg width="20" height="21" viewBox="0 0 20 21" fill="none" xmlns="http://www.w3.org/2000/svg">
<path fill-rule="evenodd" clip-rule="evenodd" d="M20 7.67969C19.3377 8.09075 18.8582 8.34195 18.3101 8.66166C15.0216 10.6484 11.8473 12.8636 9.40383 15.7638L8.21633 17.2025L4.60815 11.4477C5.40743 12.0871 7.43988 13.8912 8.262 14.3023L10.911 12.2927C12.7608 10.991 17.9904 8.15925 20 7.67969Z" fill="#F3D25E"/>
<path d="M6.29808 11.973C6.38942 12.0415 6.45793 12.11 6.54928 12.1785C5.84135 10.1917 4.58534 8.20493 2.80409 6.49219C2.21034 6.49219 1.61659 6.49219 1 6.49219C3.28365 8.13642 5.0649 10.0547 6.29808 11.973Z" fill="#638BC4"/>
<path d="M6.89181 12.494C6.96032 12.5625 7.05167 12.6082 7.12018 12.6767C7.006 9.98197 6.00119 7.21875 4.08292 4.84375C3.51201 4.84375 2.94109 4.84375 2.37018 4.84375C4.81369 7.10457 6.3209 9.84495 6.89181 12.494Z" fill="#305CA5"/>
<path d="M7.37139 12.8858C7.64543 13.1142 7.91947 13.3197 8.14783 13.4796C8.74158 10.5793 8.23918 7.45072 6.66346 4.73317C9.33533 4.6875 12.0072 4.66466 14.6562 4.61899C15.25 5.94351 15.5925 7.35938 15.6839 8.82091C15.9123 8.70673 16.1406 8.59255 16.3918 8.47837C16.2776 6.97115 15.8666 5.3726 15.0673 3.5C11.4135 3.5 7.78245 3.5 4.1286 3.5C6.5036 6.30889 7.57692 9.71154 7.37139 12.8858Z" fill="#273D72"/>
</svg>
