<svg
    width="22"
    height="22"
    viewBox="0 0 28 28"
    fill="none"
    xmlns="http://www.w3.org/2000/svg"
>
    <path
    fillRule="evenodd"
    clipRule="evenodd"
    d="M6.2606 9.2973H0.453354V28H6.2606V9.2973ZM6.73554 3.37297C6.73554 1.51351 5.22436 0 3.36777 0C1.50039 0 0 1.51351 0 3.37297C0 5.23243 1.50039 6.74595 3.36777 6.74595C5.22436 6.74595 6.73554 5.23243 6.73554 3.37297ZM15.468 9.2973H9.91981V28H15.7163V18.7459C15.7163 16.3135 16.1696 13.9459 19.192 13.9459C22.1712 13.9459 22.2035 16.7351 22.2035 18.9081V28H28V17.7514C28 12.7135 26.9098 8.84324 21.0378 8.84324C18.2097 8.84324 16.3207 10.3892 15.5436 11.8595H15.468V9.2973Z"
    fill="white"
    />
</svg>