<svg width="16" height="17" viewBox="0 0 16 17" fill="none" xmlns="http://www.w3.org/2000/svg">
<path d="M15.82 12.116L12.82 9.616C12.671 9.491 12.463 9.466 12.288 9.547C12.112 9.63 12 9.806 12 10V11.5H11.163C10.469 11.5 9.835 11.148 9.467 10.56L6.229 5.38C5.494 4.203 4.226 3.5 2.837 3.5H0V5.5H2.837C3.531 5.5 4.165 5.852 4.533 6.44L7.771 11.62C8.507 12.797 9.775 13.5 11.163 13.5H12V15C12 15.194 12.112 15.37 12.288 15.453C12.355 15.484 12.428 15.5 12.5 15.5C12.615 15.5 12.729 15.461 12.82 15.384L15.82 12.884C15.935 12.789 16 12.648 16 12.5C16 12.352 15.935 12.211 15.82 12.116Z" fill="#23B094"/>
<path d="M15.82 4.11526L12.82 1.61526C12.671 1.49126 12.463 1.46526 12.288 1.54726C12.112 1.62826 12 1.80526 12 1.99926V3.49926H11.163C9.774 3.49926 8.506 4.20226 7.771 5.37926L4.534 10.5593C4.166 11.1473 3.531 11.4993 2.837 11.4993H0V13.4993H2.837C4.225 13.4993 5.493 12.7963 6.229 11.6193L9.466 6.43926C9.835 5.85126 10.469 5.49926 11.163 5.49926H12V6.99926C12 7.19326 12.112 7.37026 12.288 7.45226C12.355 7.48326 12.428 7.49926 12.5 7.49926C12.615 7.49926 12.729 7.45926 12.82 7.38326L15.82 4.88326C15.935 4.78826 16 4.64726 16 4.49926C16 4.35126 15.935 4.21026 15.82 4.11526Z" fill="#38D1AE"/>
</svg>
