<svg width="25" height="24" viewBox="0 0 25 24" fill="none" xmlns="http://www.w3.org/2000/svg">
<path d="M2 13.125C8.98287 14.7037 9.5 21.75 9.5 21.75C9.5 21.75 10.0171 14.7037 17 13.125C10.0171 11.5462 9.5 4.5 9.5 4.5C9.5 4.5 8.98287 11.5462 2 13.125Z" fill="url(#paint0_linear_6727_6580)"/>
<path d="M14.75 18C18.5904 18.825 18.875 22.5 18.875 22.5C18.875 22.5 19.1596 18.825 23 18C19.1596 17.175 18.875 13.5 18.875 13.5C18.875 13.5 18.5904 17.175 14.75 18Z" fill="url(#paint1_linear_6727_6580)"/>
<path d="M12.125 6C15.9654 6.825 16.25 10.5 16.25 10.5C16.25 10.5 16.5346 6.825 20.375 6C16.5346 5.175 16.25 1.5 16.25 1.5C16.25 1.5 15.9654 5.175 12.125 6Z" fill="url(#paint2_linear_6727_6580)"/>
<defs>
<linearGradient id="paint0_linear_6727_6580" x1="20.7428" y1="-91.4881" x2="-8.56433" y2="-91.21" gradientUnits="userSpaceOnUse">
<stop stop-color="white"/>
<stop offset="1" stop-color="white"/>
</linearGradient>
<linearGradient id="paint1_linear_6727_6580" x1="25.0585" y1="-36.5808" x2="8.93978" y2="-36.4195" gradientUnits="userSpaceOnUse">
<stop stop-color="white"/>
<stop offset="1" stop-color="white"/>
</linearGradient>
<linearGradient id="paint2_linear_6727_6580" x1="22.4335" y1="-48.5808" x2="6.31478" y2="-48.4195" gradientUnits="userSpaceOnUse">
<stop stop-color="white"/>
<stop offset="1" stop-color="white"/>
</linearGradient>
</defs>
</svg>
