<svg width="24" height="24" viewBox="0 0 24 24" fill="none" xmlns="http://www.w3.org/2000/svg">
<path d="M1.5 13.125C8.48287 14.7037 9 21.75 9 21.75C9 21.75 9.51713 14.7037 16.5 13.125C9.51713 11.5462 9 4.5 9 4.5C9 4.5 8.48287 11.5462 1.5 13.125Z" fill="url(#paint0_linear_5035_44170)"/>
<path d="M14.25 18C18.0904 18.825 18.375 22.5 18.375 22.5C18.375 22.5 18.6596 18.825 22.5 18C18.6596 17.175 18.375 13.5 18.375 13.5C18.375 13.5 18.0904 17.175 14.25 18Z" fill="url(#paint1_linear_5035_44170)"/>
<path d="M11.625 6C15.4654 6.825 15.75 10.5 15.75 10.5C15.75 10.5 16.0346 6.825 19.875 6C16.0346 5.175 15.75 1.5 15.75 1.5C15.75 1.5 15.4654 5.175 11.625 6Z" fill="url(#paint2_linear_5035_44170)"/>
<defs>
<linearGradient id="paint0_linear_5035_44170" x1="20.2428" y1="-91.4881" x2="-9.06433" y2="-91.21" gradientUnits="userSpaceOnUse">
<stop stop-color="#57AC91"/>
<stop offset="1" stop-color="#8AC3F9"/>
</linearGradient>
<linearGradient id="paint1_linear_5035_44170" x1="24.5585" y1="-36.5808" x2="8.43978" y2="-36.4195" gradientUnits="userSpaceOnUse">
<stop stop-color="#57AC91"/>
<stop offset="1" stop-color="#8AC3F9"/>
</linearGradient>
<linearGradient id="paint2_linear_5035_44170" x1="21.9335" y1="-48.5808" x2="5.81478" y2="-48.4195" gradientUnits="userSpaceOnUse">
<stop stop-color="#57AC91"/>
<stop offset="1" stop-color="#8AC3F9"/>
</linearGradient>
</defs>
</svg>
