<svg width="25" height="20" viewBox="0 0 25 20" fill="none" xmlns="http://www.w3.org/2000/svg">
<path d="M24.4146 2.70707C23.5171 3.09981 22.5512 3.36473 21.5377 3.48329C22.5725 2.87344 23.3659 1.90744 23.7401 0.755073C22.7722 1.32052 21.7007 1.73083 20.5594 1.95233C19.646 0.994133 18.3441 0.39502 16.9034 0.39502C14.1374 0.39502 11.8948 2.60267 11.8948 5.326C11.8948 5.71191 11.939 6.08807 12.0247 6.44959C7.86167 6.2437 4.17046 4.28097 1.6999 1.29759C1.26873 2.02551 1.02192 2.87246 1.02192 3.77699C1.02192 5.48749 1.90607 6.99698 3.25013 7.88102C2.42942 7.85516 1.65678 7.63318 0.981284 7.26385C0.980788 7.28435 0.980788 7.30532 0.980788 7.3263C0.980788 9.71495 2.70745 11.7074 4.99909 12.1612C4.57883 12.2734 4.13626 12.3339 3.67932 12.3339C3.35619 12.3339 3.04247 12.3031 2.73669 12.2451C3.37453 14.2039 5.2241 15.63 7.41563 15.6695C5.70136 16.9921 3.54204 17.7806 1.19489 17.7806C0.790974 17.7806 0.392018 17.7571 0 17.7113C2.2173 19.111 4.84992 19.9267 7.6783 19.9267C16.892 19.9267 21.9297 12.4134 21.9297 5.89731C21.9297 5.68362 21.9252 5.47041 21.9158 5.25868C22.8941 4.56491 23.7436 3.696 24.4146 2.70707Z" fill="#085394"/>
</svg>
