<svg width="24" height="24" viewBox="0 0 24 24" fill="none" xmlns="http://www.w3.org/2000/svg">
<path fill-rule="evenodd" clip-rule="evenodd" d="M12 0C5.38125 0 0 5.38125 0 12C0 18.6187 5.38125 24 12 24C18.6187 24 24 18.6187 24 12C24 5.38125 18.6187 0 12 0Z" fill="#46A759"/>
<path fill-rule="evenodd" clip-rule="evenodd" d="M17.8031 7.95391C18.0937 8.24453 18.0937 8.72266 17.8031 9.01328L10.7719 16.0445C10.6266 16.1898 10.4344 16.2648 10.2422 16.2648C10.05 16.2648 9.85781 16.1898 9.7125 16.0445L6.19687 12.5289C5.90625 12.2383 5.90625 11.7602 6.19687 11.4695C6.4875 11.1789 6.96562 11.1789 7.25625 11.4695L10.2422 14.4555L16.7437 7.95391C17.0344 7.65859 17.5125 7.65859 17.8031 7.95391Z" fill="white"/>
</svg>
