<svg width="275" height="293" viewBox="0 0 275 293" fill="none" xmlns="http://www.w3.org/2000/svg">
<path d="M244.589 269.583H78.1056C68.1036 269.583 60 261.474 60 251.478V37.1114C60 27.1094 68.1094 19 78.1056 19H244.589C254.591 19 262.694 27.1094 262.694 37.1114V251.478C262.694 261.48 254.585 269.589 244.583 269.589L244.589 269.583Z" fill="#B6DCFC"/>
<path d="M226.589 260.583H60.1056C50.1036 260.583 42 252.474 42 242.478V28.1114C42 18.1094 50.1094 10 60.1056 10H226.589C236.591 10 244.694 18.1094 244.694 28.1114V242.478C244.694 252.48 236.585 260.589 226.583 260.589L226.589 260.583Z" fill="#DDEFFF"/>
<path d="M205.513 250.583H39.0294C29.0274 250.583 20.9238 242.474 20.9238 232.478V18.1114C20.9238 8.10941 29.0332 0 39.0294 0H205.513C215.515 0 223.618 8.10941 223.618 18.1114V232.478C223.618 242.48 215.509 250.589 205.507 250.589L205.513 250.583Z" fill="#EDF5FC"/>
<path d="M184.02 24.6935H52.9102C50.4082 24.6935 48.3809 22.6662 48.3809 20.1642C48.3809 17.6622 50.4082 15.6349 52.9102 15.6349H184.02C186.522 15.6349 188.549 17.6622 188.549 20.1642C188.549 22.6662 186.522 24.6935 184.02 24.6935Z" fill="#B6DCFC"/>
<path d="M156.856 51.8518H52.9102C50.4082 51.8518 48.3809 49.8245 48.3809 47.3225C48.3809 44.8205 50.4082 42.7932 52.9102 42.7932H156.856C159.358 42.7932 161.385 44.8205 161.385 47.3225C161.385 49.8245 159.358 51.8518 156.856 51.8518Z" fill="#B6DCFC"/>
<path d="M147.803 79.016H52.9102C50.4082 79.016 48.3809 76.9887 48.3809 74.4867C48.3809 71.9847 50.4082 69.9574 52.9102 69.9574H147.803C150.305 69.9574 152.333 71.9847 152.333 74.4867C152.333 76.9887 150.305 79.016 147.803 79.016Z" fill="#B6DCFC"/>
<path d="M253.401 292.988H20.7734C9.30134 292.988 0 284.88 0 274.886V119.777C0 109.777 9.30134 101.674 20.7734 101.674H122.087C130.346 101.674 137.544 106.578 139.554 113.561L143.122 125.999C145.125 132.982 152.323 137.885 160.589 137.885H253.401C264.873 137.885 274.168 145.994 274.168 155.994V274.891C274.168 284.892 264.873 293 253.401 293V292.988Z" fill="#085394"/>
</svg>
