<svg width="282" height="300" viewBox="0 0 282 300" fill="none" xmlns="http://www.w3.org/2000/svg">
<path d="M281.835 97.3253V299.993H8.96442C4.39485 299.993 0.694336 296.29 0.694336 291.733V69.4037C0.694336 64.84 4.39485 61.1442 8.96442 61.1442H109.222C111.408 61.1442 113.511 62.0121 115.06 63.559L138.181 86.6509C139.73 88.1978 141.832 89.0657 144.026 89.0657H273.558C278.12 89.0657 281.828 92.7686 281.828 97.3253H281.835Z" fill="#B6DCFC"/>
<path d="M74.4502 0C65.0473 0 57.354 7.79453 57.354 17.3212V259.818C57.354 269.344 65.0473 277.139 74.4502 277.139H245.412C254.815 277.139 262.509 269.344 262.509 259.818V69.2847L194.124 0H74.4502Z" fill="#EDF5FC"/>
<path d="M211.22 69.2847H262.508L194.124 0V51.9635C194.124 61.4902 201.817 69.2847 211.22 69.2847Z" fill="#CCE5FB"/>
</svg>
