<svg width="350" height="72" viewBox="0 0 350 72" fill="none" xmlns="http://www.w3.org/2000/svg">
<path d="M59.1685 0H11.8315C5.30281 0 0 5.29172 0 11.8315V59.1685C0 65.7138 5.30281 71 11.8315 71H59.1685C65.7027 71 71 65.7083 71 59.1685V11.8315C71 5.28617 65.6972 0 59.1685 0Z" fill="#B6DCFC"/>
<path d="M334.065 0H110.935C102.135 0 95 5.36625 95 11.9981V60.0019C95 66.6394 102.142 72 110.935 72H334.065C342.865 72 350 66.6338 350 60.0019V11.9981C350 5.36062 342.858 0 334.065 0Z" fill="#085394"/>
<path d="M27.5 50C25.7363 50 24.1507 49.6288 22.732 48.8863C21.3188 48.1439 20.1059 47.1259 19.1045 45.8266C18.103 44.533 17.3353 42.9975 16.8012 41.2314C16.2671 39.4653 16 37.5529 16 35.5C16 33.4471 16.2671 31.5403 16.8012 29.7686C17.3353 28.0025 18.103 26.467 19.1045 25.1734C20.1059 23.8798 21.3133 22.8561 22.732 22.1137C24.1451 21.3712 25.7363 21 27.5 21C29.2637 21 30.8493 21.3712 32.268 22.1137C33.6812 22.8561 34.8941 23.8741 35.8955 25.1734C36.897 26.467 37.6647 28.0025 38.1988 29.7686C38.7329 31.5347 39 33.4471 39 35.5C39 37.5529 38.7329 39.4597 38.1988 41.2314C37.6647 42.9975 36.897 44.533 35.8955 45.8266C34.8941 47.1202 33.6867 48.1439 32.268 48.8863C30.8493 49.6288 29.2637 50 27.5 50ZM27.5 44.9773C28.4625 44.9773 29.3304 44.7411 30.1038 44.2686C30.8771 43.7962 31.5392 43.1325 32.0844 42.2832C32.6297 41.4339 33.0469 40.4271 33.3251 39.2684C33.6033 38.1098 33.7479 36.8555 33.7479 35.5C33.7479 34.1445 33.6089 32.8621 33.3251 31.7147C33.0469 30.5673 32.6297 29.5661 32.0844 28.7168C31.5392 27.8675 30.8771 27.2038 30.1038 26.7314C29.3304 26.2589 28.4625 26.0227 27.5 26.0227C26.5375 26.0227 25.6306 26.2589 24.8573 26.7314C24.0839 27.2038 23.4274 27.8675 22.8933 28.7168C22.3592 29.5661 21.9531 30.5673 21.6693 31.7147C21.3911 32.8621 21.2465 34.122 21.2465 35.5C21.2465 36.878 21.3856 38.1041 21.6693 39.2684C21.9475 40.4271 22.3592 41.4339 22.8933 42.2832C23.4274 43.1325 24.0784 43.7962 24.8573 44.2686C25.6306 44.7411 26.5152 44.9773 27.5 44.9773Z" fill="white"/>
<path d="M48.7611 50V28.305L43.9222 30.3915L42 25.8489L50.0389 22H54V50H48.7611Z" fill="white"/>
</svg>
