<svg width="184" height="240" viewBox="0 0 184 240" fill="none" xmlns="http://www.w3.org/2000/svg">
<path d="M53.5997 172.18L41.2012 165.025L56.2422 138.969L68.6407 146.123L53.5997 172.18Z" fill="#B6DCFC"/>
<path d="M8.07198 236.95C15.7888 241.409 25.6619 238.76 30.1209 231.043L58.6972 181.549C60.5839 178.279 59.4648 174.102 56.1953 172.215L40.076 162.91C36.8065 161.023 32.6287 162.143 30.742 165.412L2.1657 214.907C-2.29331 222.623 0.355145 232.496 8.07198 236.955V236.95Z" fill="#EDF5FC"/>
<path d="M137.551 137.236C162.815 111.972 162.815 71.0098 137.551 45.7453C112.286 20.4809 71.3247 20.4809 46.0603 45.7453C20.7958 71.0098 20.7958 111.972 46.0603 137.236C71.3247 162.5 112.286 162.5 137.551 137.236Z" fill="#B6DCFC"/>
<path d="M104.701 142.793C133.015 135.765 150.271 107.115 143.243 78.8008C136.215 50.4869 107.565 33.2313 79.2507 40.2592C50.9368 47.2872 33.6812 75.9374 40.7091 104.251C47.7371 132.565 76.3873 149.821 104.701 142.793Z" fill="white"/>
</svg>
