<svg width="350" height="71" viewBox="0 0 350 71" fill="none" xmlns="http://www.w3.org/2000/svg">
<path d="M59.1685 0H11.8315C5.29727 0 0 5.29213 0 11.8324V59.1676C0 65.7134 5.30281 71 11.8315 71H59.1685C65.7027 71 71 65.7079 71 59.1676V11.8324C71 5.28658 65.6972 0 59.1685 0Z" fill="#B6DCFC"/>
<path d="M334.065 0H110.935C102.135 0 95 5.29213 95 11.8324V59.1676C95 65.7134 102.142 71 110.935 71H334.065C342.865 71 350 65.7079 350 59.1676V11.8324C350 5.28658 342.858 0 334.065 0Z" fill="#085394"/>
<path d="M24.5 50C22.7363 50 21.1507 49.6288 19.732 48.8863C18.3188 48.1439 17.1059 47.1259 16.1045 45.8266C15.103 44.533 14.3353 42.9975 13.8012 41.2314C13.2671 39.4653 13 37.5529 13 35.5C13 33.4471 13.2671 31.5403 13.8012 29.7686C14.3353 28.0025 15.103 26.467 16.1045 25.1734C17.1059 23.8798 18.3133 22.8561 19.732 22.1137C21.1451 21.3712 22.7363 21 24.5 21C26.2637 21 27.8493 21.3712 29.268 22.1137C30.6867 22.8561 31.894 23.8741 32.8955 25.1734C33.8969 26.4727 34.6647 28.0025 35.1988 29.7686C35.7329 31.5347 36 33.4471 36 35.5C36 37.5529 35.7329 39.4597 35.1988 41.2314C34.6647 42.9975 33.8969 44.533 32.8955 45.8266C31.894 47.1202 30.6867 48.1439 29.268 48.8863C27.8493 49.6288 26.2637 50 24.5 50ZM24.5 44.9773C25.4625 44.9773 26.3304 44.7411 27.1038 44.2686C27.8771 43.7962 28.5392 43.1325 29.0844 42.2832C29.6297 41.4339 30.0469 40.4271 30.3251 39.2684C30.6033 38.1098 30.7479 36.8555 30.7479 35.5C30.7479 34.1445 30.6089 32.8621 30.3251 31.7147C30.0469 30.5673 29.6297 29.5661 29.0844 28.7168C28.5392 27.8675 27.8771 27.2038 27.1038 26.7314C26.3304 26.2589 25.4625 26.0227 24.5 26.0227C23.5375 26.0227 22.6306 26.2589 21.8573 26.7314C21.0839 27.2038 20.4274 27.8675 19.8933 28.7168C19.3592 29.5661 18.9531 30.5673 18.6693 31.7147C18.3911 32.8621 18.2465 34.122 18.2465 35.5C18.2465 36.878 18.3856 38.1042 18.6693 39.2684C18.9475 40.4327 19.3592 41.4339 19.8933 42.2832C20.4274 43.1325 21.0784 43.7962 21.8573 44.2686C22.6306 44.7411 23.5152 44.9773 24.5 44.9773Z" fill="white"/>
<path d="M49.1291 49.9944C47.9699 49.9944 46.8623 49.8482 45.8006 49.5501C44.7389 49.2521 43.769 48.8022 42.8852 48.1949C42.0014 47.5875 41.2267 46.8228 40.5495 45.9061C39.8723 44.9895 39.3558 43.9211 39 42.7064L44.0846 40.7213C44.4405 42.071 45.0488 43.0888 45.9039 43.7805C46.759 44.4666 47.8321 44.8152 49.1291 44.8152C49.7088 44.8152 50.2597 44.7252 50.7819 44.5509C51.3042 44.3766 51.7575 44.1235 52.1478 43.803C52.538 43.4824 52.8422 43.0944 53.0775 42.6502C53.3128 42.2059 53.4275 41.6998 53.4275 41.1318C53.4275 39.9453 52.9799 39.0118 52.0847 38.337C51.1894 37.6622 49.9555 37.3248 48.3888 37.3248H45.9498V32.5055H48.1822C48.7331 32.5055 49.2726 32.438 49.7948 32.3031C50.3171 32.1681 50.7819 31.9601 51.1779 31.6733C51.5796 31.3921 51.8953 31.0266 52.1306 30.5823C52.3659 30.1381 52.4806 29.6151 52.4806 29.0246C52.4806 28.108 52.1478 27.3601 51.4878 26.7752C50.8278 26.196 49.9326 25.9036 48.802 25.9036C47.5911 25.9036 46.6614 26.2242 46.0129 26.854C45.3644 27.4894 44.9168 28.198 44.67 28.9796L39.7116 26.9946C39.9584 26.3198 40.3314 25.6225 40.825 24.9083C41.3185 24.1941 41.9498 23.5474 42.7073 22.9626C43.4648 22.3834 44.3544 21.911 45.3702 21.5455C46.3917 21.18 47.5624 21 48.8824 21C50.2023 21 51.4649 21.1912 52.5782 21.568C53.6915 21.9447 54.6499 22.4677 55.4476 23.1257C56.2453 23.7892 56.8651 24.5709 57.307 25.4762C57.7489 26.3816 57.967 27.3601 57.967 28.4117C57.967 29.2214 57.8637 29.9525 57.6571 30.5992C57.4505 31.2459 57.1808 31.8251 56.8537 32.3425C56.5208 32.8542 56.142 33.2928 55.7174 33.6583C55.2869 34.0239 54.8565 34.3106 54.4146 34.53V34.8561C55.7346 35.3678 56.8307 36.1945 57.6973 37.3248C58.5638 38.4607 59 39.8891 59 41.6155C59 42.8301 58.7647 43.9436 58.2999 44.9558C57.8293 45.968 57.1636 46.8509 56.297 47.61C55.4304 48.3692 54.3917 48.954 53.175 49.3702C51.9641 49.7863 50.6155 50 49.1234 50L49.1291 49.9944Z" fill="white"/>
</svg>
