<svg width="350" height="72" viewBox="0 0 350 72" fill="none" xmlns="http://www.w3.org/2000/svg">
<path d="M59.1685 0H11.8315C5.29727 0 0 5.29213 0 11.8324V59.1676C0 65.7134 5.30281 71 11.8315 71H59.1685C65.7027 71 71 65.7079 71 59.1676V11.8324C71 5.28659 65.6972 0 59.1685 0Z" fill="#B6DCFC"/>
<path d="M334.065 0H110.935C102.135 0 95 5.36667 95 11.9991V60.0009C95 66.639 102.142 72 110.935 72H334.065C342.865 72 350 66.6333 350 60.0009V11.9991C350 5.36105 342.858 0 334.065 0Z" fill="#085394"/>
<path d="M24.5 50C22.7363 50 21.1507 49.6288 19.732 48.8863C18.3188 48.1439 17.1059 47.1259 16.1045 45.8266C15.103 44.533 14.3353 42.9975 13.8012 41.2314C13.2671 39.4653 13 37.5529 13 35.5C13 33.4471 13.2671 31.5403 13.8012 29.7686C14.3353 28.0025 15.103 26.467 16.1045 25.1734C17.1059 23.8798 18.3133 22.8561 19.732 22.1137C21.1451 21.3712 22.7363 21 24.5 21C26.2637 21 27.8493 21.3712 29.268 22.1137C30.6812 22.8561 31.894 23.8741 32.8955 25.1734C33.8969 26.467 34.6647 28.0025 35.1988 29.7686C35.7329 31.5347 36 33.4471 36 35.5C36 37.5529 35.7329 39.4597 35.1988 41.2314C34.6647 42.9975 33.8969 44.533 32.8955 45.8266C31.894 47.1202 30.6867 48.1439 29.268 48.8863C27.8493 49.6288 26.2637 50 24.5 50ZM24.5 44.9773C25.4625 44.9773 26.3304 44.7411 27.1038 44.2686C27.8771 43.7962 28.5392 43.1325 29.0844 42.2832C29.6297 41.4339 30.0469 40.4271 30.3251 39.2684C30.6033 38.1098 30.7479 36.8555 30.7479 35.5C30.7479 34.1445 30.6089 32.8621 30.3251 31.7147C30.0469 30.5673 29.6297 29.5661 29.0844 28.7168C28.5392 27.8675 27.8771 27.2038 27.1038 26.7314C26.3304 26.2589 25.4625 26.0227 24.5 26.0227C23.5375 26.0227 22.6306 26.2589 21.8573 26.7314C21.0839 27.2038 20.4274 27.8675 19.8933 28.7168C19.3592 29.5661 18.9531 30.5673 18.6693 31.7147C18.3911 32.8621 18.2465 34.122 18.2465 35.5C18.2465 36.878 18.3856 38.1042 18.6693 39.2684C18.9475 40.4327 19.3592 41.4339 19.8933 42.2832C20.4274 43.1325 21.0784 43.7962 21.8573 44.2686C22.6306 44.7411 23.5152 44.9773 24.5 44.9773Z" fill="white"/>
<path d="M39.2278 49V44.2379C40.7626 42.6932 42.1835 41.2485 43.4851 39.9149C44.0328 39.3536 44.5914 38.7813 45.1663 38.1923L46.7662 36.5531C47.2597 36.0474 47.7044 35.5862 48.0949 35.175C48.4854 34.7638 48.7837 34.436 48.9952 34.1971C49.4128 33.6914 49.7816 33.2358 50.107 32.8357C50.4324 32.4356 50.6927 32.0411 50.8879 31.6577C51.0832 31.2687 51.235 30.8853 51.3381 30.4963C51.4411 30.1074 51.4953 29.6906 51.4953 29.235C51.4953 28.357 51.1591 27.5902 50.4812 26.9345C49.8033 26.2788 48.8813 25.9565 47.7099 25.9565C46.5384 25.9565 45.6273 26.2955 44.9765 26.979C44.3257 27.6569 43.881 28.4237 43.6478 29.2794L39 27.3179C39.2061 26.5956 39.5478 25.8565 40.0142 25.0953C40.4806 24.334 41.0826 23.6561 41.8093 23.056C42.536 22.4558 43.4037 21.9613 44.4071 21.5779C45.4104 21.1889 46.533 21 47.7858 21C49.1416 21 50.3619 21.2056 51.4574 21.6223C52.5529 22.0391 53.4748 22.6003 54.2287 23.3227C54.9825 24.045 55.5682 24.8897 55.9858 25.8621C56.4034 26.8345 56.6095 27.8847 56.6095 29.0016C56.6095 30.7075 56.1973 32.2745 55.3784 33.7025C54.5595 35.1306 53.5616 36.4586 52.3902 37.6811L49.0331 41.1207C48.1491 42.0264 47.1458 43.0433 46.0286 44.1602L46.1859 44.3991H57V49H39.2332H39.2278Z" fill="white"/>
</svg>
