<svg width="44" height="44" viewBox="0 0 44 44" fill="none" xmlns="http://www.w3.org/2000/svg">
<g clip-path="url(#clip0_1405_2910)">
<path d="M44 22C44 34.1504 34.1504 44 22 44C9.84958 44 0 34.1504 0 22C0 9.84958 9.84958 0 22 0C34.1504 0 44 9.84958 44 22Z" fill="#3BD8B9"/>
<path d="M44 22.0003C44 21.1366 43.9486 20.2846 43.8516 19.4467L34.2025 9.79785L9.80225 34.1981L19.4575 43.8533C20.2917 43.9493 21.14 44.0003 22 44.0003C34.1504 44.0003 44 34.1507 44 22.0003Z" fill="#23AE93"/>
<path d="M34.2031 15.517V34.203H9.79688V15.517L11.6704 14.0869H32.3296L34.2031 15.517Z" fill="#F2F2FC"/>
<path d="M34.2031 15.517V34.203H22V14.0869H32.3296L34.2031 15.517Z" fill="#D8D8FC"/>
<path d="M22.7151 18.4248H32.0581V19.8549H22.7151V18.4248Z" fill="#A3A3D1"/>
<path d="M22.7151 21.2852H32.0581V22.7152H22.7151V21.2852Z" fill="#A3A3D1"/>
<path d="M11.9419 24.1455H32.058V25.5756H11.9419V24.1455Z" fill="#D8D8FC"/>
<path d="M11.9419 27.0049H21.2849V28.4349H11.9419V27.0049Z" fill="#D8D8FC"/>
<path d="M11.9419 29.8652H21.2849V31.2953H11.9419V29.8652Z" fill="#D8D8FC"/>
<path d="M32.0581 31.295H22.7151V27.0049H32.0581V31.295Z" fill="#A3A3D1"/>
<path d="M22 24.1455H32.058V25.5756H22V24.1455Z" fill="#A3A3D1"/>
<path d="M11.9419 18.4248V22.715H21.2849V18.4248H11.9419Z" fill="#D8D8FC"/>
<path d="M34.2032 9.79688H27.0052L25.5752 13.1038L27.0052 15.5171H34.2032V9.79688Z" fill="#47568C"/>
<path d="M9.79688 9.79688H27.0052V15.5171H9.79688V9.79688Z" fill="#4BB9EC"/>
<path d="M22 9.79688H27.0052V15.5171H22V9.79688Z" fill="#0095FF"/>
<path d="M12.657 11.9424H14.087V13.3724H12.657V11.9424Z" fill="#F2F2FC"/>
<path d="M15.5647 11.9424H16.9948V13.3724H15.5647V11.9424Z" fill="#F2F2FC"/>
<path d="M18.4248 11.9424H19.8549V13.3724H18.4248V11.9424Z" fill="#F2F2FC"/>
</g>
<defs>
<clipPath id="clip0_1405_2910">
<rect width="44" height="44" fill="white"/>
</clipPath>
</defs>
</svg>
