<svg width="44" height="44" viewBox="0 0 44 44" fill="none" xmlns="http://www.w3.org/2000/svg">
<g clip-path="url(#clip0_1459_1558)">
<path d="M41.8496 22.0871C41.841 22.0957 41.8774 22.0871 41.7404 22.0871C40.2957 22.0871 39.2971 23.4268 39.8006 24.6752C39.5582 24.9307 40.6045 23.8848 22.9096 41.4871C22.4057 41.9876 21.5951 41.9885 21.0902 41.4871C3.40078 23.8893 4.44416 24.9333 4.19929 24.6752C4.72274 23.3773 3.62846 22.0177 2.15207 22.0898C2.15121 22.0889 2.15121 22.088 2.15035 22.0872C0.686005 19.7992 -0.0490493 17.3169 0.00253946 14.7693C0.202446 4.77007 12.4043 -2.60275 22 5.79023C31.5903 -2.5981 43.7975 4.76482 43.9975 14.7693C44.0491 17.3169 43.3139 19.7992 41.8496 22.0871Z" fill="#FF5959"/>
<path d="M41.8496 22.0872C41.8411 22.0958 41.8775 22.0872 41.7405 22.0872C40.2958 22.0872 39.2972 23.4269 39.8007 24.6753C39.5582 24.9308 40.6046 23.8849 22.9097 41.4872C22.6578 41.7374 22.3293 41.8629 22 41.8629V5.79032C27.9735 0.565577 35.4265 1.23288 40.1739 5.97862C44.3953 10.2 45.3683 16.5893 41.8496 22.0872Z" fill="#E63A57"/>
<path d="M41.8496 22.0876C41.2795 22.9792 40.5986 23.8416 39.8093 24.667H30.2542C29.7796 24.667 29.3437 24.4065 29.1184 23.9886L25.5132 17.2924L20.4145 28.0564C19.9828 28.9677 18.7067 29.0568 18.161 28.1965L14.4664 22.3911L13.4759 24.041C13.2428 24.4297 12.8233 24.6669 12.3701 24.6669H4.19073C3.40142 23.8415 2.72045 22.9791 2.15039 22.0875H11.6402L13.328 19.2742C13.816 18.4589 15.0028 18.4297 15.5213 19.2458L19.0827 24.8415L24.2734 13.8831C24.7278 12.9276 26.0735 12.8951 26.5751 13.8238L31.0246 22.0875H41.8496V22.0876Z" fill="#E1F3FF"/>
<path d="M26.5751 13.8237C26.0744 12.8969 24.7285 12.9259 24.2733 13.883L22 18.6823V24.709L25.5132 17.2922L29.1184 23.9884C29.3437 24.4062 29.7796 24.6668 30.2542 24.6668H39.8093C40.5986 23.8414 41.2796 22.979 41.8497 22.0873H31.0246L26.5751 13.8237Z" fill="#B1D5F1"/>
</g>
<defs>
<clipPath id="clip0_1459_1558">
<rect width="44" height="44" fill="white"/>
</clipPath>
</defs>
</svg>
