<svg width="44" height="44" viewBox="0 0 44 44" fill="none" xmlns="http://www.w3.org/2000/svg">
<path d="M40.7089 32.5756C38.613 37.0914 34.921 40.619 30.3142 42.5111C27.8961 43.5036 25.3587 43.9998 22.8212 43.9998C20.2459 43.9998 17.6715 43.4881 15.2234 42.4665C12.8448 41.4732 10.7256 40.0575 8.94751 38.2993C7.0904 36.4638 5.60514 34.2566 4.58292 31.7704C2.58229 26.9009 2.59776 21.5447 4.6276 16.6872C6.65745 11.8298 10.4585 8.05402 15.3298 6.05374C15.8658 5.8297 16.4835 5.84345 17.0152 6.09576C17.5176 6.33269 17.8974 6.75164 18.0846 7.27448C18.2719 7.79733 18.2444 8.36219 18.0064 8.86441C16.175 12.7904 16.0754 17.3457 17.735 21.3549C18.5055 23.217 19.6067 24.88 20.9742 26.2793C22.4217 27.761 24.1688 28.9476 26.1411 29.7648C29.9464 31.3428 34.1367 31.3565 37.9497 29.806C37.9738 29.794 37.9978 29.7837 38.0219 29.7726C38.5656 29.546 39.1824 29.5597 39.7149 29.8121C40.751 30.3014 41.1951 31.5402 40.7089 32.5756Z" fill="#FFD400"/>
<path d="M39.6176 5.52338H37.4873L40.5683 2.15695C40.913 1.78037 41.0025 1.2357 40.7966 0.768625C40.5908 0.301469 40.1283 0 39.6176 0H34.5624C33.8507 0 33.2739 0.576555 33.2739 1.28777C33.2739 1.99899 33.8508 2.57555 34.5624 2.57555H36.6927L33.6117 5.94198C33.267 6.31855 33.1774 6.86323 33.3833 7.3303C33.5891 7.79745 34.0517 8.09892 34.5624 8.09892H39.6176C40.3292 8.09892 40.906 7.52237 40.906 6.81115C40.906 6.09993 40.3292 5.52338 39.6176 5.52338Z" fill="#5A5A5A"/>
<path d="M23.8626 9.58579C24.0684 10.0529 24.531 10.3544 25.0417 10.3544H29.0821C29.7937 10.3544 30.3705 9.77786 30.3705 9.06664C30.3705 8.35542 29.7936 7.77887 29.0821 7.77887H27.9665L30.0328 5.5212C30.3775 5.14463 30.467 4.59995 30.2611 4.13288C30.0553 3.66573 29.5927 3.36426 29.082 3.36426H25.0416C24.33 3.36426 23.7532 3.94081 23.7532 4.65203C23.7532 5.36325 24.3301 5.93981 25.0416 5.93981H26.1572L24.0909 8.19747C23.7462 8.57413 23.6567 9.11872 23.8626 9.58579Z" fill="#5A5A5A"/>
<path d="M32.1948 17.1629C32.4007 17.6301 32.8633 17.9316 33.374 17.9316H37.4143C38.126 17.9316 38.7028 17.355 38.7028 16.6438C38.7028 15.9326 38.1259 15.356 37.4143 15.356H36.2988L38.3651 13.0984C38.7098 12.7218 38.7993 12.1771 38.5934 11.71C38.3876 11.2429 37.925 10.9414 37.4143 10.9414H33.3739C32.6623 10.9414 32.0854 11.518 32.0854 12.2292C32.0854 12.9404 32.6623 13.517 33.3739 13.517H34.4895L32.4232 15.7746C32.0785 16.1513 31.9889 16.6959 32.1948 17.1629Z" fill="#5A5A5A"/>
<path d="M40.7089 32.5756C38.613 37.0914 34.921 40.619 30.3142 42.5111C27.8961 43.5036 25.3587 43.9998 22.8212 43.9998C20.2459 43.9998 17.6715 43.4881 15.2234 42.4665C12.8448 41.4732 10.7256 40.0575 8.94751 38.2993L20.9743 26.2793C22.4217 27.761 24.1689 28.9476 26.1412 29.7648C29.9465 31.3428 34.1367 31.3565 37.9498 29.806C37.9738 29.794 37.9979 29.7837 38.022 29.7726C38.5657 29.546 39.1825 29.5597 39.715 29.8121C40.751 30.3014 41.1951 31.5402 40.7089 32.5756Z" fill="#FFBF00"/>
</svg>
