<svg width="44" height="44" viewBox="0 0 44 44" fill="none" xmlns="http://www.w3.org/2000/svg">
<g clip-path="url(#clip0_1405_2971)">
<path d="M22 44C34.1503 44 44 34.1503 44 22C44 9.84974 34.1503 0 22 0C9.84974 0 0 9.84974 0 22C0 34.1503 9.84974 44 22 44Z" fill="#FFCE00"/>
<path d="M23.4551 43.953C34.927 43.204 44 33.6617 44 22.0004C44 21.6992 43.9939 21.3996 43.982 21.1014L32.5557 9.64248L19.67 5.97363L9.95303 13.4248L7.27771 27.5765L8.46253 28.7613L8.3558 28.8537L23.4551 43.953Z" fill="#FFA300"/>
<path d="M22 5.35547C13.8821 5.35547 7.27771 11.6897 7.27771 19.4754V27.5762H9.85583V19.4754C9.85583 13.1112 15.3037 7.93359 22 7.93359C22.0349 7.93359 22.0695 7.93454 22.1043 7.93488L22.3389 6.6172L22.1043 5.35676C22.0695 5.35659 22.0349 5.35547 22 5.35547Z" fill="#636978"/>
<path d="M22 5.35547C21.9897 5.35547 21.9796 5.35581 21.9694 5.35581V7.93394C21.9796 7.93394 21.9897 7.93359 22 7.93359C28.6963 7.93359 34.144 13.1112 34.144 19.4754V29.4389C34.144 32.5384 31.477 35.0599 28.1987 35.0599H22V37.638H28.1988C32.8985 37.638 36.7223 33.9599 36.7223 29.4389V19.4754C36.7223 11.6897 30.1179 5.35547 22 5.35547Z" fill="#414952"/>
<path d="M8.35583 21.9482H12.0465V28.854H8.35583V21.9482Z" fill="#555A66"/>
<path d="M13.3937 30.9601C11.7441 30.9601 10.4069 29.6229 10.4069 27.9733V23.0679C10.4069 21.4183 11.7441 20.0811 13.3937 20.0811C15.0433 20.0811 16.3805 21.4183 16.3805 23.0679V27.9733C16.3805 29.6229 15.0433 30.9601 13.3937 30.9601Z" fill="#707789"/>
<path d="M35.6443 29.0938H31.9536V22.188H35.6443V29.0938Z" fill="#333940"/>
<path d="M30.6065 20.0811C32.256 20.0811 33.5933 21.4183 33.5933 23.0679V27.9733C33.5933 29.6229 32.256 30.9601 30.6065 30.9601C28.9569 30.9601 27.6196 29.6229 27.6196 27.9733V23.0679C27.6197 21.4182 28.9569 20.0811 30.6065 20.0811Z" fill="#555A66"/>
<path d="M18.7579 34.2677C17.6282 34.2677 16.7124 35.1835 16.7124 36.3131C16.7124 37.4429 17.6282 38.3586 18.7579 38.3586H22.1043L22.4151 36.4966L22.1043 34.2676H18.7579V34.2677Z" fill="#E9EDF5"/>
<path d="M25.2421 34.2676H21.9694V38.3586H25.2421C26.3719 38.3586 27.2877 37.4428 27.2877 36.3131C27.2876 35.1833 26.3718 34.2676 25.2421 34.2676Z" fill="#CDD2E1"/>
</g>
<defs>
<clipPath id="clip0_1405_2971">
<rect width="44" height="44" fill="white"/>
</clipPath>
</defs>
</svg>
