<svg width="44" height="44" viewBox="0 0 44 44" fill="none" xmlns="http://www.w3.org/2000/svg">
<g clip-path="url(#clip0_1435_1415)">
<path d="M22.8339 14.3074C22.7666 14.1471 21.9751 13.9634 21.9676 13.7607C21.9105 12.2231 21.5422 9.59897 19.828 7.88478C17.2766 5.3333 12.7093 5.76372 12.7093 5.76372C12.7093 5.76372 12.2789 10.3309 14.8303 12.8825C16.5287 14.5809 19.1455 14.9579 20.7058 15.0202V21.4393H23.294L22.4313 14.3074H22.8339Z" fill="#B9E68B"/>
<path d="M30.1314 6.86358C30.1314 6.86358 26.0774 6.44687 23.8339 8.69036C21.7798 10.7445 21.9557 14.3287 22.0001 14.9191V21.4389H23.2942V15.0176C24.675 14.9518 26.8634 14.6021 28.3046 13.1609C30.5481 10.9174 30.1314 6.86358 30.1314 6.86358Z" fill="#73CA7A"/>
<path d="M0 29.2043C0 24.2092 4.06379 20.1455 9.05882 20.1455H22L34.0784 21.0083C39.0735 21.0083 43.1373 24.2092 43.1373 29.2043C43.1373 34.1994 39.0735 37.4004 34.0784 37.4004L22 38.2632H9.05882C4.06379 38.2632 0 34.1994 0 29.2043Z" fill="white"/>
<path d="M0 29.2041C0 34.1991 4.06379 38.2629 9.05882 38.2629H22L34.0784 37.4002C39.0735 37.4002 43.1373 34.1991 43.1373 29.2041H0Z" fill="#D8EBFB"/>
<path d="M34.9412 20.1455H22V37.4004H31.4902C36.4852 37.4004 44 34.1994 44 29.2043C44 24.2092 39.9362 20.1455 34.9412 20.1455Z" fill="#42A2F5"/>
<path d="M22 38.2629H34.9412C39.9362 38.2629 44 34.1991 44 29.2041H22V38.2629Z" fill="#0A6DC2"/>
</g>
<defs>
<clipPath id="clip0_1435_1415">
<rect width="44" height="44" fill="white"/>
</clipPath>
</defs>
</svg>
