<svg width="44" height="44" viewBox="0 0 44 44" fill="none" xmlns="http://www.w3.org/2000/svg">
<g clip-path="url(#clip0_1405_2930)">
<path d="M44 22C44 34.1504 34.1504 44 22 44C9.84958 44 0 34.1504 0 22C0 9.84958 9.84958 0 22 0C34.1504 0 44 9.84958 44 22Z" fill="#4A7AFF"/>
<path d="M44 22C44 34.1504 34.1504 44 22 44C9.84958 44 0 34.1504 0 22C0 9.84958 9.84958 0 22 0C34.1504 0 44 9.84958 44 22Z" fill="#4A7AFF"/>
<path d="M44 22C44 20.6572 43.8792 19.343 43.6489 18.0667L35.9917 10.4092L24.3539 22.4142L9.8909 22.5156L14.8672 27.4923L12.5835 27.5195L16.0472 30.9832L14.5695 32.5075L7.19092 31.3061L19.7734 43.8885C20.5055 43.9621 21.2484 44 22 44C34.1505 44 44 34.1504 44 22Z" fill="#0053BF"/>
<path d="M16.5056 34.0357C27.6829 34.0357 33.7952 24.7756 33.7952 16.7462C33.7952 16.483 33.7898 16.2215 33.7777 15.961C34.9641 15.103 35.9953 14.0328 36.8091 12.8145C35.7201 13.2983 34.5485 13.6242 33.3192 13.7709C34.574 13.019 35.5371 11.8286 35.9916 10.4096C34.817 11.1059 33.5172 11.6118 32.1332 11.8847C31.024 10.7037 29.4449 9.96484 27.6977 9.96484C24.3414 9.96484 21.6199 12.6863 21.6199 16.0409C21.6199 16.5179 21.6733 16.9815 21.7774 17.4266C16.7275 17.1725 12.2491 14.7542 9.25232 11.0777C8.72998 11.9756 8.42953 13.019 8.42953 14.1318C8.42953 16.24 9.50241 18.1014 11.1335 19.19C10.1369 19.1595 9.20029 18.8852 8.38153 18.4297C8.38019 18.4552 8.38019 18.4807 8.38019 18.5072C8.38019 21.4506 10.4749 23.9075 13.2551 24.4644C12.7449 24.6034 12.2078 24.6783 11.6532 24.6783C11.2618 24.6783 10.8811 24.6393 10.5108 24.5688C11.2846 26.9828 13.5277 28.7398 16.1877 28.7895C14.1075 30.4193 11.4877 31.3905 8.64069 31.3905C8.15057 31.3905 7.66684 31.3626 7.19116 31.3062C9.8804 33.0297 13.0735 34.0357 16.5056 34.0357Z" fill="white"/>
<path d="M36.8091 12.8145C35.7202 13.2983 34.5486 13.6239 33.3193 13.7709C34.5741 13.019 35.5372 11.8283 35.9917 10.4096C34.8171 11.1059 33.5173 11.6118 32.1333 11.8843C31.0241 10.7037 29.445 9.96484 27.6978 9.96484C25.0542 9.96484 22.8057 11.6534 21.9695 14.0096V33.2187C29.6582 30.7876 33.7953 23.3513 33.7953 16.7462C33.7953 16.483 33.7899 16.2215 33.7778 15.961C34.9642 15.103 35.9954 14.0328 36.8091 12.8145Z" fill="#DCE1EB"/>
</g>
<defs>
<clipPath id="clip0_1405_2930">
<rect width="44" height="44" fill="white"/>
</clipPath>
</defs>
</svg>
