 <svg
  width="16"
  height="16"
  viewBox="0 0 16 16"
  fill="none"
  xmlns="http://www.w3.org/2000/svg"
>
  <path
    d="M8 0C3.57818 0 0 3.57818 0 8C0 12.4218 3.57818 16 8 16C12.4218 16 16 12.4218 16 8C16 3.57818 12.4218 0 8 0ZM12.16 6.23273L7.79636 10.7782C7.65818 10.9236 7.46182 10.9964 7.27273 10.9964C7.11273 10.9964 6.94546 10.9455 6.81455 10.8364L3.90545 8.47273C3.59273 8.21818 3.54909 7.76 3.79636 7.44727C4.05091 7.14182 4.50909 7.09091 4.82182 7.34546L7.21455 9.28727L11.1127 5.22182C11.3891 4.93818 11.8545 4.93091 12.1382 5.2C12.4291 5.47636 12.4364 5.94182 12.16 6.23273Z"
    fill="#2C96FF"
  />
</svg>