<svg width="447" height="390" viewBox="0 0 447 390" fill="none" xmlns="http://www.w3.org/2000/svg">
<g clip-path="url(#clip0_26_217)">
<path d="M446.022 138.091V390H106.854C101.174 390 96.5742 385.398 96.5742 379.734V103.386C96.5742 97.7132 101.174 93.1194 106.854 93.1194H231.47C234.188 93.1194 236.801 94.1982 238.726 96.121L267.465 124.823C269.39 126.746 272.004 127.825 274.73 127.825H435.734C441.405 127.825 446.013 132.427 446.013 138.091H446.022Z" fill="#B6DCFC"/>
<path d="M341.224 261.314L446.022 390.009H101.461C98.3688 390.009 95.4418 388.617 93.4905 386.224L2.326 274.26C-3.13603 267.552 1.64651 257.52 10.2969 257.52H333.253C336.346 257.52 339.273 258.912 341.224 261.305V261.314Z" fill="#085394"/>
<path d="M202.609 96.3037C202.609 43.1187 159.436 0 106.183 0C52.9304 0 9.75684 43.1709 9.75684 96.3037C9.75684 149.489 52.9304 192.607 106.183 192.607H185.282C191.676 192.607 194.882 184.882 190.361 180.366L174.376 164.401C191.824 146.974 202.618 122.901 202.618 96.3037H202.609Z" fill="#085394"/>
<path d="M125.217 96.3037L143.154 78.3898C148.416 73.1348 148.416 64.6259 143.154 59.3796C137.901 54.1246 129.373 54.1246 124.12 59.3796L106.183 77.2935L88.2462 59.3796C82.9933 54.1246 74.4648 54.1246 69.2119 59.3796C63.9502 64.6259 63.9502 73.1435 69.2119 78.3898L87.1486 96.3037L69.2119 114.218C63.9502 119.473 63.9502 127.982 69.2119 133.228C71.8427 135.855 75.2837 137.169 78.7334 137.169C82.1831 137.169 85.6241 135.855 88.2549 133.228L106.192 115.314L124.128 133.228C126.759 135.855 130.2 137.169 133.65 137.169C137.1 137.169 140.541 135.855 143.171 133.228C148.433 127.982 148.433 119.464 143.171 114.218L125.235 96.3037H125.217Z" fill="white"/>
</g>
<defs>
<clipPath id="clip0_26_217">
<rect width="446.022" height="390" fill="white"/>
</clipPath>
</defs>
</svg>
