<svg xmlns="http://www.w3.org/2000/svg" xmlns:xlink="http://www.w3.org/1999/xlink" version="1.1" id="Layer_1" x="0px" y="0px" viewBox="0 0 239.353 136.773" enable-background="new 0 0 239.353 136.773" xml:space="preserve">
<g>
	<path fill="#2FAE8F" d="M91.78,92.244c-6.477,6.477-15.092,10.046-24.254,10.046c-9.162,0-17.779-3.57-24.255-10.046   c-5.692-5.692-9.167-13.213-9.895-21.147c-0.383,4.625-4.027,8.455-8.808,8.9c-0.309,0.029-0.613,0.042-0.92,0.042   c-4.979,0-9.232-3.793-9.702-8.852c-0.139-1.489-0.196-2.972-0.213-4.453c-0.249,10.976,2.895,21.714,8.846,30.781   c2.598,7.466,3.011,14.448-2.336,23.021c-5.329,8.539,21.347-4.496,21.347-4.496c5.15,2.517,4.832,2.728,12.31,4.433   c2.231,0.509,6.766,1.175,9.054,1.342c0.067,0.005,1.181,0.059,1.248,0.059c2.021,0.001,0.979,0.003,3.18,0   c0.595-0.001,2.159,0.003,2.757,0.003c14.374,0,25.278-5.671,35.44-15.835c3.81-3.81,3.807-9.988-0.001-13.798   C101.769,88.433,95.591,88.432,91.78,92.244z"/>
	<path fill="#005393" d="M23.97,56.167c5.005,0.227,8.943,4.199,9.273,9.079c0.227-8.743,3.764-17.077,10.03-23.34   c13.375-13.375,35.136-13.375,48.51,0c3.811,3.812,9.992,3.812,13.803,0c3.809-3.809,3.809-9.986,0-13.798   c-20.988-20.983-55.125-20.983-76.115,0c-10.305,10.308-15.9,24.187-15.737,38.627c0.01-0.426,0.014-0.851,0.034-1.277   C14.019,60.075,18.614,55.923,23.97,56.167z"/>
	<path fill="#00515F" d="M23.648,80.039c0.307,0,0.611-0.013,0.92-0.042c4.782-0.445,8.425-4.275,8.808-8.9   c-0.122-1.33-0.166-2.671-0.13-4.017c-0.017-0.613-0.018-1.224-0.002-1.834c-0.33-4.881-4.268-8.852-9.273-9.079   c-5.357-0.244-9.951,3.908-10.203,9.291c-0.02,0.426-0.024,0.851-0.034,1.277c0.017,1.48,0.073,2.964,0.213,4.453   C14.416,76.246,18.668,80.039,23.648,80.039z"/>
</g>
<g>
	<path d="M70.199,78.128c-2.735,0-4.813-0.82-6.234-2.462c-1.422-1.641-2.133-3.996-2.133-7.065c0-3.125,0.744-5.528,2.23-7.209   c1.487-1.68,3.636-2.521,6.447-2.521c1.907,0,3.622,0.364,5.148,1.093l-1.16,3.176c-1.624-0.649-2.964-0.975-4.021-0.975   c-3.127,0-4.69,2.134-4.69,6.402c0,2.083,0.39,3.649,1.169,4.696c0.779,1.048,1.92,1.571,3.423,1.571   c1.711,0,3.329-0.438,4.854-1.311v3.444c-0.687,0.414-1.419,0.711-2.198,0.891C72.255,78.038,71.31,78.128,70.199,78.128z"/>
	<path d="M95.513,68.466c0,3.036-0.757,5.405-2.272,7.108c-1.515,1.703-3.623,2.554-6.325,2.554c-1.688,0-3.181-0.392-4.478-1.176   c-1.297-0.784-2.293-1.91-2.991-3.378c-0.697-1.467-1.046-3.17-1.046-5.108c0-3.013,0.752-5.365,2.255-7.057   c1.503-1.691,3.622-2.538,6.357-2.538c2.615,0,4.685,0.866,6.21,2.597C94.75,63.199,95.513,65.532,95.513,68.466z M82.357,68.466   c0,4.291,1.542,6.436,4.625,6.436c3.051,0,4.576-2.145,4.576-6.436c0-4.245-1.536-6.368-4.609-6.368   c-1.612,0-2.781,0.549-3.505,1.646C82.72,64.843,82.357,66.416,82.357,68.466z"/>
	<path d="M115.827,77.792h-3.857V66.367c0-1.435-0.281-2.504-0.842-3.21c-0.561-0.706-1.452-1.059-2.672-1.059   c-1.624,0-2.811,0.493-3.562,1.479c-0.752,0.986-1.128,2.639-1.128,4.957v9.259h-3.84V59.208h3.007l0.54,2.436h0.196   c0.545-0.885,1.318-1.568,2.321-2.051c1.002-0.482,2.114-0.723,3.334-0.723c4.336,0,6.504,2.269,6.504,6.806V77.792z"/>
	<path d="M133.313,72.499c0,1.814-0.644,3.207-1.929,4.176c-1.285,0.969-3.127,1.453-5.523,1.453c-2.408,0-4.342-0.375-5.802-1.126   v-3.411c2.124,1.009,4.103,1.513,5.933,1.513c2.363,0,3.546-0.733,3.546-2.201c0-0.471-0.131-0.862-0.392-1.177   c-0.262-0.313-0.692-0.638-1.291-0.975c-0.6-0.336-1.434-0.716-2.501-1.143c-2.081-0.828-3.489-1.657-4.225-2.486   c-0.735-0.829-1.103-1.904-1.103-3.226c0-1.59,0.624-2.825,1.871-3.705c1.247-0.879,2.943-1.319,5.09-1.319   c2.125,0,4.135,0.443,6.031,1.328l-1.242,2.974c-1.951-0.828-3.59-1.243-4.92-1.243c-2.025,0-3.039,0.594-3.039,1.781   c0,0.583,0.264,1.075,0.793,1.478c0.527,0.403,1.68,0.958,3.456,1.664c1.493,0.594,2.577,1.137,3.252,1.63   c0.676,0.493,1.177,1.062,1.504,1.705C133.15,70.833,133.313,71.603,133.313,72.499z"/>
	<path d="M145.357,78.128c-2.811,0-5.009-0.843-6.594-2.528c-1.586-1.687-2.378-4.008-2.378-6.966c0-3.035,0.735-5.421,2.206-7.158   c1.471-1.735,3.492-2.604,6.062-2.604c2.387,0,4.271,0.745,5.655,2.235c1.384,1.49,2.075,3.54,2.075,6.15v2.134H140.34   c0.055,1.804,0.529,3.189,1.422,4.158c0.895,0.97,2.152,1.454,3.775,1.454c1.068,0,2.062-0.104,2.982-0.311   c0.921-0.207,1.91-0.551,2.967-1.033v3.21c-0.938,0.459-1.885,0.784-2.844,0.975S146.589,78.128,145.357,78.128z M144.654,61.862   c-1.22,0-2.197,0.399-2.933,1.193c-0.735,0.796-1.175,1.955-1.316,3.479h8.203c-0.021-1.535-0.381-2.697-1.078-3.487   C146.834,62.258,145.875,61.862,144.654,61.862z"/>
	<path d="M172.65,77.792h-3.857V66.367c0-1.435-0.281-2.504-0.842-3.21c-0.561-0.706-1.451-1.059-2.672-1.059   c-1.623,0-2.811,0.493-3.562,1.479c-0.752,0.986-1.128,2.639-1.128,4.957v9.259h-3.841V59.208h3.008l0.539,2.436h0.195   c0.545-0.885,1.318-1.568,2.321-2.051c1.003-0.482,2.114-0.723,3.334-0.723c4.336,0,6.505,2.269,6.505,6.806V77.792z"/>
	<path d="M190.137,72.499c0,1.814-0.643,3.207-1.93,4.176c-1.285,0.969-3.127,1.453-5.523,1.453c-2.408,0-4.342-0.375-5.801-1.126   v-3.411c2.124,1.009,4.102,1.513,5.932,1.513c2.364,0,3.547-0.733,3.547-2.201c0-0.471-0.131-0.862-0.393-1.177   c-0.262-0.313-0.691-0.638-1.291-0.975c-0.6-0.336-1.433-0.716-2.5-1.143c-2.082-0.828-3.49-1.657-4.225-2.486   c-0.736-0.829-1.104-1.904-1.104-3.226c0-1.59,0.623-2.825,1.871-3.705c1.248-0.879,2.944-1.319,5.091-1.319   c2.124,0,4.135,0.443,6.03,1.328l-1.242,2.974c-1.95-0.828-3.59-1.243-4.919-1.243c-2.026,0-3.04,0.594-3.04,1.781   c0,0.583,0.265,1.075,0.793,1.478c0.528,0.403,1.681,0.958,3.457,1.664c1.492,0.594,2.576,1.137,3.252,1.63   c0.676,0.493,1.176,1.062,1.504,1.705C189.973,70.833,190.137,71.603,190.137,72.499z"/>
	<path d="M207.034,77.792l-0.54-2.437h-0.195c-0.534,0.863-1.294,1.54-2.279,2.033c-0.986,0.493-2.111,0.739-3.375,0.739   c-2.189,0-3.824-0.56-4.902-1.681c-1.079-1.119-1.619-2.816-1.619-5.091V59.208h3.873v11.459c0,1.423,0.283,2.49,0.851,3.201   c0.566,0.712,1.454,1.067,2.663,1.067c1.613,0,2.798-0.496,3.555-1.487c0.758-0.991,1.137-2.652,1.137-4.982v-9.258h3.856v18.584   H207.034z"/>
	<path d="M227.675,72.499c0,1.814-0.644,3.207-1.929,4.176c-1.285,0.969-3.127,1.453-5.523,1.453c-2.408,0-4.342-0.375-5.802-1.126   v-3.411c2.124,1.009,4.102,1.513,5.933,1.513c2.363,0,3.546-0.733,3.546-2.201c0-0.471-0.131-0.862-0.392-1.177   c-0.262-0.313-0.692-0.638-1.291-0.975c-0.6-0.336-1.434-0.716-2.501-1.143c-2.081-0.828-3.489-1.657-4.225-2.486   c-0.735-0.829-1.103-1.904-1.103-3.226c0-1.59,0.623-2.825,1.871-3.705c1.247-0.879,2.943-1.319,5.09-1.319   c2.125,0,4.135,0.443,6.031,1.328l-1.242,2.974c-1.951-0.828-3.59-1.243-4.92-1.243c-2.025,0-3.039,0.594-3.039,1.781   c0,0.583,0.264,1.075,0.793,1.478c0.527,0.403,1.68,0.958,3.456,1.664c1.493,0.594,2.577,1.137,3.252,1.63   c0.676,0.493,1.177,1.062,1.504,1.705C227.512,70.833,227.675,71.603,227.675,72.499z"/>
</g>
</svg>