<svg width="96" height="112" viewBox="0 0 96 112" fill="none" xmlns="http://www.w3.org/2000/svg">
<path d="M92.1476 79.8648C88.3376 76.0548 82.1576 76.0548 78.3476 79.8648C71.8676 86.3448 63.2576 89.9148 54.0976 89.9148C44.9376 89.9148 36.3176 86.3448 29.8476 79.8648C23.0276 73.0548 19.3676 63.6248 19.8276 53.9948C20.0776 48.6148 15.9276 44.0348 10.5376 43.7848C5.17762 43.5448 0.587618 47.6948 0.337618 53.0748C-0.192382 64.4948 2.96762 75.7148 9.14762 85.1348C11.7476 92.6048 12.1576 99.5848 6.80762 108.155C1.47762 116.695 28.1576 103.655 28.1576 103.655C33.3076 106.175 32.9876 106.385 40.4676 108.085C42.6976 108.595 47.2376 109.255 49.5176 109.425C49.5876 109.425 50.6976 109.485 50.7676 109.485C52.7876 109.485 51.7476 109.485 53.9476 109.485C54.5376 109.485 56.1076 109.485 56.7076 109.485C71.0776 109.485 81.9876 103.815 92.1476 93.6548C95.9576 89.8548 95.9476 83.6748 92.1476 79.8648Z" fill="#2FAE8F"/>
<path d="M9.93739 67.665C4.95739 67.665 0.70739 63.875 0.23739 58.815C-1.26261 42.805 4.39739 27.105 15.7574 15.735C36.7474 -5.245 70.8874 -5.245 91.8774 15.735C95.6874 19.545 95.6874 25.725 91.8774 29.535C88.0674 33.345 81.8874 33.345 78.0774 29.535C64.7074 16.155 42.9474 16.155 29.5674 29.535C22.3174 36.775 18.7174 46.795 19.6674 57.005C20.1674 62.365 16.2274 67.125 10.8574 67.625C10.5474 67.655 10.2374 67.665 9.93739 67.665Z" fill="#005393"/>
</svg>
