<svg width="412" height="395" viewBox="0 0 412 395" fill="none" xmlns="http://www.w3.org/2000/svg">
<path d="M156.993 81.5C156.993 39.8041 123.191 6 81.4966 6C39.8026 6 6 39.8451 6 81.5C6 123.196 39.8026 157 81.4966 157H143.427C148.433 157 150.943 150.943 147.404 147.403L134.888 134.887C148.549 121.225 157 102.351 157 81.5H156.993Z" fill="white"/>
<path d="M81 103.908C85.1918 103.908 88.5938 107.31 88.5938 111.502C88.5938 115.693 85.1918 119.095 81 119.095C76.8083 119.095 73.4062 115.693 73.4062 111.502C73.4062 107.31 76.8083 103.908 81 103.908Z" fill="#085394"/>
<path d="M103.842 65.7517C103.842 75.6844 97.4683 84.159 88.5937 87.2977V96.2482H73.4062V73.4062H81C85.2221 73.4062 88.6545 69.9688 88.6545 65.7517C88.6545 61.5347 85.2221 58.0922 81 58.0922C76.7778 58.0922 73.3455 61.5296 73.3455 65.7517H58.158C58.158 53.1512 68.4045 42.9047 81 42.9047C93.5955 42.9047 103.842 53.1512 103.842 65.7517Z" fill="#085394"/>
<path d="M234.087 247.717C232.226 247.717 230.384 247.35 228.666 246.638C226.947 245.926 225.386 244.882 224.071 243.566L173.975 193.437C172.659 192.122 171.616 190.56 170.903 188.841C170.191 187.123 169.825 185.281 169.825 183.42C169.825 181.56 170.191 179.718 170.903 177.999C171.616 176.281 172.659 174.719 173.975 173.404L264.108 83.2646C265.661 81.7079 267.555 80.5354 269.642 79.8405L299.69 69.8173C302.187 68.9849 304.865 68.8644 307.426 69.4692C309.987 70.074 312.329 71.3802 314.189 73.2414L344.252 103.297C346.112 105.158 347.417 107.5 348.021 110.061C348.624 112.622 348.502 115.3 347.669 117.795L337.639 147.858C336.949 149.945 335.778 151.84 334.222 153.392L244.103 243.566C242.788 244.882 241.227 245.926 239.508 246.638C237.789 247.35 235.947 247.717 234.087 247.717Z" fill="#B6DCFC"/>
<path d="M173.975 193.437L173.974 193.435L153.915 213.49C152.599 214.805 151.555 216.366 150.843 218.085C150.131 219.803 149.765 221.645 149.765 223.506C149.765 225.366 150.131 227.208 150.843 228.927C151.555 230.645 152.599 232.207 153.915 233.522L183.978 263.571C185.293 264.887 186.854 265.931 188.573 266.643C190.291 267.355 192.134 267.721 193.994 267.721C195.854 267.721 197.696 267.355 199.415 266.643C201.134 265.931 202.695 264.887 204.01 263.571L224.043 243.538L173.975 193.437Z" fill="#085394"/>
<path d="M185.333 310.076H128.667C124.909 310.076 121.306 308.583 118.649 305.927C115.993 303.27 114.5 299.667 114.5 295.909C114.5 292.152 115.993 288.549 118.649 285.892C121.306 283.235 124.909 281.743 128.667 281.743H185.333C189.091 281.743 192.694 283.235 195.351 285.892C198.007 288.549 199.5 292.152 199.5 295.909C199.5 299.667 198.007 303.27 195.351 305.927C192.694 308.583 189.091 310.076 185.333 310.076Z" fill="#085394"/>
<path d="M355.333 380.909H128.667C124.909 380.909 121.306 379.417 118.649 376.76C115.993 374.103 114.5 370.5 114.5 366.743C114.5 362.985 115.993 359.382 118.649 356.725C121.306 354.069 124.909 352.576 128.667 352.576H355.333C359.091 352.576 362.694 354.069 365.351 356.725C368.007 359.382 369.5 362.985 369.5 366.743C369.5 370.5 368.007 374.103 365.351 376.76C362.694 379.417 359.091 380.909 355.333 380.909Z" fill="#085394"/>
<path d="M281.89 352.576C283.569 348.039 284.452 343.247 284.5 338.409C284.5 327.138 280.022 316.328 272.052 308.357C264.082 300.387 253.272 295.909 242 295.909C230.728 295.909 219.918 300.387 211.948 308.357C203.978 316.328 199.5 327.138 199.5 338.409C199.548 343.247 200.432 348.039 202.111 352.576H281.89Z" fill="#B6DCFC"/>
<path d="M325.195 162.424L305.153 182.478C319.24 198.025 327.029 218.263 327 239.243C326.912 255.374 322.272 271.152 313.613 284.763C304.955 298.374 292.63 309.264 278.057 316.18C282.239 322.842 284.472 330.543 284.5 338.409C284.462 340.346 284.274 342.277 283.937 344.184C304.903 335.744 322.886 321.261 335.599 302.574C348.312 283.888 355.181 261.843 355.333 239.243C355.375 210.744 344.604 183.291 325.195 162.424ZM205.458 317.072C200.067 314.887 194.878 312.235 189.949 309.145C188.474 309.715 186.914 310.03 185.333 310.076H147.457C161.748 326.052 179.888 338.107 200.152 345.096C199.738 342.891 199.52 340.653 199.5 338.409C199.542 330.892 201.599 323.524 205.458 317.072Z" fill="#085394"/>
</svg>
