<svg width="342" height="412" viewBox="0 0 342 412" fill="none" xmlns="http://www.w3.org/2000/svg">
<path d="M126.695 212.973C131.502 192.485 149.778 178 170.823 178C191.758 178 209.97 192.338 214.883 212.689L241.456 322.761C252.434 368.235 217.978 412 171.197 412C124.608 412 90.1892 368.571 100.831 323.214L126.695 212.973Z" fill="white" fill-opacity="0.5"/>
<g clip-path="url(#clip0_26_109)">
<path d="M322.008 167.084H19.9917C7.20698 167.084 -2.29913 155.299 0.479734 142.877L0.629672 142.201C6.73717 114.89 31.0672 95.4768 59.1757 95.4768H282.814C310.923 95.4768 335.263 114.9 341.36 142.201L341.51 142.877C344.279 155.299 334.783 167.084 321.998 167.084H322.008Z" fill="#085394"/>
<path d="M46.7607 167.084C71.7305 202.5 117.952 226.36 171 226.36C224.048 226.36 270.269 202.5 295.239 167.084H46.7607Z" fill="#B6DCFC"/>
<path d="M288.542 95.4769C277.427 40.9954 229.026 0 171 0C112.974 0 64.5637 40.9954 53.4482 95.4769H288.542Z" fill="white"/>
<path d="M228.866 216.245C218.651 208.13 196.62 202.5 171 202.5C145.381 202.5 123.34 208.13 113.134 216.245C130.837 222.73 150.399 226.37 171 226.37C191.602 226.37 211.164 222.73 228.866 216.245Z" fill="white"/>
<path d="M159.717 95.6813L153.77 82.5272C151.116 76.7053 151.669 69.9654 155.146 64.5996C158.622 59.2337 164.568 56 171.015 56C177.462 56 183.224 59.139 186.7 64.3271C190.177 69.5153 190.861 76.1605 188.486 81.9409L182.861 95.5451L159.717 95.6813Z" fill="#085394"/>
<path d="M165.39 82.4858C164.884 82.4858 164.384 82.3022 164.015 81.9409L160.217 78.2097C159.437 77.4338 159.437 76.2552 160.217 75.4794C160.997 74.7035 162.181 74.7035 162.961 75.4794L166.759 79.2106C167.539 79.9864 167.539 81.165 166.759 81.9409C166.396 82.3022 165.89 82.4858 165.384 82.4858H165.39Z" fill="#B6DCFC"/>
<path d="M176.688 82.4859C176.182 82.4859 175.682 82.3023 175.313 81.8936C174.533 81.1177 174.581 79.8918 175.313 79.1633L179.11 75.4321C179.89 74.6562 181.122 74.7036 181.855 75.4321C182.634 76.2079 182.587 77.4339 181.855 78.1624L178.057 81.8936C177.694 82.3023 177.188 82.4859 176.682 82.4859H176.688Z" fill="#B6DCFC"/>
</g>
<path d="M147.75 282C145.138 282 143 284.166 143 286.812V354.188C143 356.834 145.138 359 147.75 359H195.25C197.862 359 200 356.834 200 354.188V301.25L181 282H147.75Z" fill="#B6DCFC"/>
<path d="M185.75 301.25H200L181 282V296.438C181 299.084 183.138 301.25 185.75 301.25Z" fill="#085394"/>
<defs>
<clipPath id="clip0_26_109">
<rect width="342" height="226.36" fill="white"/>
</clipPath>
</defs>
</svg>
