<svg width="70" height="71" viewBox="0 0 70 71" fill="none" xmlns="http://www.w3.org/2000/svg">
<g clip-path="url(#clip0_5968_12410)">
<path d="M45.049 18.3235L36.8464 1.69933C36.4769 1.00185 35.7388 0.632812 35.0007 0.632812C34.2621 0.632812 33.524 1.00185 33.155 1.69933L24.9519 18.3235C24.6651 18.9387 24.6651 19.7179 25.0341 20.2926C25.4443 20.9073 26.1006 21.2768 26.7981 21.2768H43.2039C43.9008 21.2768 44.5572 20.9073 44.9673 20.2926C45.3364 19.7179 45.3364 18.9387 45.049 18.3235Z" fill="#46A759"/>
<path d="M57.3532 42.9368L49.1501 26.531C48.7811 25.8336 48.0836 25.3828 47.3044 25.3828H22.696C21.9163 25.3828 21.2194 25.8336 20.8503 26.531L12.6472 42.9368C12.3604 43.552 12.3604 44.3312 12.7294 44.9053C13.1396 45.5206 13.7959 45.8896 14.4929 45.8896H55.5075C56.2045 45.8896 56.8614 45.5206 57.271 44.9053C57.64 44.3312 57.64 43.552 57.3532 42.9368Z" fill="#FFB800"/>
<path d="M69.794 67.6829L61.5909 51.1404C61.2218 50.4435 60.5249 49.9922 59.7457 49.9922H10.2545C9.4753 49.9922 8.77782 50.4435 8.40878 51.1404L0.20618 67.6829C-0.0811436 68.2986 -0.0811436 69.0778 0.288425 69.6519C0.698048 70.2672 1.35441 70.6362 2.05189 70.6362H67.9483C68.6458 70.6362 69.3021 70.2672 69.7123 69.6519C70.0813 69.0773 70.0813 68.2981 69.794 67.6829Z" fill="#E3504F"/>
</g>
<defs>
<clipPath id="clip0_5968_12410">
<rect width="70" height="70" fill="white" transform="translate(0 0.5)"/>
</clipPath>
</defs>
</svg>
