<svg width="20" height="20" viewBox="0 0 20 20" fill="none" xmlns="http://www.w3.org/2000/svg">
<g clip-path="url(#clip0_5818_74210)">
<path d="M12.8712 5.09354L10.5275 0.343781C10.422 0.144501 10.2111 0.0390625 10.0002 0.0390625C9.78918 0.0390625 9.5783 0.144501 9.47286 0.343781L7.12911 5.09354C7.04717 5.26933 7.04717 5.49195 7.15261 5.65614C7.26979 5.83176 7.45732 5.93736 7.6566 5.93736H12.344C12.5431 5.93736 12.7306 5.83176 12.8478 5.65614C12.9532 5.49195 12.9532 5.26933 12.8712 5.09354Z" fill="#E0E0E0"/>
<path d="M16.3866 12.1248L14.0429 7.43744C13.9374 7.23816 13.7382 7.10938 13.5155 7.10938H6.48458C6.2618 7.10938 6.06268 7.23816 5.95724 7.43744L3.61348 12.1248C3.53154 12.3006 3.53154 12.5232 3.63698 12.6872C3.75417 12.863 3.9417 12.9685 4.14083 12.9685H15.8593C16.0584 12.9685 16.2461 12.863 16.3631 12.6872C16.4686 12.5232 16.4686 12.3006 16.3866 12.1248Z" fill="#E0E0E0"/>
<path d="M19.9411 19.1946L17.5974 14.4682C17.4919 14.2691 17.2928 14.1401 17.0702 14.1401H2.92985C2.70723 14.1401 2.50795 14.2691 2.40251 14.4682L0.0589085 19.1946C-0.0231839 19.3706 -0.0231839 19.5932 0.0824071 19.7572C0.199442 19.933 0.386973 20.0384 0.586253 20.0384H19.4138C19.6131 20.0384 19.8006 19.933 19.9178 19.7572C20.0232 19.593 20.0232 19.3704 19.9411 19.1946Z" fill="#E3504F"/>
</g>
<defs>
<clipPath id="clip0_5818_74210">
<rect width="20" height="20" fill="white"/>
</clipPath>
</defs>
</svg>
