<svg width="438" height="321" viewBox="0 0 438 321" fill="none" xmlns="http://www.w3.org/2000/svg">
<path d="M406.714 62.6341V274.024H31.2856V62.6341C31.2856 54.0219 38.3249 46.9756 46.9285 46.9756H391.071C399.675 46.9756 406.714 54.0219 406.714 62.6341Z" fill="#085394"/>
<path d="M391.072 78.2926V250.537C391.072 254.843 387.552 258.366 383.25 258.366H54.7501C50.4484 258.366 46.9287 254.843 46.9287 250.537V78.2926C46.9287 73.9865 50.4484 70.4634 54.7501 70.4634H383.25C387.552 70.4634 391.072 73.9865 391.072 78.2926Z" fill="white"/>
<path d="M438 281.854C438 292.658 433.62 302.445 426.581 309.569C419.463 316.616 409.686 321 398.893 321H39.1071C17.52 321 0 303.462 0 281.854C0 277.548 3.51964 274.024 7.82143 274.024H430.179C434.48 274.024 438 277.548 438 281.854Z" fill="#B6DCFC"/>
<path d="M258.107 289.683H179.893C175.571 289.683 172.071 286.179 172.071 281.854V274.024H265.928V281.854C265.928 286.179 262.428 289.683 258.107 289.683Z" fill="white"/>
<path d="M328.5 117.439C328.5 122.763 328.109 128.008 327.405 133.098C319.818 186.18 274.141 227.049 219 227.049C163.859 227.049 118.182 186.18 110.595 133.098C109.891 128.008 109.5 122.763 109.5 117.439C109.5 56.9187 158.54 7.82922 219 7.82922C279.46 7.82922 328.5 56.9187 328.5 117.439Z" fill="#B6DCFC"/>
<path d="M312.857 117.439C312.857 122.763 312.388 127.93 311.528 132.941C304.176 177.489 265.616 211.39 219 211.39C172.384 211.39 133.825 177.489 126.473 132.941C125.612 127.93 125.143 122.763 125.143 117.439C125.143 68.1929 162.999 27.7939 211.179 23.801C213.76 23.5661 216.341 23.4878 219 23.4878C221.66 23.4878 224.241 23.5661 226.822 23.801C275.002 27.7939 312.857 68.1929 312.857 117.439Z" fill="white"/>
<path d="M221.288 83.1566C218.228 80.0934 218.228 75.1414 221.288 72.088L243.403 49.9507C246.463 46.8875 251.41 46.8875 254.46 49.9507C257.521 53.0139 257.521 57.9659 254.46 61.0193L232.345 83.1566C229.295 86.2198 224.338 86.2198 221.288 83.1566Z" fill="#085394"/>
<path d="M183.52 49.941C180.46 53.0042 180.46 57.9562 183.52 61.0096L205.635 83.1468C208.695 86.21 213.642 86.21 216.693 83.1468C219.753 80.0836 219.753 75.1316 216.693 72.0782L194.578 49.941C191.527 46.8778 186.58 46.8778 183.52 49.941Z" fill="#085394"/>
<path d="M250.286 101.105H187.714V85.4467C187.714 68.1538 201.724 54.1296 219 54.1296C236.276 54.1296 250.286 68.1538 250.286 85.4467V101.105Z" fill="#085394"/>
<path d="M203.357 116.764H164.25C159.929 116.764 156.429 113.26 156.429 108.934C156.429 104.609 159.929 101.105 164.25 101.105H203.357V116.764Z" fill="#085394"/>
<path d="M203.357 155.91H164.25C159.929 155.91 156.429 152.407 156.429 148.081C156.429 143.755 159.929 140.252 164.25 140.252H203.357V155.91Z" fill="#085394"/>
<path d="M273.75 116.764H234.643V101.105H273.75C278.072 101.105 281.572 104.609 281.572 108.934C281.572 113.26 278.072 116.764 273.75 116.764Z" fill="#085394"/>
<path d="M273.75 155.91H234.643V140.252H273.75C278.072 140.252 281.572 143.755 281.572 148.081C281.572 152.407 278.072 155.91 273.75 155.91Z" fill="#085394"/>
<path d="M265.929 93.2759V140.252C265.929 166.548 244.508 187.227 219 187.227C193.493 187.227 172.072 166.264 172.072 140.252V93.2759C172.072 88.9698 175.591 85.4467 179.893 85.4467H258.108C262.409 85.4467 265.929 88.9698 265.929 93.2759Z" fill="#B6DCFC"/>
<path d="M226.822 85.4467V186.523C224.319 186.992 221.659 187.227 219 187.227C216.341 187.227 213.682 186.992 211.179 186.523V85.4467H226.822Z" fill="#085394"/>
<path d="M219 31.3171C214.679 31.3171 211.179 27.8135 211.179 23.4878V7.82927C211.179 3.5036 214.679 0 219 0C223.321 0 226.822 3.5036 226.822 7.82927V23.4878C226.822 27.8135 223.321 31.3171 219 31.3171Z" fill="#085394"/>
<path d="M219 235.317C214.679 235.317 211.179 231.813 211.179 227.488V211.829C211.179 207.504 214.679 204 219 204C223.321 204 226.822 207.504 226.822 211.829V227.488C226.822 231.813 223.321 235.317 219 235.317Z" fill="#085394"/>
<path d="M305.036 117.439C305.036 113.113 308.536 109.61 312.857 109.61H328.5C332.821 109.61 336.321 113.113 336.321 117.439C336.321 121.765 332.821 125.268 328.5 125.268H312.857C308.536 125.268 305.036 121.765 305.036 117.439Z" fill="#085394"/>
<path d="M101.679 117.439C101.679 113.113 105.179 109.61 109.5 109.61H125.143C129.464 109.61 132.964 113.113 132.964 117.439C132.964 121.765 129.464 125.268 125.143 125.268H109.5C105.179 125.268 101.679 121.765 101.679 117.439Z" fill="#085394"/>
</svg>
